<?xml version="1.0" encoding="UTF-8"?>
<svg id="Capa_1" data-name="Capa 1" xmlns="http://www.w3.org/2000/svg" viewBox="0 0 224.12 365.41">
  <defs>
  <linearGradient id="linear" x1="0%" y1="0%" x2="100%" y2="0%">
  <stop offset="0%" stop-color="white"/>
  <stop offset="48%" stop-color="rgb(221, 186, 69)"/>
  <stop offset="80%" stop-color="rgb(147, 202, 247)"/>
  <stop offset="100%" stop-color="white"/>
  
  </linearGradient>
    <style>
      .cls-1 {
        fill: none;
      }

      .cls-1, .cls-2 {
        stroke: url(#linear);
        stroke-width: 4;
        stroke-miterlimit: 10;
      }

      .cls-2 {
        fill:  url(#linear);
        stroke-width: 4;
      }
    </style>
  </defs>
  <path class="cls-1" d="m51.13,346.24c1.34-1.06,2.92-.79,4.43-.7,2.87.17,5.74.43,8.6.69.75.07,1.59.14,2.21.52,1,.61,2.05.97,3.16,1.32.96.3,1.91.8,2.29,2.12-.5.11-.85.26-1.19.24-1.63-.11-3.25-.28-4.87-.39-2.03-.14-3.99-.54-5.78-1.57-.32-.19-.7-.35-1.06-.38-.24-.02-.6.15-.72.34-.12.19-.1.65.04.78.41.37.88.78,1.4.91,2.97.77,5.94,1.54,8.94,2.17,1.68.35,3.42.45,5.13.67,1.99.25,3.99.47,5.98.77.46.07,1,.25,1.29.57,1.12,1.22,2.5,1.21,3.98,1.08.66-.06,1.34.05,2,.16,1.97.35,4.02.28,5.93,1.03.51.2,1.14.15,1.71.12,3.83-.21,7.66-.47,11.49-.64.73-.03,1.71-.05,2.17.37,1.32,1.19,2.67.96,4.03.39,2.62-1.1,5.38-1.35,8.15-1.59.47-.04,1.07-.13,1.39.1,1.56,1.11,3.14.63,4.66.11,2.9-.99,5.76-2.11,8.65-3.15,1.62-.59,3.23-1.21,4.89-1.67,2.04-.56,4.1-.98,5.9-2.18.46-.31,1.06-.43,1.61-.61,1.27-.42,2.54-.85,3.82-1.23.73-.22,1.48-.37,2.23-.53,1.12-.24,2.29-.35,3.36-.72,2.38-.81,4.7-.59,7.07.07,3.23.91,6.49,1.71,9.74,2.51.55.14,1.14.15,1.71.1.82-.07,1.48.24,2.15.65.98.59,1.97,1.21,3.03,1.61,1.42.53,2.92.88,4.4,1.27.11.03.28-.18.61-.4-.42-.3-.74-.64-1.13-.8-.61-.25-1.29-.34-1.91-.58-.18-.07-.28-.45-.31-.71-.01-.13.19-.32.34-.41.15-.1.36-.16.54-.17,2.81-.08,5.48-.8,8.15-1.63,1.45-.46,3.06-.7,4.55-.2,1.61.54,3.16.5,4.78-.06.84,1.37,2.04,1.83,3.47,1.89.76.03,1.53.09,2.29.16,1.05.1,2.11.17,3.14.36.86.16,1.24.72,1.33,1.64.05.52-.45,1.1.27,1.67.31-.7.46-1.5.93-1.99.5-.51,1.32-.71,1.98-1.08.7-.39.71-1.06.67-1.76-.08-1.43-.13-2.86-.19-4.29-.04-.99.19-1.85.86-2.65.4-.48.76-1.2.75-1.8-.05-1.94.52-3.76,1.03-5.68-1.15-.92-1.8-2.02-1.56-3.51.41-2.54.76-5.09.22-7.58.77-.57,1.43-.97,1.98-1.49.37-.35.46-.98-.1-1.21-.87-.36-1.05-1.06-1.13-1.83-.07-.66-.13-1.34-.06-1.99.18-1.62.4-3.23.07-4.87-.09-.43.16-.91.22-1.38.09-.75.21-1.5.21-2.25,0-2.38-.32-4.76,1-7,.39-.66.25-1.67.23-2.52-.1-3.93-.36-7.86-.31-11.78.03-2.09.32-4.25.96-6.22.51-1.57.48-2.78-.52-4-.6-.73-.65-1.49-.53-2.41.34-2.75.73-5.5.56-8.31-.09-1.62,0-3.27.2-4.88.34-2.65.22-5.37,1.38-7.9.3-.65.41-1.55.23-2.23-.56-2.14.13-4.19.29-6.27.04-.53.41-1.03.63-1.54.62.09,1.11.16,1.88.27-.44-1.33-.55-2.59-1.2-3.43-.78-1.02-.9-2.03-.97-3.19-.09-1.51.51-2.75,1.41-3.83-1.26-1.65-1.32-3.5-1.7-5.24-.34-1.53.15-3.03.49-4.53.36-1.58.86-3.25.66-4.79-.34-2.6-.26-5.16-.23-7.75.02-1.05-.03-2.12-.24-3.14-.73-3.49-.1-6.89.64-10.25.34-1.51.62-2.97.65-4.52.08-4.4-.23-8.82.52-13.2.05-.28.07-.59,0-.86-.53-1.87-.2-3.85-.59-5.69-.76-3.59-.18-7.07.38-10.56.29-1.83.32-3.6.12-5.43-.17-1.61-.22-3.25-.08-4.86.12-1.46.16-2.86-.37-4.25-.48-1.28-.58-2.61-.52-3.97.05-1.25,0-2.5.09-3.74.15-2.29.2-4.62.62-6.87.28-1.52.45-3.02.45-4.56,0-1.44.08-2.84.69-4.21.32-.73.2-1.68.19-2.53-.03-2.01-.4-4.06-.13-6.03.73-5.29-.63-10.53-.2-15.79.02-.28-.06-.57-.11-.85-.47-2.56-.6-5.14-.55-7.74.05-2.31-.19-4.6-.76-6.84-.61-2.43-1-4.89-.95-7.4.03-1.46-.25-2.85-.7-4.24-.38-1.18-.8-2.39-.89-3.61-.14-1.86-.68-3.57-1.33-5.28-.51-1.34-1.11-2.66-1.52-4.04-.87-2.94-1.9-5.81-3.43-8.48-1.14-2-2.18-4.05-3.28-6.07-.32-.59-.65-1.18-1.07-1.69-1.57-1.86-2.6-4.01-3.51-6.24-.29-.71-.49-1.58-1.03-2.02-1.49-1.22-2.18-2.85-2.83-4.55-.2-.53-.62-.97-.89-1.48-.64-1.17-1.23-2.38-1.88-3.54-.46-.82-.94-1.66-1.53-2.39-.9-1.12-1.91-2.14-2.84-3.23-.68-.79-1.38-1.35-2.47-.71-.55.33-1.12.22-1.64-.09-.98-.6-1.97-1.19-2.9-1.85-1.09-.78-2.05-1.78-3.22-2.41-2.16-1.16-3.95-2.79-5.46-4.62-1.35-1.62-3.01-2.28-4.93-2.59-.66-.11-1.35-.07-2-.22-.64-.15-1.4-.28-1.84-.7-1.34-1.28-3.03-1.58-4.72-1.94-2.35-.49-4.73-.85-7.04-1.49-2.25-.62-4.5-.9-6.82-.95-1.14-.03-2.31-.18-3.39-.53-1.59-.51-3.17-.66-4.82-.62-2.78.07-5.56.08-8.33-.34-1.31-.2-2.7-.2-4.02-.03-3.13.42-6.26.92-9.35,1.56-2.16.45-4.27,1.06-6.51.92-.55-.03-1.12.19-1.69.28-1.03.17-2.06.37-3.1.5-1.05.13-2.15,0-3.14.3-2.85.84-5.72,1.52-8.63,2.08-2.63.51-5.22,1.31-7.88,1.63-3.41.42-6.49,1.75-9.52,3.14-1.49.68-2.95,1.32-4.53,1.71-.83.2-1.71.4-2.43.83-1.73,1.02-3.44,2.1-5.04,3.3-1.45,1.08-2.75,2.38-4.14,3.55-2.8,2.33-5.35,4.91-7.82,7.57-1.5,1.62-3.03,3.2-4.52,4.83-.91.99-2.07,1.89-2.58,3.06-1.03,2.35-2.71,4.16-4.25,6.12-.53.67-1.12,1.39-1.32,2.18-.46,1.82-1.43,3.35-2.46,4.85-2.08,3.01-3.76,6.22-4.91,9.7-.18.54-.48,1.12-.42,1.65.06.61.45,1.18.77,1.92-1.21.3-1.52,1.13-1.61,2.18-.05.65-.27,1.31-.51,1.92-.11.29-.47.48-.78.77-.72-1,0-1.83-.11-2.65-.09-.73-.41-1.27-1.13-1.51-.62-.21-1.12,0-1.53.48-1.54,1.85-2.98,3.74-3.45,6.19-.25,1.33-.84,2.53-1.63,3.65-1.56,2.23-2.57,4.66-2.98,7.4-.29,1.88-.99,3.69-1.49,5.54-.25.92-.52,1.84-.65,2.78-.27,1.96-1.1,3.87-.49,5.91.08.25-.04.57-.1.85-.33,1.49-.69,2.97-1.01,4.46-.25,1.14-.32,2.28.08,3.41.4,1.12.46,2.29.14,3.4-.5,1.74-.53,3.62-1.59,5.2-.31.46-.42,1.07-.51,1.63-.24,1.51-.42,3.04-.62,4.56-.21,1.52-.27,3.07-.67,4.54-.36,1.32-.57,2.61-.57,3.96,0,1.05.05,2.13-.11,3.16-.43,2.77-.56,5.53-.15,8.31.1.7.05,1.36-.43,1.89-1.1,1.21-1.08,2.59-.73,4.05.15.65.21,1.33.33,1.99.33,1.82.12,3.63-.01,5.45-.14,1.88.08,3.71.9,5.68.6-.94,1.05-1.66,1.54-2.44-.53-1.48-.55-2.89.14-4.41.53-1.18.66-2.59.4-3.96-.12-.66-.13-1.34-.14-2.01-.03-1.26-.03-2.49,1.09-3.42.33-.27.49-.82.59-1.27.92-4.2,1.82-8.41,2.72-12.6-.31-.39-.53-.69-.78-.97-.33-.38-.57-.8-.32-1.3.33-.64.89-.58,1.49-.46.24.05.51-.09.75-.15.18-.95.31-1.8-.59-2.37-.69.09-1.35.25-2,.26-1.23,0-1.76-.6-1.64-1.8.34-3.45,1.22-6.79,2.2-10.09,1.69-5.69,3.59-11.32,5.41-16.98,1.23-3.83,2.61-7.62,3.67-11.49,1.14-4.16,3.25-7.96,4.3-12.15.15-.62.65-1.17,1.03-1.72,1.48-2.13,2.69-4.4,3.72-6.8.83-1.92,1.59-3.88,2.84-5.62,1.39-1.94,2.57-4.04,3.81-6.09.54-.89,1.07-1.76.96-2.94-.05-.58.35-1.27.71-1.8,1.75-2.51,3.55-4.99,5.35-7.47.22-.31.46-.62.75-.87,2.78-2.4,4.41-5.77,7.02-8.33.83-.81,1.5-1.72,2.67-2.05,1.19-.33,2.01-1.09,2.49-2.21.58-1.38,1.68-2.3,2.78-3.24,2.7-2.33,5.9-3.91,8.77-5.99.76-.55,1.6-.73,2.42-.21.95.6,1.83.48,2.69-.09.48-.31.87-.77,1.36-1.06,1.72-1.03,3.41-2.14,5.52-2.32.43.39.83.77,1.34,1.24,1.79-.65,3.57-1.35,5.39-1.95,1.08-.36,2.21-.62,3.34-.8,1.98-.32,3.98-.56,5.97-.83,1.04-.14,2.09-.37,3.13-.37,1.37,0,2.64-.3,3.93-.7,1.27-.39,2.63-.83,3.91-.75,2.8.18,5.56-.19,8.31-.47,2.4-.24,4.8-.35,7.18-.15,3.32.28,6.63.77,9.95,1.15.93.11,1.54.53,2.08,1.32.68,1.01,1.14,1.02,2.01.03.65-.74,1.35-1,2.25-1,.98,0,1.95.05,2.73.7,1.22,1.02,2.58.96,4.07.88,2.09-.12,4.2.04,6.3.12.36.01.74.19,1.07.38,2.39,1.35,4.99,1.92,7.71,2.07,1.5.08,2.71.79,3.8,1.9-.29.63-.55,1.2-.9,1.96.73.1,1.27.27,1.8.22.56-.05,1.1-.41,1.66-.43.74-.03,1.54.01,2.22.26,1.53.56,3.01,1.22,4.48,1.92.68.32,1.33.76,1.91,1.24,2.14,1.77,4.18,3.67,6.39,5.34,1.28.97,1.89,2.05,1.87,3.63-.03,2.46,1.03,4.44,2.92,5.99.52.43,1.08.81,1.54,1.29.45.48.97,1,1.16,1.6.45,1.45,1.34,2.51,2.41,3.51,1.05.98,2.04,1.99,2.49,3.46.17.55.81,1.09,1.37,1.34,1.44.66,2.25,1.88,2.73,3.21.57,1.57,1.32,2.93,2.51,4.12.5.5.69,1.35.91,2.07.34,1.1.47,2.27.89,3.33,1.55,3.86,2.43,7.82,2.1,12.01-.03.37-.02.8.14,1.12.78,1.52.65,3.18.77,4.8.2,2.77.35,5.55.43,8.33.05,1.72-.08,3.44-.1,5.17-.03,2.19-.08,4.38-.03,6.57.05,2.11.24,4.21.3,6.31.05,1.92.02,3.84,0,5.76-.01,1.19.1,2.29,1.18,3.07.85.61,1.08,1.54,1.11,2.54.1,4.02.22,8.05.31,12.07,0,.46-.06.98-.25,1.39-.88,1.87-.91,3.9-1.26,5.88-.5,2.79.13,5.77-1.41,8.39-.05.08-.04.19-.05.28-.23,2.67-.46,5.35-.66,8.02-.04.47.09.95.12,1.43.11,1.62.26,3.24.32,4.87.09,2.4-.12,4.83.23,7.18.31,2.09.52,4.15.63,6.25.28,5.08.39,10.15,0,15.23-.11,1.43-.06,2.87-.02,4.3.01.46.08,1,.33,1.37.97,1.41.99,2.85.39,4.38-.14.35-.18.75-.21,1.13-.27,3.73-.51,7.46-.8,11.19-.25,3.15-.55,6.3-.86,9.45-.16,1.62-.35,3.13.61,4.7.83,1.37,1.01,3.09.87,4.75-.06.66-.07,1.44-.42,1.94-1.55,2.21-1.46,4.69-1.46,7.2,0,8.05.04,16.1-.06,24.15-.07,5.17-.37,10.34-.59,15.51-.02.57-.17,1.14-.33,1.69-.68,2.28-1.4,4.56-2.19,7.14-.21.13-.72.39-1.19.71-.81.56-1.46,1.27-1.72,2.24-.68,2.54-.91,5.12-.17,7.67,1.17,4.08,1.88,8.26,2.14,12.45.32,5.15.96,10.31.46,15.5-.05.56.18,1.14.19,1.71.03,2.87.04,5.75.03,8.62,0,.36-.17.74-.32,1.08-.06.15-.31.34-.43.31-.25-.06-.64-.22-.66-.38-.15-1.04-.2-2.09-.3-3.14-.17-1.8-.09-3.65-1.71-5-.38-.32-.43-1.04-.63-1.57-.19-.52-.36-1.03-.58-1.64-.98.53-1.02,1.31-1.01,2.04,0,4.6-.11,9.21.79,13.76.18.93.5,1.84.87,2.71.1.23.68.43.96.35.28-.08.65-.54.63-.81-.06-.75-.33-1.48-.47-2.22-.06-.32-.01-.67-.01-1.5.64.7,1,.99,1.24,1.36,1.54,2.39,1.21,5.17,1.56,7.8.11.8-.64,1.55-1.45,1.46-1.8-.19-3.65-.34-5.36-.88-1.99-.63-3.85-1.64-5.76-2.52-.74-.34-1.46-.59-2.13.06-.9.88-1.71.59-2.55-.07-.67-.53-1.27-1.29-2.03-1.53-2.37-.77-4.79-1.37-7.2-2-1.67-.44-3.34-.85-5.02-1.22-.74-.16-1.56-.37-2.25-.19-2.4.61-4.76.35-7.15.04-.57-.08-1.15-.18-1.72-.13-3.82.29-7.64.62-11.45.92-.36.03-.81.03-.68-.72,1.99-.46,4-1.06,6.14-.96,1.05.05,2.11.02,3.16-.06.39-.03.97.01,1.02-.8-3.66-.26-7.29-.36-10.84.65-1,.28-2.17.63-2.82,1.34-1.42,1.57-3.25,1.9-5.11,2.37-3.91.99-7.8,2-11.7,3.03-.55.15-1.07.42-1.59.65-1.4.64-2.78,1.29-4.18,1.93-2.87,1.32-5.75,2.64-8.63,3.94-2.12.96-4.32,1.59-6.67,1.57-2.3-.02-4.61.07-6.9-.04-1.52-.08-3.04-.39-4.54-.67-1.79-.33-3.56-.74-5.35-1.11-3.19-.66-6.39-1.3-9.57-1.99-1.21-.26-2.42-.56-3.59-.98-2.51-.9-5.2-1.28-7.49-2.84-.82-.56-1.97-.63-2.98-.88-.71-.18-1.55.05-2.12-.76.22-.18.41-.47.64-.5,1.42-.23,2.84-.43,4.27-.6,2-.24,4.01-.41,6-.7,1.02-.15,2.06-.38,2.78-1.35-.23-.3-.38-.67-.57-.7-1.98-.29-3.93-.81-5.97-.45-2.36.42-4.73.77-7.14.66-3.26-.15-6.52-.24-9.78-.43-.75-.04-1.49-.32-2.21-.56-.64-.21-1.23-.54-1.86-.77-2.81-1.01-5.58-1.37-8.27.45-.6.41-1.41.62-2.15.69-3.45.33-6.82,1.01-10.19,1.82-3.2.76-6.23,1.9-9.15,3.38-1.11.56-2.17,1.2-2.88,2.35.31.67.6,1.31.93,2.01-.7.35-1.19.7-1.73.85-2.37.65-4.35,1.97-6.24,3.47-.45.36-.97.63-1.44.95-3.74,2.6-8.15,3.79-12.2,5.72-1.22.58-1.98-.17-1.73-1.6.35-1.98.69-3.96,1.08-5.94.25-1.25.32-2.47-.08-3.7-.36-1.13-.35-2.26-.11-3.41.46-2.25.89-4.51,1.33-6.76.11-.56.2-1.13.27-1.7.28-2.47.54-4.94.81-7.42.06-.57.23-1.17.12-1.7-.38-1.74-.09-3.44.12-5.15.19-1.53.42-3.06-.74-4.38-.17-.2-.23-.53-.25-.81-.17-2.47-1-4.92-.07-7.41.16-.44.14-.95.19-1.42.51-4.09,1-8.18,1.53-12.26.16-1.23.43-2.45.58-3.68.1-.85.14-1.72.12-2.57-.05-2.2-.07-4.34.86-6.47.64-1.46.78-3.15,1.06-4.75.08-.44-.03-.97-.23-1.37-.45-.89-.34-1.65.26-2.4.6-.74.77-1.51.26-2.39-.51-.87-.31-1.6.39-2.33.27-.28.45-.91.33-1.27-.27-.83-.12-1.45.37-2.14.75-1.04,1.29-2.33.78-3.51-.6-1.36-.38-2.61-.22-3.93.23-1.9.54-3.81.58-5.72.15-6.14.15-12.27.65-18.4.15-1.82.1-3.62.75-5.37.22-.6.16-1.31.21-1.98.05-.66.03-1.34.13-1.99.3-1.89.67-3.77.97-5.66.1-.63.4-1.38-.43-1.77-.55-.26-1.15.38-1.39,1.47-.1.47-.1.96-.21,1.42-.07.31-.27.59-.5,1.09-.28-.49-.51-.72-.54-.96-.23-1.9-.47-3.81-.63-5.72-.14-1.63-.22-3.25.63-4.77.5-.89.33-1.81-.04-2.77-.34-.87-.56-1.84-.6-2.77-.09-2.11-.32-4.27.02-6.32.47-2.91.15-5.48-1.72-7.8-.08-.09.04-.35.07-.53.59-.2,1.19-.4,1.64-.55-.02-1.92-.1-3.62-.03-5.32.06-1.49.55-2.81,2.31-3.3-.75-1.25-.65-2.31.25-3.3.24-.27.44-.65.5-1.01.39-2.34.83-4.68,1.06-7.03.12-1.18.31-2.27.88-3.29.33-.59.7-1.16.95-1.78.51-1.27.39-2.44-.73-3.38-.8-.67-1.57-1.36-2.35-2.04-.58.39-1.02.76-1.52.99-.5.23-1.07.33-1.76.52-.39,1.4-.95,2.75-1.11,4.15-.12,1.08-.3,2.02-.88,2.96-.77,1.25-1.23,2.62-.44,4.08.35.65.22,1.26-.08,1.92-.39.87-.59,1.82-1,2.68-.92,1.93-.63,3.94-.52,5.94.03.46.3.93.93.82.96-.65,0-2.18,1.26-2.67,1.24,1.82,1.2,2.19-.54,5.12-.49-.14-1.01-.29-1.49-.43-.86,1.06-.66,2.27-.76,3.39-.41,4.87-.74,9.75-1.09,14.62-.04.57-.07,1.15-.02,1.73.12,1.34.28,2.64-.29,3.96-.3.68-.04,1.45.76,1.99.4-.67.63-1.34,1.08-1.78.94-.92.94-1.9.86-3.14-.2-2.77-.2-5.56-.11-8.33.03-1.12.45-2.25.79-3.34.13-.41.41-.9,1.19-.77.42,1.85.35,3.77,0,5.62-.56,3.07.16,6.1.02,9.16-.06,1.32.02,2.65-.18,3.99-.27,1.89-.59,3.81-.54,5.71.07,2.77.47,5.54.71,8.3.04.48.06.97,0,1.43-.49,3.21-.69,6.42-.66,9.67.03,2.87-.19,5.75-.35,8.62-.11,2.01-.31,4.01-.44,6.02-.18,2.68-1.41,5.16-1.5,7.87-.07,2-.46,4-.67,6-.39,3.81-.95,7.6-.95,11.46,0,2.87-.13,5.78-.64,8.59-.74,4.02.09,8.05-.48,12.04.61,2.94.15,5.9.16,8.85.01,4.7-.17,9.39-.63,14.07-.06.57-.09,1.16-.29,1.68-.1.26-.53.45-.85.54-.1.03-.47-.38-.47-.58,0-.76.13-1.52.16-2.28.1-2.39.21-4.78.25-7.17.01-.77-.45-1.22-.97-1.19-.69.04-.97.53-1.16,1.1-.06.18-.09.37-.11.56-.25,3.25-.59,6.49-.71,9.75-.1,2.97.04,5.95.07,8.92.02,1.82-.2,3.68.09,5.46.42,2.6.28,5.14-.11,7.71-.03.19-.02.38-.05.57-.25,1.54-.16,3,.48,4.49.76,1.79.94,3.7.63,5.65-.35,2.24-.26,4.55-1.15,6.86.55.09.92.24,1.26.19.81-.11,1.52,0,2.14.56.92.81,1.93.66,2.98.3,1.82-.61,3.63-1.26,5.46-1.79.81-.24,1.71-.4,2.54-.32,1.11.1,2.07-.05,3-.66.54-.35,1.18-.72,1.99.02-.25.34-.44.77-.77,1.03-.97.78-2.01,1.47-2.99,2.23-.27.21-.59.56.03,1.02.6-.34,1.27-.69,1.91-1.09,1.38-.85,2.7-1.83,4.15-2.55,1.19-.59,2.4-1.17,3.59-1.74,2.05-.98,4.22-1.73,6.17-2.96.15-.1.38-.07.56-.13,3.9-1.33,7.83-2.56,11.25-4.99.77-.54,1.73-.81,2.61-1.2,1.83-.83,3.66-1.65,5.49-2.48.09-.04.16-.1.24-.16.53-.35.58-.9.09-1.44-.19-.2-.48-.31-.72-.46l.06.05Zm-17.69-186.65c.34,1.68.56,3.39,1.04,5.03.62,2.12,1.25,4.22,1.46,6.43.09.95.34,1.89.52,2.83.23,1.16.73,2.17,1.6,2.99.7.65,1.35,1.38,2.11,1.95,1.46,1.11,3.04,1.9,4.94,2.12,1.75.2,3.43-.08,5.14-.21,2.13-.17,4.17-.57,6.05-1.64.49-.28,1.04-.51,1.6-.63,3.01-.65,5.86-1.81,8.7-2.95,2.89-1.16,5.44-2.89,7.22-5.5,2.23-3.27,3.71-6.74,2.07-10.78-.11-.26-.16-.55-.23-.83-.72-3.2-2.58-5.71-4.78-8.04-1.93-2.04-4.14-3.69-6.46-5.23-1.44-.95-2.81-2.06-4.37-2.75-2.66-1.19-5.39-1.64-8.34-.53-3.39,1.28-6.77,2.67-10.37,3.35-.64.12-1.38.37-1.8.82-1.36,1.47-2.93,2.9-3.78,4.65-1.33,2.74-2.2,5.72-2.31,8.91Zm137.67,6.06c-.13.43-.34.73-.27.94.43,1.34,2.3,2.94,3.59,2.9,1.21-.04,2.3-.16,2.97,1.16.14.27.63.45.98.5,3.06.38,6.13.55,9.17-.12,3-.66,5.99-1.34,8.96-2.1.9-.23,1.83-.63,2.58-1.19,2.64-1.98,4.95-4.28,6-7.53.68-2.09,1.46-4.18,1.83-6.34.38-2.26.5-4.67-.81-6.72-1.49-2.34-3.1-4.61-4.83-6.78-1.84-2.32-4.36-3.67-7.2-4.51-2.19-.65-4.34-.28-6.54-.2-2.94.1-5.41,1.08-7.73,2.72-2.21,1.56-4.12,3.41-5.56,5.74-.7,1.13-1.55,2.18-2.46,3.16-.87.93-1.54,1.95-1.99,3.13-1.13,2.97-.93,6.03-.51,9.08.09.62.53,1.23.92,1.77,1.05,1.47,1.9,3.1,3.31,4.3.28.24.38.67-.16,1.11-.67-.3-1.41-.64-2.24-1.02Zm28.07,50.88c-1.33-.4-1.56-.4-2.12-.03-1.29.84-1.51,2.09-1.49,3.51.04,3.06.08,6.13-.02,9.19-.14,4.31-.37,8.61-.61,12.92-.07,1.34-.26,2.67-.43,4-.16,1.24-.4,2.46-.53,3.7-.53,4.87-.81,9.75-.83,14.64,0,.96.05,1.95-.17,2.86-1.36,5.58-2.36,11.24-4.97,16.47-1.2,2.41-2.8,4.35-4.92,5.88-1.88,1.36-4.14,1.44-6.01.39-2.05-1.15-3.97-2.74-4.71-5.21-.39-1.3-.93-2.49-1.8-3.57-.85-1.06-1.26-2.32-1.57-3.66-.61-2.61-1.28-5.22-2.15-7.75-.92-2.67-1.39-5.35-1.43-8.17-.04-2.49-.31-4.97-.51-7.45-.28-3.44-.62-6.87-.87-10.31-.06-.85.08-1.72.15-2.58.07-.86.2-1.72.24-2.58.21-4.59-.03-9.18.52-13.77.34-2.86.54-5.72,1.22-8.52.09-.37.22-.74.28-1.12.16-1.08-.3-1.95-1.07-2.08-.78-.13-1.54.4-1.87,1.44-.25.82-.39,1.68-.51,2.53-.22,1.52-.4,3.04-.6,4.56-.65,5.14-1.05,10.3-.85,15.5.06,1.72-.02,3.46-.23,5.16-.23,1.83-.1,3.62.1,5.44.36,3.33.55,6.69.79,10.03.21,2.87.28,5.75.62,8.6.25,2.08.85,4.13,1.31,6.18.08.37.22.75.44,1.05,1.01,1.38,1.11,3.03,1.46,4.62.18.83.34,1.7.71,2.45,1.15,2.32,2.31,4.63,3.63,6.85,2.01,3.39,4.72,5.79,9.02,5.51.67-.04,1.35.05,2.01-.03,1.64-.2,3.28-.6,4.38-1.92,2.14-2.57,4.36-5.06,5.74-8.21,1.12-2.56,1.99-5.2,2.81-7.84,1.16-3.75,1.92-7.58,1.92-11.58,0-3.54.34-7.09.74-10.61.23-1.99.84-3.91.47-5.96-.11-.62.17-1.32.26-1.98.11-.76.26-1.51.3-2.28.27-5.36.54-10.72.77-16.08.06-1.34.09-2.7-.11-4.02-.27-1.85-.26-3.62.47-5.37.1-.24.01-.55.01-.83Zm-162.11,44.59c0,1.57.23,3.99-.05,6.35-.46,3.79.21,7.44.83,11.11.77,4.59,3.12,8.44,6.07,11.9,3.02,3.54,8.68,3.97,12.39.58,1.9-1.74,3.51-3.8,5.21-5.75,1.48-1.69,2.38-3.67,2.92-5.86.5-2.04,1.08-4.09,1.88-6.03.67-1.62,1.23-3.2,1.24-4.97,0-.66.14-1.35.36-1.97,1.2-3.35,1.99-6.78,2.56-10.3.53-3.31,1.01-6.56.97-9.97-.08-7.21,1.13-14.31,2.83-21.31.15-.63.18-1.33.08-1.97-.15-.92-1.42-1.25-2.04-.53-.36.42-.66.96-.79,1.49-.34,1.4-.58,2.82-.83,4.23-.43,2.45-.86,4.91-1.23,7.37-.27,1.8-.58,3.6-.64,5.41-.17,5.46.04,10.94-1.21,16.31-.06.28-.04.57-.07.86-.27,2.39-.87,4.7-1.79,6.93-.36.89-.73,1.78-.99,2.7-.84,3.05-1.72,6.09-2.4,9.18-1.17,5.36-4.4,9.3-8.48,12.65-2.6,2.13-6.72,1.17-8.45-1.74-.83-1.4-1.78-2.73-2.57-4.15-.55-.99-1.03-2.05-1.37-3.14-1.55-4.92-1.91-9.97-1.37-15.08.53-5.08.34-10.15-.1-15.22-.22-2.58-.56-5.16-.59-7.74-.06-4.9.44-9.75,1.4-14.56.26-1.3.28-2.66.27-3.99,0-.35-.48-.85-.86-1-.56-.23-1.16.04-1.48.59-.23.4-.35.88-.46,1.34-.8,3.46-1.54,6.94-1.72,10.48-.17,3.25-.3,6.54.01,9.77.48,5.07.87,10.12.47,16.03Zm73.79-128.23s.09,0,.14,0c-.03-.66-.02-1.34-.12-1.99-.03-.23-.34-.56-.54-.58-.34-.03-.78.06-1.04.27-.27.22-.41.62-.56.96-.33.79-.49,1.68-.98,2.35-.69.96-.74,1.89-.56,2.98.41,2.46.71,4.93,1.11,7.39.38,2.28.9,4.55,2.11,6.53,1.22,2,1.94,4.13,2.62,6.34,1.17,3.79,3.81,5.73,7.36,5.74,1.71,0,3.48-.16,5.12-.59,2.34-.62,4.51-1.67,5.68-4.03,1.33-2.68,2.36-5.47,2.7-8.45.31-2.76.38-5.54.59-8.31.13-1.81.33-3.62.48-5.43.15-1.81.29-3.62.37-5.44.03-.59-.28-1.14-.88-1.37-.7-.26-1.38-.06-1.83.48-.34.42-.61.98-.71,1.51-.2,1.13-.37,2.28-.38,3.42-.03,4.53-.73,8.95-1.86,13.34-1.1,4.28-3.45,7.62-7.05,10.13-1.36.95-2.03.92-3.41.05-.76-.48-1.28-1.12-1.61-1.95-.32-.8-.59-1.68-1.14-2.3-1.64-1.85-2.2-4.24-3.38-6.32-.28-.48-.37-1.08-.48-1.64-.31-1.6-.64-3.2-.85-4.81-.36-2.75-.62-5.52-.93-8.27Zm51.79-30.51c-.04-4.62-4.97-7.99-9.97-6.07-1.45.56-2.71,1.37-3.85,2.44-1.66,1.55-2.62,3.55-3.56,5.52-.69,1.45-.47,3.01.73,4.26.66.69,1.37,1.34,2.03,2.04.83.89,1.87,1.32,3.04,1.47,2.04.27,4.09,0,5.93-.73,1.45-.58,2.97-1.58,3.86-2.83,1.08-1.51,1.85-3.36,1.8-6.11Zm-73.47,10.05c.59-.04,1.45-.03,2.3-.15,3.7-.54,6.15-3.05,6.8-6.73.21-1.18-.03-2.28-.18-3.41-.4-2.88-2.3-4.55-4.74-5.68-1.64-.76-3.33-.65-4.98.22-1.37.73-2.5,1.74-3.62,2.79-2.61,2.46-2.92,5.51-2.16,8.73.63,2.67,2.4,3.95,5.16,4.16.38.03.76.04,1.42.08Zm-63.17-4.62c-.43.29-.8.4-.86.59-.79,2.75-1.26,5.55-.99,8.42.02.21.32.52.52.55.19.03.56-.22.61-.41.42-1.56.87-3.11,1.14-4.7.23-1.38.43-2.81-.43-4.45ZM6.9,223.4q.7-1.52.08-2.73c-.56.94-.34,1.83-.08,2.73Zm-.22,3.42c.21.28.4.54.6.8.09-.13.27-.28.25-.39-.05-.25-.2-.48-.31-.72-.13.08-.27.15-.54.31Zm111.09,130.46c-.06-.06-.14-.17-.16-.16-.3.13-.59.28-.88.44-.02,0,.06.21.06.21.3-.08.61-.15.91-.26.05-.02.05-.15.08-.23Zm104.57-111.1c-.15.08-.39.13-.43.25-.04.13.09.32.15.49.21-.11.41-.23.62-.34-.11-.13-.23-.27-.34-.4Zm-1.46,20.01c-.11.13-.29.24-.32.39-.02.11.15.26.23.39.11-.13.29-.24.31-.38.02-.11-.15-.26-.23-.39Zm1.33-8.7c-.07-.16-.14-.32-.21-.48-.13.09-.35.17-.37.28-.02.15.11.32.17.49.14-.1.27-.19.41-.29ZM78.44,15.9c.1.11.19.24.3.33.03.02.21-.07.21-.11,0-.14-.05-.27-.08-.41-.14.06-.29.12-.43.18Zm90.45,332.88c-.13.09-.26.18-.39.26.05.07.14.2.15.19.14-.07.26-.16.39-.25-.05-.07-.11-.13-.16-.2ZM136.23,7.83c.02.09.05.24.08.25.16,0,.32-.02.48-.04-.02-.09-.04-.25-.07-.25-.16,0-.32.02-.48.04Z"/>
  <path class="cls-2" d="m51.07,346.2c.24.15.54.26.72.46.5.55.44,1.09-.09,1.44-.08.05-.16.12-.24.16-1.83.83-3.66,1.66-5.49,2.48-.87.39-1.84.66-2.61,1.2-3.42,2.43-7.35,3.66-11.25,4.99-.18.06-.4.04-.56.13-1.94,1.23-4.11,1.98-6.17,2.96-1.19.57-2.4,1.15-3.59,1.74-1.45.72-2.77,1.7-4.15,2.55-.64.39-1.31.75-1.91,1.09-.62-.46-.3-.81-.03-1.02.98-.77,2.02-1.46,2.99-2.23.33-.26.52-.69.77-1.03-.81-.74-1.45-.38-1.99-.02-.94.62-1.89.77-3,.66-.83-.08-1.72.08-2.54.32-1.84.54-3.65,1.18-5.46,1.79-1.05.35-2.06.51-2.98-.3-.63-.56-1.34-.67-2.14-.56-.34.05-.7-.1-1.26-.19.89-2.32.8-4.62,1.15-6.86.31-1.95.13-3.86-.63-5.65-.64-1.49-.73-2.95-.48-4.49.03-.19.02-.38.05-.57.39-2.56.53-5.1.11-7.71-.29-1.78-.07-3.63-.09-5.46-.03-2.97-.18-5.95-.07-8.92.12-3.25.46-6.5.71-9.75.01-.19.05-.38.11-.56.19-.57.48-1.06,1.16-1.1.52-.03.98.42.97,1.19-.04,2.39-.15,4.78-.25,7.17-.03.76-.16,1.52-.16,2.28,0,.21.36.61.47.58.32-.09.75-.28.85-.54.2-.52.23-1.12.29-1.68.46-4.68.65-9.37.63-14.07,0-2.95.45-5.91-.16-8.85.58-3.99-.25-8.02.48-12.04.51-2.81.65-5.72.64-8.59,0-3.86.56-7.65.95-11.46.21-2,.6-3.99.67-6,.09-2.72,1.32-5.19,1.5-7.87.13-2.01.33-4.01.44-6.02.16-2.87.38-5.75.35-8.62-.03-3.25.16-6.47.66-9.67.07-.47.05-.96,0-1.43-.24-2.77-.63-5.53-.71-8.3-.05-1.9.27-3.82.54-5.71.19-1.34.12-2.67.18-3.99.14-3.06-.58-6.09-.02-9.16.34-1.85.42-3.78,0-5.62-.78-.13-1.06.36-1.19.77-.34,1.09-.75,2.22-.79,3.34-.08,2.78-.09,5.56.11,8.33.09,1.24.08,2.23-.86,3.14-.45.44-.68,1.11-1.08,1.78-.81-.54-1.06-1.32-.76-1.99.58-1.32.41-2.62.29-3.96-.05-.57-.02-1.15.02-1.73.35-4.88.68-9.75,1.09-14.62.09-1.11-.1-2.33.76-3.39.49.14,1,.29,1.49.43,1.75-2.92,1.79-3.29.54-5.12-1.25.5-.3,2.03-1.26,2.67-.63.11-.91-.36-.93-.82-.11-2-.4-4.01.52-5.94.41-.86.61-1.81,1-2.68.29-.66.43-1.27.08-1.92-.79-1.46-.33-2.83.44-4.08.58-.94.75-1.88.88-2.96.16-1.4.71-2.74,1.11-4.15.69-.2,1.26-.29,1.76-.52.5-.23.94-.6,1.52-.99.78.68,1.56,1.38,2.35,2.04,1.13.94,1.24,2.11.73,3.38-.25.62-.62,1.19-.95,1.78-.58,1.02-.77,2.12-.88,3.29-.23,2.36-.67,4.69-1.06,7.03-.06.36-.25.74-.5,1.01-.89.99-1,2.04-.25,3.3-1.77.48-2.25,1.81-2.31,3.3-.07,1.7.01,3.4.03,5.32-.45.15-1.05.36-1.64.55-.03.18-.15.44-.07.53,1.88,2.32,2.2,4.89,1.72,7.8-.33,2.06-.11,4.21-.02,6.32.04.93.26,1.9.6,2.77.37.96.55,1.88.04,2.77-.86,1.52-.77,3.15-.63,4.77.16,1.91.4,3.81.63,5.72.03.25.25.47.54.96.24-.5.43-.78.5-1.09.11-.46.11-.95.21-1.42.24-1.09.84-1.73,1.39-1.47.83.4.53,1.14.43,1.77-.3,1.89-.67,3.77-.97,5.66-.1.65-.08,1.33-.13,1.99-.05.66.01,1.38-.21,1.98-.65,1.75-.6,3.56-.75,5.37-.5,6.13-.5,12.27-.65,18.4-.05,1.91-.35,3.81-.58,5.72-.16,1.33-.38,2.57.22,3.93.52,1.18-.03,2.47-.78,3.51-.5.69-.64,1.31-.37,2.14.12.36-.06.98-.33,1.27-.7.73-.9,1.46-.39,2.33.51.88.33,1.65-.26,2.39-.6.75-.71,1.51-.26,2.4.2.4.31.94.23,1.37-.28,1.6-.42,3.29-1.06,4.75-.93,2.13-.91,4.27-.86,6.47.02.86-.01,1.72-.12,2.57-.15,1.23-.42,2.45-.58,3.68-.52,4.08-1.02,8.17-1.53,12.26-.06.48-.03.98-.19,1.42-.93,2.48-.1,4.94.07,7.41.02.28.08.62.25.81,1.16,1.31.93,2.85.74,4.38-.21,1.71-.49,3.41-.12,5.15.12.53-.06,1.14-.12,1.7-.26,2.47-.53,4.95-.81,7.42-.06.57-.16,1.14-.27,1.7-.43,2.26-.86,4.51-1.33,6.76-.24,1.15-.25,2.28.11,3.41.39,1.22.32,2.45.08,3.7-.39,1.97-.73,3.95-1.08,5.94-.25,1.43.51,2.18,1.73,1.6,4.06-1.93,8.46-3.12,12.2-5.72.47-.33.99-.6,1.44-.95,1.89-1.5,3.87-2.82,6.24-3.47.54-.15,1.03-.5,1.73-.85-.32-.7-.62-1.33-.93-2.01.71-1.15,1.77-1.79,2.88-2.35,2.92-1.47,5.95-2.61,9.15-3.38,3.37-.8,6.74-1.49,10.19-1.82.74-.07,1.55-.29,2.15-.69,2.69-1.81,5.45-1.46,8.27-.45.63.23,1.23.56,1.86.77.72.24,1.46.51,2.21.56,3.26.19,6.52.28,9.78.43,2.41.11,4.78-.25,7.14-.66,2.04-.36,3.99.16,5.97.45.19.03.33.4.57.7-.71.97-1.76,1.2-2.78,1.35-1.99.29-4,.46-6,.7-1.43.17-2.85.37-4.27.6-.23.04-.42.32-.64.5.57.81,1.41.59,2.12.76,1.01.25,2.17.33,2.98.88,2.29,1.56,4.98,1.94,7.49,2.84,1.16.42,2.38.72,3.59.98,3.18.69,6.38,1.33,9.57,1.99,1.78.37,3.56.78,5.35,1.11,1.5.28,3.02.59,4.54.67,2.3.11,4.6.02,6.9.04,2.35.02,4.55-.61,6.67-1.57,2.88-1.3,5.75-2.62,8.63-3.94,1.4-.64,2.78-1.29,4.18-1.93.52-.24,1.04-.51,1.59-.65,3.9-1.03,7.79-2.04,11.7-3.03,1.85-.47,3.69-.8,5.11-2.37.65-.72,1.82-1.06,2.82-1.34,3.55-1.01,7.18-.9,10.84-.65-.06.82-.64.78-1.02.8-1.05.08-2.11.1-3.16.06-2.14-.09-4.15.5-6.14.96-.13.75.32.75.68.72,3.82-.3,7.63-.63,11.45-.92.57-.04,1.15.06,1.72.13,2.38.32,4.75.58,7.15-.04.69-.18,1.52.03,2.25.19,1.68.36,3.36.78,5.02,1.22,2.41.63,4.84,1.23,7.2,2,.76.25,1.36,1,2.03,1.53.83.66,1.65.95,2.55.07.66-.65,1.39-.4,2.13-.06,1.91.87,3.77,1.89,5.76,2.52,1.71.54,3.56.69,5.36.88.82.09,1.56-.66,1.45-1.46-.35-2.63-.02-5.41-1.56-7.8-.24-.37-.6-.66-1.24-1.36,0,.83-.05,1.18.01,1.5.14.75.41,1.48.47,2.22.02.26-.35.73-.63.81-.28.08-.86-.12-.96-.35-.37-.87-.69-1.78-.87-2.71-.89-4.55-.78-9.16-.79-13.76,0-.74.03-1.51,1.01-2.04.21.61.39,1.13.58,1.64.2.54.25,1.25.63,1.57,1.62,1.35,1.54,3.2,1.71,5,.1,1.05.15,2.1.3,3.14.02.16.42.33.66.38.12.03.37-.16.43-.31.15-.34.32-.72.32-1.08.01-2.87,0-5.75-.03-8.62,0-.57-.24-1.15-.19-1.71.51-5.19-.13-10.35-.46-15.5-.26-4.19-.97-8.37-2.14-12.45-.73-2.55-.5-5.13.17-7.67.26-.96.91-1.68,1.72-2.24.47-.32.97-.58,1.19-.71.8-2.58,1.51-4.86,2.19-7.14.16-.55.31-1.12.33-1.69.22-5.17.52-10.34.59-15.51.11-8.05.07-16.1.06-24.15,0-2.51-.1-4.99,1.46-7.2.35-.5.37-1.28.42-1.94.14-1.66-.04-3.38-.87-4.75-.96-1.57-.77-3.09-.61-4.7.31-3.15.61-6.29.86-9.45.3-3.73.53-7.46.8-11.19.03-.38.07-.78.21-1.13.6-1.53.58-2.97-.39-4.38-.25-.36-.32-.9-.33-1.37-.03-1.43-.09-2.88.02-4.3.39-5.08.28-10.15,0-15.23-.11-2.11-.32-4.17-.63-6.25-.35-2.35-.14-4.78-.23-7.18-.06-1.62-.2-3.25-.32-4.87-.03-.48-.16-.96-.12-1.43.2-2.68.44-5.35.66-8.02,0-.1,0-.2.05-.28,1.54-2.61.91-5.6,1.41-8.39.36-1.98.39-4.01,1.26-5.88.19-.41.26-.93.25-1.39-.09-4.02-.21-8.05-.31-12.07-.03-1-.26-1.92-1.11-2.54-1.08-.78-1.19-1.89-1.18-3.07.02-1.92.05-3.84,0-5.76-.06-2.11-.25-4.21-.3-6.31-.05-2.19,0-4.38.03-6.57.02-1.72.15-3.45.1-5.17-.08-2.78-.24-5.55-.43-8.33-.11-1.61.01-3.27-.77-4.8-.16-.32-.17-.75-.14-1.12.33-4.18-.55-8.14-2.1-12.01-.42-1.06-.55-2.23-.89-3.33-.22-.72-.41-1.57-.91-2.07-1.19-1.19-1.94-2.54-2.51-4.12-.48-1.33-1.29-2.55-2.73-3.21-.56-.26-1.2-.8-1.37-1.34-.45-1.47-1.44-2.48-2.49-3.46-1.07-1-1.96-2.06-2.41-3.51-.18-.6-.71-1.12-1.16-1.6-.46-.48-1.02-.87-1.54-1.29-1.89-1.55-2.94-3.54-2.92-5.99.02-1.58-.59-2.66-1.87-3.63-2.21-1.67-4.25-3.57-6.39-5.34-.58-.48-1.23-.92-1.91-1.24-1.47-.69-2.96-1.36-4.48-1.92-.69-.25-1.48-.29-2.22-.26-.56.02-1.1.38-1.66.43-.53.05-1.07-.12-1.8-.22.35-.77.61-1.33.9-1.96-1.09-1.11-2.3-1.82-3.8-1.9-2.72-.15-5.31-.72-7.71-2.07-.33-.18-.71-.37-1.07-.38-2.1-.08-4.21-.24-6.3-.12-1.49.08-2.85.14-4.07-.88-.78-.65-1.75-.71-2.73-.7-.9,0-1.61.26-2.25,1-.87,1-1.32.98-2.01-.03-.54-.79-1.15-1.21-2.08-1.32-3.32-.38-6.62-.87-9.95-1.15-2.38-.2-4.77-.09-7.18.15-2.75.28-5.51.64-8.31.47-1.29-.08-2.65.35-3.91.75-1.3.4-2.56.7-3.93.7-1.04,0-2.09.23-3.13.37-1.99.27-3.99.5-5.97.83-1.13.18-2.25.44-3.34.8-1.81.59-3.59,1.29-5.39,1.95-.51-.47-.91-.85-1.34-1.24-2.1.18-3.8,1.28-5.52,2.32-.49.29-.88.74-1.36,1.06-.86.57-1.74.69-2.69.09-.82-.52-1.66-.34-2.42.21-2.86,2.08-6.07,3.66-8.77,5.99-1.1.95-2.2,1.86-2.78,3.24-.48,1.13-1.29,1.88-2.49,2.21-1.17.32-1.84,1.23-2.67,2.05-2.61,2.56-4.24,5.93-7.02,8.33-.29.25-.53.56-.75.87-1.79,2.48-3.6,4.96-5.35,7.47-.36.52-.77,1.22-.71,1.8.11,1.18-.43,2.05-.96,2.94-1.23,2.05-2.41,4.15-3.81,6.09-1.25,1.74-2.01,3.7-2.84,5.62-1.03,2.39-2.24,4.66-3.72,6.8-.38.55-.88,1.1-1.03,1.72-1.05,4.19-3.16,7.99-4.3,12.15-1.06,3.88-2.44,7.66-3.67,11.49-1.82,5.66-3.72,11.29-5.41,16.98-.98,3.3-1.86,6.64-2.2,10.09-.12,1.2.41,1.81,1.64,1.8.66,0,1.31-.16,2-.26.9.57.77,1.41.59,2.37-.24.05-.52.19-.75.15-.6-.11-1.16-.18-1.49.46-.26.5,0,.92.32,1.3.24.29.47.59.78.97-.9,4.19-1.79,8.4-2.72,12.6-.1.45-.26,1-.59,1.27-1.12.93-1.12,2.16-1.09,3.42.02.67.02,1.35.14,2.01.26,1.37.13,2.78-.4,3.96-.69,1.52-.67,2.92-.14,4.41-.49.78-.95,1.5-1.54,2.44-.82-1.98-1.04-3.8-.9-5.68.14-1.82.34-3.63.01-5.45-.12-.66-.17-1.33-.33-1.99-.35-1.47-.37-2.84.73-4.05.48-.53.54-1.19.43-1.89-.41-2.78-.29-5.54.15-8.31.16-1.03.11-2.11.11-3.16,0-1.35.22-2.65.57-3.96.4-1.47.46-3.02.67-4.54.21-1.52.38-3.04.62-4.56.09-.56.2-1.18.51-1.63,1.06-1.58,1.09-3.46,1.59-5.2.32-1.12.26-2.28-.14-3.4-.4-1.13-.33-2.27-.08-3.41.32-1.49.68-2.97,1.01-4.46.06-.28.17-.6.1-.85-.61-2.04.22-3.96.49-5.91.13-.94.4-1.86.65-2.78.5-1.85,1.2-3.66,1.49-5.54.42-2.73,1.42-5.17,2.98-7.4.79-1.12,1.38-2.31,1.63-3.65.47-2.45,1.91-4.34,3.45-6.19.4-.49.9-.69,1.53-.48.72.24,1.04.78,1.13,1.51.11.82-.6,1.65.11,2.65.31-.29.66-.48.78-.77.24-.61.46-1.27.51-1.92.08-1.05.39-1.88,1.61-2.18-.31-.74-.71-1.32-.77-1.92-.05-.53.24-1.11.42-1.65,1.15-3.48,2.83-6.68,4.91-9.7,1.03-1.5,2-3.02,2.46-4.85.2-.79.79-1.52,1.32-2.18,1.54-1.95,3.22-3.77,4.25-6.12.51-1.17,1.67-2.07,2.58-3.06,1.49-1.62,3.02-3.21,4.52-4.83,2.47-2.67,5.02-5.24,7.82-7.57,1.4-1.16,2.69-2.46,4.14-3.55,1.61-1.2,3.32-2.28,5.04-3.3.72-.43,1.6-.63,2.43-.83,1.59-.38,3.04-1.02,4.53-1.71,3.03-1.39,6.11-2.72,9.52-3.14,2.65-.33,5.24-1.13,7.88-1.63,2.91-.56,5.79-1.24,8.63-2.08.99-.29,2.1-.17,3.14-.3,1.04-.13,2.07-.33,3.1-.5.56-.09,1.13-.31,1.69-.28,2.24.14,4.35-.47,6.51-.92,3.09-.65,6.22-1.14,9.35-1.56,1.32-.18,2.71-.18,4.02.03,2.77.43,5.55.41,8.33.34,1.65-.04,3.23.11,4.82.62,1.08.35,2.25.5,3.39.53,2.32.06,4.57.33,6.82.95,2.31.64,4.69,1,7.04,1.49,1.69.35,3.37.65,4.72,1.94.44.42,1.2.55,1.84.7.65.15,1.34.11,2,.22,1.92.32,3.58.97,4.93,2.59,1.52,1.83,3.3,3.45,5.46,4.62,1.17.63,2.12,1.64,3.22,2.41.93.66,1.92,1.25,2.9,1.85.52.31,1.09.42,1.64.09,1.09-.64,1.79-.08,2.47.71.93,1.09,1.95,2.11,2.84,3.23.59.73,1.07,1.57,1.53,2.39.66,1.16,1.24,2.37,1.88,3.54.27.51.69.95.89,1.48.65,1.7,1.34,3.33,2.83,4.55.54.44.74,1.32,1.03,2.02.91,2.23,1.94,4.38,3.51,6.24.43.5.75,1.1,1.07,1.69,1.1,2.02,2.14,4.08,3.28,6.07,1.53,2.68,2.56,5.54,3.43,8.48.41,1.38,1.01,2.69,1.52,4.04.65,1.71,1.19,3.42,1.33,5.28.09,1.22.51,2.43.89,3.61.45,1.39.73,2.78.7,4.24-.06,2.51.34,4.97.95,7.4.57,2.25.81,4.53.76,6.84-.06,2.6.07,5.18.55,7.74.05.28.13.57.11.85-.43,5.27.93,10.5.2,15.79-.27,1.97.1,4.02.13,6.03.01.85.14,1.8-.19,2.53-.61,1.38-.68,2.77-.69,4.21,0,1.53-.17,3.03-.45,4.56-.42,2.25-.46,4.57-.62,6.87-.08,1.24-.03,2.49-.09,3.74-.06,1.36.04,2.69.52,3.97.52,1.38.49,2.79.37,4.25-.14,1.61-.09,3.25.08,4.86.19,1.83.17,3.6-.12,5.43-.56,3.49-1.14,6.97-.38,10.56.39,1.84.06,3.82.59,5.69.08.27.05.58,0,.86-.75,4.38-.44,8.8-.52,13.2-.03,1.54-.31,3.01-.65,4.52-.75,3.36-1.37,6.77-.64,10.25.21,1.02.25,2.09.24,3.14-.04,2.59-.11,5.15.23,7.75.2,1.55-.3,3.22-.66,4.79-.34,1.5-.83,3-.49,4.53.39,1.73.44,3.59,1.7,5.24-.9,1.08-1.5,2.31-1.41,3.83.07,1.16.19,2.17.97,3.19.65.85.76,2.1,1.2,3.43-.76-.11-1.25-.18-1.88-.27-.22.51-.59,1.01-.63,1.54-.16,2.08-.86,4.13-.29,6.27.18.68.07,1.58-.23,2.23-1.16,2.52-1.04,5.25-1.38,7.9-.21,1.61-.29,3.26-.2,4.88.16,2.8-.22,5.55-.56,8.31-.11.92-.07,1.68.53,2.41,1,1.22,1.03,2.43.52,4-.64,1.97-.93,4.13-.96,6.22-.05,3.92.22,7.85.31,11.78.02.85.16,1.86-.23,2.52-1.32,2.23-1,4.62-1,7,0,.75-.12,1.5-.21,2.25-.06.46-.3.95-.22,1.38.33,1.64.11,3.25-.07,4.87-.07.66-.01,1.33.06,1.99.08.77.26,1.47,1.13,1.83.56.23.47.86.1,1.21-.54.52-1.2.92-1.98,1.49.54,2.49.18,5.04-.22,7.58-.24,1.49.41,2.59,1.56,3.51-.51,1.92-1.08,3.73-1.03,5.68.02.6-.34,1.32-.75,1.8-.67.8-.91,1.66-.86,2.65.06,1.43.12,2.86.19,4.29.04.7.02,1.37-.67,1.76-.66.37-1.48.57-1.98,1.08-.47.49-.62,1.29-.93,1.99-.72-.57-.22-1.15-.27-1.67-.09-.92-.47-1.48-1.33-1.64-1.03-.19-2.09-.26-3.14-.36-.76-.07-1.53-.13-2.29-.16-1.42-.06-2.63-.52-3.47-1.89-1.62.55-3.17.6-4.78.06-1.49-.5-3.09-.26-4.55.2-2.67.84-5.34,1.55-8.15,1.63-.18,0-.39.07-.54.17-.15.1-.35.29-.34.41.03.25.13.63.31.71.61.25,1.29.33,1.91.58.4.16.72.5,1.13.8-.33.22-.5.43-.61.4-1.47-.4-2.97-.74-4.4-1.27-1.06-.4-2.05-1.02-3.03-1.61-.68-.41-1.33-.72-2.15-.65-.56.05-1.16.04-1.71-.1-3.26-.81-6.51-1.61-9.74-2.51-2.37-.67-4.68-.88-7.07-.07-1.08.36-2.24.47-3.36.72-.75.16-1.5.31-2.23.53-1.28.38-2.55.81-3.82,1.23-.55.18-1.14.3-1.61.61-1.8,1.2-3.87,1.62-5.9,2.18-1.66.45-3.27,1.08-4.89,1.67-2.89,1.04-5.75,2.16-8.65,3.15-1.53.52-3.1,1.01-4.66-.11-.32-.23-.93-.14-1.39-.1-2.77.24-5.54.5-8.15,1.59-1.36.57-2.7.8-4.03-.39-.47-.42-1.44-.4-2.17-.37-3.83.18-7.66.44-11.49.64-.57.03-1.2.08-1.71-.12-1.92-.75-3.96-.68-5.93-1.03-.66-.12-1.34-.22-2-.16-1.47.13-2.85.14-3.98-1.08-.29-.32-.84-.5-1.29-.57-1.99-.29-3.99-.52-5.98-.77-1.71-.21-3.45-.31-5.13-.67-3-.63-5.97-1.4-8.94-2.17-.52-.13-.99-.54-1.4-.91-.15-.13-.16-.59-.04-.78.12-.2.48-.36.72-.34.36.03.74.19,1.06.38,1.79,1.03,3.74,1.43,5.78,1.57,1.63.11,3.25.29,4.87.39.34.02.69-.13,1.19-.24-.38-1.31-1.34-1.81-2.29-2.12-1.1-.35-2.15-.71-3.16-1.32-.62-.37-1.46-.45-2.21-.52-2.86-.27-5.73-.52-8.6-.69-1.51-.09-3.08-.36-4.43.7-3.25-.26-6.26.72-9.18,1.91-2.38.97-4.64,2.25-7.2,2.77-.46.09-.92.29-1.32.54-.39.24-.81.59-.21,1.22,2.32-.69,4.73-1.23,7.22-1.31.47-.02.94-.16,1.41-.27,1.16-.27,2.21-.71,2.67-1.92.35-.92,1.06-1.25,1.98-1.41,1.6-.29,3.2-.6,4.57-1.57ZM32.73,65.7c-1.15.08-1.4.91-1.67,1.55-.92,2.2-1.77,4.43-2.61,6.66-.71,1.87-1.41,3.75-2.04,5.66-.77,2.35-1.28,4.78-2.41,7.01-.3.59-.42,1.27-.56,1.92-.27,1.31-.57,2.62-.7,3.94-.16,1.58-.48,3.18-.25,5,.53-.2.98-.23,1.15-.47.33-.45.67-1,.69-1.53.06-1.68.68-3.16,1.3-4.66.25-.61.43-1.27.54-1.92.82-4.65,2.46-9,4.64-13.17,1.43-2.73,2.62-5.55,2.29-8.75-.04-.43-.25-.84-.38-1.24Zm42.99,282.27c.2.48.23.74.35.8,2,.91,3.95,1.98,6.03,2.63,1.8.57,3.75.89,5.64.91,2.46.02,4.95.49,7.8-.26-2.45-.63-4.52-1.26-6.63-1.68-2.15-.43-4.36-.57-6.51-.98-2.14-.41-4.18-1.28-6.68-1.42ZM219.59,92.3c.19,0,.37,0,.56,0,.22-2.05.17-4.1-.1-6.16-.15-1.13-.26-2.27-.36-3.4-.22-2.46-.41-4.92-.64-7.38-.03-.36-.15-.77-.74-.73-.08.24-.26.5-.24.75.39,5.49.8,10.98,1.22,16.47.01.16.2.3.3.45Zm-35.42,254.45l-.03-.61c-2.01-.6-4.1-.63-6.2-.55-2.21.08-4.41.21-6.57-.47-.3-.1-.69.07-1.02.11-.03.91.51,1.17,1.08,1.26,3.79.61,7.6,1.09,11.45.67.44-.05.85-.27,1.28-.41Zm36.52-249.59l-.56-.06c-.11.33-.29.67-.31,1-.26,5.5-.03,10.98.79,17.06.3-.98.5-1.39.53-1.8.1-1.23.15-2.46.18-3.7.02-.76.07-1.55-.08-2.28-.51-2.45-.5-4.93-.49-7.41,0-.94-.04-1.87-.07-2.81ZM156.99,5.25c-1.63-.99-3.01-.88-4.3-1.08-2.91-.45-5.87-.54-8.77-1.18-.69-.15-1.48.12-2.22.24-.12.02-.26.29-.26.45,0,.15.15.43.26.45,1.12.15,2.25.37,3.37.36,1.93-.02,3.81.1,5.65.72.72.24,1.48.42,2.23.51,1.2.14,2.43.31,4.04-.46ZM14.6,162.28c-.2-.04-.41-.08-.61-.12-.63,1.77-1.37,3.52-1.87,5.33-.42,1.52-.13,1.96,1.54,3.4.77-2.9,1.51-5.68.95-8.6Zm26.34,179.6c-.35-.18-.43-.27-.51-.26-3.07.21-5.93,1.23-8.76,2.34-.16.06-.31.23-.39.39-.08.15-.12.37-.06.53.05.15.23.35.37.36.37.05.76.06,1.13,0,1.35-.24,6.34-2.28,8.23-3.36Zm171.3-43.11c.17,0,.34,0,.52,0,0-.56-.09-1.13.02-1.66.42-2.11-.09-4.2-.09-6.29,0-.45-.16-.96-.42-1.34-.18-.27-.65-.53-.95-.49-.27.03-.66.44-.71.73-.17.95-.22,1.95.49,2.73.86.92.96,2.06,1.04,3.21.07,1.04.08,2.08.11,3.12ZM10.26,256.33c-.43.31-.71.42-.85.62-.63.9-.83,1.92-.74,3,.14,1.72.32,3.43-.49,5.05-.04.08-.04.22,0,.28.17.21.35.5.57.54.17.03.55-.24.58-.42.24-1.31.41-2.63.63-3.94.18-1.13.44-2.25.56-3.39.05-.51-.15-1.04-.26-1.74Zm166.18,85.38c-.9-.57-1.18-.83-1.5-.94-1.69-.56-3.38-.11-5.06.09-.11.01-.32.33-.28.42.1.23.28.55.48.59,1.87.34,3.75.33,6.36-.16Zm-105.11,2.81c0,.21,0,.43,0,.64,2.56.62,5.08,1.39,7.67,1.88.14.03.34-.29.67-.59-2.48-1.01-4.92-1.43-7.27-2.09-.31-.09-.7.1-1.05.16Zm84.7-1.96c-.43.19-1.04.41-1.58.74-.16.1-.23.54-.16.76.07.22.36.49.58.52.88.12,1.69-.08,2.37-.7.26-.24.16-.84-.18-.97-.26-.1-.53-.18-1.03-.35Zm-28.04,7.21c2.73.05,3.07-.08,4.52-1.56-2.42-.02-2.8.1-4.52,1.56Zm90.94-178.31c.16-1.01.31-2.01.47-3.02q.25-1.6-.16-3.23c-.59,2.12-.75,4.16-.31,6.25ZM2.93,330.24c.24-1.42.42-2.73.39-4.05,0-.19-.31-.38-.53-.63q-.79,3.58.14,4.68ZM19.36,127.5c-.21.15-.54.25-.6.44-.06.19.09.54.26.68.19.15.53.22.77.17.21-.04.42-.28.55-.48.05-.08-.08-.36-.21-.45-.21-.16-.48-.24-.78-.37Zm-6.94,45.94c-.4-.03-.71.5-.59,1.1.03.17.24.45.3.43.24-.06.56-.17.64-.36.26-.57.05-1.13-.35-1.17Zm.71,53.82c-.08-.14-.16-.27-.24-.41-.1.12-.22.23-.29.37-.02.04.1.22.12.21.14-.04.28-.11.42-.17Zm111.6,126.59c-.05.13-.12.26-.15.4,0,.02.17.13.2.1.13-.08.23-.2.34-.3-.13-.07-.26-.13-.39-.2ZM12.59,223.84c.13.04.23.07.32.1-.02-.07-.05-.14-.07-.21-.07.03-.14.05-.25.1Z"/>
  <path class="cls-2" d="m33.44,159.59c.11-3.19.98-6.17,2.31-8.91.85-1.75,2.43-3.18,3.78-4.65.42-.45,1.16-.7,1.8-.82,3.6-.68,6.97-2.08,10.37-3.35,2.96-1.11,5.68-.66,8.34.53,1.55.69,2.93,1.8,4.37,2.75,2.32,1.53,4.54,3.19,6.46,5.23,2.21,2.33,4.06,4.84,4.78,8.04.06.28.12.57.23.83,1.64,4.04.16,7.51-2.07,10.78-1.78,2.61-4.32,4.34-7.22,5.5-2.84,1.14-5.68,2.3-8.7,2.95-.55.12-1.1.35-1.6.63-1.88,1.07-3.92,1.47-6.05,1.64-1.71.14-3.39.42-5.14.21-1.9-.22-3.48-1.01-4.94-2.12-.76-.58-1.41-1.3-2.11-1.95-.87-.81-1.38-1.83-1.6-2.99-.18-.94-.43-1.88-.52-2.83-.21-2.21-.84-4.31-1.46-6.43-.48-1.64-.7-3.35-1.04-5.03Zm17.22-15.03c2.8,1.24,5.19,2.53,8.01,2.9,3.8.49,7.21,1.88,9.59,5.11.23.31.49.59.76.86.97.98,1.58,2.14,1.92,3.47.61,2.41,1.37,4.78,1.31,7.32-.01.56.15,1.13.28,1.68.04.15.28.36.4.35.25-.03.52-.16.72-.32.13-.1.17-.33.23-.51,1.27-3.85.33-7.39-1.66-10.69-.93-1.55-2.13-2.94-3.28-4.35-.54-.66-1.18-1.27-1.87-1.75-2.05-1.41-4.1-2.82-6.24-4.08-2.09-1.24-4.39-1.92-6.86-1.66-1.13.12-2.29.25-3.32,1.69Zm2.11,17.31c-.67.27-1.29.37-1.69.71-1.76,1.5-2.62,3.49-2.8,5.76-.03.35.41.84.76,1.06.19.12.83-.12.97-.36.7-1.24,1.74-1.62,3.1-1.62,1.39,0,2.59-.66,3.66-1.49,1.25-.96,1.17-2.33-.25-2.94-1.21-.52-2.53-.77-3.74-1.13Zm-16.78-.31c.33-.93.47-1.37.64-1.8,1.09-2.82,1.96-5.74,3.91-8.17.82-1.02,1.38-2.26,2.01-3.43.27-.5-.35-1.26-.9-1.09-.62.19-1.29.41-1.78.81-3.94,3.26-5.38,7.47-4.57,12.47.04.25.26.47.69,1.2Zm24.35-5.14c-1.13-1.98-2.53-2.46-4.03-2.74-1.78-.33-2.96-.12-4.34.76,2.35,1.95,5.17,1.51,8.37,1.98Zm-14.41,3.64c3.34.39,4.8-.26,6.49-2.72-2.65-.47-4.67.33-6.49,2.72Zm-.28,7.16c.68-1,.97-1.97,1.09-2.99.07-.57-.46-1.04-1.09-1.03-1.09,0-1.83.81-1.6,1.84.18.83.44,1.65,1.61,2.19Zm-1.32,10.63c-1.41-1.19-2.81-2.39-4.22-3.58-.15.21-.37.41-.34.48.9,1.86,2.21,3.21,4.55,3.1Zm-1.76-25c.13.12.25.32.38.33.82.07,1.87-1.05,1.67-1.77-.04-.13-.26-.29-.41-.3-.99-.04-1.82.85-1.65,1.73Zm13.22,6.71c.3.26.48.52.71.59.2.07.47-.06.71-.11-.04-.18-.01-.41-.12-.51-.18-.18-.43-.39-.67-.4-.18-.01-.38.25-.64.43Zm-15.17-1.24c-.18.21-.38.36-.47.57-.04.1.12.29.19.44.18-.15.39-.28.51-.47.05-.08-.12-.28-.23-.53Zm19.54.39c-.08.03-.15.06-.23.08.03.08.04.19.09.22.05.02.15-.04.23-.07-.03-.08-.06-.15-.09-.23Z"/>
  <path class="cls-2" d="m171.11,165.65c.83.38,1.57.71,2.24,1.02.54-.45.44-.87.16-1.11-1.42-1.2-2.26-2.83-3.31-4.3-.38-.54-.83-1.14-.92-1.77-.42-3.05-.61-6.11.51-9.08.45-1.18,1.12-2.2,1.99-3.13.91-.97,1.76-2.03,2.46-3.16,1.44-2.33,3.34-4.18,5.56-5.74,2.32-1.63,4.79-2.61,7.73-2.72,2.2-.08,4.35-.45,6.54.2,2.84.84,5.35,2.2,7.2,4.51,1.73,2.17,3.34,4.44,4.83,6.78,1.31,2.05,1.2,4.46.81,6.72-.37,2.16-1.15,4.25-1.83,6.34-1.06,3.24-3.36,5.54-6,7.53-.74.56-1.67.96-2.58,1.19-2.97.76-5.97,1.44-8.96,2.1-3.04.67-6.11.5-9.17.12-.35-.04-.84-.23-.98-.5-.67-1.31-1.76-1.19-2.97-1.16-1.29.04-3.16-1.56-3.59-2.9-.07-.21.14-.51.27-.94Zm19.61-14.12c-1.91-.06-3.63,2.07-3.08,3.93.15.49.59,1.1,1.04,1.27,2.18.8,4.31.32,4.49-2.61.09-1.49-.92-2.54-2.45-2.59Zm-19.78,3.04c-.86,1.41-.79,2.65.3,3.69.11.11.43.17.52.09.19-.16.45-.48.4-.63-.37-1.06-.8-2.1-1.22-3.15Zm14.08-7.69c1.02.57,1.77,0,2.55-.22.2-.06.5-.5.45-.6-.16-.3-.45-.69-.72-.72-1.16-.13-1.83.5-2.27,1.54Zm-4.13-7.2q-2.09.97-2.46,2.23c.94-.42,1.73-.86,2.46-2.23Zm3,16.16c.23.32.34.66.53.71.49.13.67-.29.63-.65-.03-.29-.31-.54-.48-.81-.22.24-.43.48-.67.75Zm-4.69.33c.16-.43.33-.67.31-.9-.02-.25-.19-.68-.32-.7-.56-.06-.48.44-.45.77.02.23.23.43.46.83Zm-8.43-3.63l-.03.23.21-.09-.17-.14Z"/>
  <path class="cls-2" d="m199.18,216.53c0,.28.09.59-.01.83-.73,1.75-.74,3.52-.47,5.37.19,1.32.16,2.68.11,4.02-.23,5.36-.49,10.72-.77,16.08-.04.76-.19,1.52-.3,2.28-.09.66-.37,1.36-.26,1.98.37,2.05-.24,3.98-.47,5.96-.4,3.52-.74,7.07-.74,10.61,0,3.99-.76,7.83-1.92,11.58-.82,2.64-1.69,5.28-2.81,7.84-1.38,3.15-3.6,5.64-5.74,8.21-1.1,1.32-2.73,1.72-4.38,1.92-.66.08-1.34-.01-2.01.03-4.3.28-7.01-2.11-9.02-5.51-1.32-2.22-2.48-4.54-3.63-6.85-.37-.75-.53-1.62-.71-2.45-.34-1.59-.45-3.24-1.46-4.62-.22-.3-.36-.69-.44-1.05-.47-2.06-1.06-4.1-1.31-6.18-.35-2.85-.41-5.73-.62-8.6-.24-3.35-.43-6.7-.79-10.03-.2-1.82-.33-3.6-.1-5.44.21-1.71.29-3.45.23-5.16-.19-5.2.2-10.35.85-15.5.19-1.52.37-3.05.6-4.56.13-.85.26-1.71.51-2.53.32-1.05,1.09-1.57,1.87-1.44.76.13,1.22,1,1.07,2.08-.05.38-.19.74-.28,1.12-.69,2.8-.89,5.67-1.22,8.52-.54,4.59-.31,9.19-.52,13.77-.04.86-.17,1.72-.24,2.58-.07.86-.22,1.73-.15,2.58.25,3.44.59,6.87.87,10.31.2,2.48.46,4.97.51,7.45.05,2.81.51,5.5,1.43,8.17.87,2.53,1.54,5.14,2.15,7.75.31,1.34.73,2.6,1.57,3.66.86,1.08,1.41,2.27,1.8,3.57.74,2.47,2.66,4.06,4.71,5.21,1.87,1.05,4.13.97,6.01-.39,2.12-1.53,3.72-3.48,4.92-5.88,2.61-5.23,3.61-10.89,4.97-16.47.22-.91.17-1.91.17-2.86.02-4.9.3-9.78.83-14.64.14-1.24.38-2.46.53-3.7.17-1.33.36-2.66.43-4,.24-4.3.47-8.61.61-12.92.1-3.06.06-6.13.02-9.19-.02-1.42.2-2.68,1.49-3.51.56-.36.79-.37,2.12.03Z"/>
  <path class="cls-2" d="m37.07,261.12c.41-5.91.02-10.96-.47-16.03-.31-3.23-.18-6.52-.01-9.77.18-3.54.92-7.03,1.72-10.48.11-.46.23-.94.46-1.34.31-.54.91-.82,1.48-.59.37.15.86.65.86,1,.01,1.33-.01,2.69-.27,3.99-.95,4.81-1.45,9.67-1.4,14.56.03,2.58.37,5.16.59,7.74.44,5.07.64,10.14.1,15.22-.54,5.11-.18,10.16,1.37,15.08.34,1.08.81,2.14,1.37,3.14.79,1.42,1.74,2.75,2.57,4.15,1.73,2.92,5.85,3.87,8.45,1.74,4.08-3.34,7.31-7.29,8.48-12.65.67-3.09,1.56-6.13,2.4-9.18.25-.92.62-1.81.99-2.7.92-2.23,1.52-4.54,1.79-6.93.03-.29,0-.58.07-.86,1.25-5.38,1.04-10.86,1.21-16.31.06-1.81.37-3.62.64-5.41.37-2.46.8-4.92,1.23-7.37.25-1.42.49-2.84.83-4.23.13-.53.43-1.07.79-1.49.62-.72,1.89-.39,2.04.53.1.64.08,1.34-.08,1.97-1.7,7.01-2.91,14.1-2.83,21.31.04,3.4-.44,6.65-.97,9.97-.56,3.52-1.36,6.95-2.56,10.3-.22.62-.36,1.31-.36,1.97,0,1.77-.57,3.35-1.24,4.97-.8,1.94-1.37,3.99-1.88,6.03-.54,2.19-1.44,4.17-2.92,5.86-1.7,1.95-3.31,4.01-5.21,5.75-3.72,3.4-9.38,2.97-12.39-.58-2.95-3.46-5.3-7.31-6.07-11.9-.61-3.67-1.28-7.32-.83-11.11.29-2.36.05-4.78.05-6.35Z"/>
  <path class="cls-2" d="m110.87,132.89c.3,2.76.57,5.52.93,8.27.21,1.61.54,3.21.85,4.81.11.56.2,1.16.48,1.64,1.18,2.07,1.73,4.47,3.38,6.32.55.62.82,1.51,1.14,2.3.34.84.85,1.47,1.61,1.95,1.38.87,2.05.9,3.41-.05,3.59-2.51,5.95-5.85,7.05-10.13,1.12-4.38,1.83-8.8,1.86-13.34,0-1.14.18-2.3.38-3.42.1-.53.36-1.09.71-1.51.45-.55,1.13-.75,1.83-.48.6.23.9.78.88,1.37-.08,1.82-.23,3.63-.37,5.44-.15,1.81-.34,3.62-.48,5.43-.2,2.77-.28,5.56-.59,8.31-.34,2.98-1.37,5.77-2.7,8.45-1.18,2.36-3.35,3.41-5.68,4.03-1.65.44-3.41.6-5.12.59-3.54-.01-6.19-1.95-7.36-5.74-.68-2.21-1.4-4.34-2.62-6.34-1.21-1.98-1.73-4.25-2.11-6.53-.41-2.46-.7-4.93-1.11-7.39-.18-1.09-.13-2.03.56-2.98.48-.67.64-1.57.98-2.35.15-.34.28-.75.56-.96.26-.21.69-.3,1.04-.27.2.02.51.36.54.58.1.65.09,1.33.12,1.99-.05,0-.09,0-.14,0Zm14.62,26.1c1.04-.54,2.26-.88,2.92-2.71-1.35,1.08-2.54,1.41-2.92,2.71Z"/>
  <path class="cls-2" d="m162.66,102.38c.05,2.75-.72,4.6-1.8,6.11-.89,1.24-2.41,2.25-3.86,2.83-1.84.73-3.89,1-5.93.73-1.17-.16-2.21-.59-3.04-1.47-.65-.7-1.36-1.35-2.03-2.04-1.2-1.25-1.43-2.81-.73-4.26.94-1.97,1.9-3.97,3.56-5.52,1.14-1.07,2.4-1.88,3.85-2.44,5-1.92,9.93,1.45,9.97,6.07Z"/>
  <path class="cls-2" d="m89.19,112.43c-.66-.04-1.04-.05-1.42-.08-2.76-.2-4.53-1.49-5.16-4.16-.76-3.22-.45-6.27,2.16-8.73,1.12-1.05,2.24-2.06,3.62-2.79,1.65-.87,3.34-.98,4.98-.22,2.44,1.13,4.34,2.8,4.74,5.68.16,1.13.39,2.23.18,3.41-.65,3.69-3.1,6.19-6.8,6.73-.85.12-1.72.12-2.3.15Z"/>
  <path class="cls-2" d="m26.02,107.81c.86,1.65.66,3.08.43,4.45-.27,1.59-.72,3.14-1.14,4.7-.05.19-.43.44-.61.41-.2-.03-.5-.34-.52-.55-.27-2.87.21-5.67.99-8.42.06-.2.43-.31.86-.59Z"/>
  <path class="cls-2" d="m6.9,223.4c-.26-.9-.49-1.79.08-2.73q.63,1.21-.08,2.73Z"/>
  <path class="cls-2" d="m6.68,226.82c.27-.16.41-.23.54-.31.11.24.26.47.31.72.02.11-.16.26-.25.39-.2-.26-.39-.52-.6-.8Z"/>
  <path class="cls-2" d="m117.76,357.28c-.02.08-.03.21-.08.23-.3.1-.6.18-.91.26,0,0-.08-.2-.06-.21.29-.16.58-.31.88-.44.03-.01.11.1.16.16Z"/>
  <path class="cls-2" d="m222.33,246.18c.11.13.23.27.34.4-.21.11-.41.23-.62.34-.06-.17-.19-.36-.15-.49.04-.12.28-.17.43-.25Z"/>
  <path class="cls-2" d="m220.87,266.19c.08.13.25.28.23.39-.02.14-.2.26-.31.38-.08-.13-.25-.28-.23-.39.02-.14.2-.26.32-.39Z"/>
  <path class="cls-2" d="m222.19,257.5c-.14.1-.27.19-.41.29-.07-.16-.2-.34-.17-.49.02-.11.24-.19.37-.28.07.16.14.32.21.48Z"/>
  <path class="cls-2" d="m78.44,15.9c.14-.06.29-.12.43-.18.03.14.08.27.08.41,0,.04-.18.13-.21.11-.12-.09-.2-.22-.3-.33Z"/>
  <path class="cls-2" d="m168.89,348.78c.05.07.11.13.16.2-.13.09-.25.18-.39.25-.02,0-.1-.12-.15-.19.13-.09.26-.18.39-.26Z"/>
  <path class="cls-2" d="m136.23,7.83c.16-.02.32-.05.48-.04.03,0,.05.16.07.25-.16.02-.32.05-.48.04-.03,0-.05-.16-.08-.25Z"/>
  <path class="cls-1" d="m32.73,65.7c.13.4.34.81.38,1.24.33,3.2-.86,6.02-2.29,8.75-2.18,4.17-3.82,8.52-4.64,13.17-.12.65-.29,1.31-.54,1.92-.63,1.5-1.24,2.99-1.3,4.66-.02.52-.37,1.08-.69,1.53-.17.24-.62.27-1.15.47-.23-1.83.09-3.42.25-5,.13-1.32.44-2.63.7-3.94.13-.65.26-1.34.56-1.92,1.13-2.23,1.63-4.66,2.41-7.01.63-1.9,1.33-3.78,2.04-5.66.84-2.23,1.69-4.46,2.61-6.66.27-.65.52-1.47,1.67-1.55Z"/>
  <path class="cls-1" d="m75.72,347.98c2.5.15,4.54,1.01,6.68,1.42,2.15.41,4.36.56,6.51.98,2.11.42,4.18,1.05,6.63,1.68-2.85.74-5.34.28-7.8.26-1.89-.02-3.84-.34-5.64-.91-2.08-.66-4.03-1.72-6.03-2.63-.12-.06-.15-.32-.35-.8Z"/>
  <path class="cls-1" d="m51.07,346.2c-1.37.97-2.97,1.28-4.57,1.57-.91.17-1.62.49-1.98,1.41-.47,1.21-1.52,1.66-2.67,1.92-.47.11-.94.25-1.41.27-2.49.09-4.9.62-7.22,1.31-.6-.63-.19-.98.21-1.22.4-.25.86-.45,1.32-.54,2.56-.52,4.81-1.8,7.2-2.77,2.92-1.19,5.93-2.17,9.18-1.91,0,0-.06-.04-.06-.04Z"/>
  <path class="cls-1" d="m219.59,92.3c-.11-.15-.29-.29-.3-.45-.42-5.49-.83-10.98-1.22-16.47-.02-.25.16-.51.24-.75.59-.04.71.37.74.73.23,2.46.42,4.92.64,7.38.1,1.14.21,2.27.36,3.4.27,2.06.32,4.11.1,6.16-.19,0-.37,0-.56,0Z"/>
  <path class="cls-1" d="m184.16,346.75c-.43.14-.84.36-1.28.41-3.85.41-7.66-.06-11.45-.67-.57-.09-1.11-.35-1.08-1.26.33-.04.71-.2,1.02-.11,2.16.67,4.37.55,6.57.47,2.1-.08,4.18-.05,6.2.55l.03.61Z"/>
  <path class="cls-1" d="m220.69,97.16c.02.94.08,1.87.07,2.81-.02,2.48-.03,4.96.49,7.41.15.74.1,1.52.08,2.28-.03,1.23-.08,2.47-.18,3.7-.03.42-.23.82-.53,1.8-.82-6.08-1.05-11.56-.79-17.06.02-.34.2-.67.31-1l.56.06Z"/>
  <path class="cls-1" d="m156.99,5.25c-1.61.77-2.84.6-4.04.46-.75-.09-1.51-.26-2.23-.51-1.84-.62-3.72-.74-5.65-.72-1.12.01-2.25-.21-3.37-.36-.11-.02-.26-.29-.26-.45,0-.16.15-.43.26-.45.74-.12,1.53-.39,2.22-.24,2.89.64,5.85.73,8.77,1.18,1.29.2,2.67.09,4.3,1.08Z"/>
  <path class="cls-1" d="m14.6,162.28c.56,2.92-.18,5.7-.95,8.6-1.67-1.44-1.96-1.88-1.54-3.4.5-1.81,1.24-3.55,1.87-5.33.2.04.41.08.61.12Z"/>
  <path class="cls-1" d="m40.94,341.89c-1.89,1.08-6.88,3.12-8.23,3.36-.37.06-.76.05-1.13,0-.14-.02-.32-.21-.37-.36-.05-.15-.01-.37.06-.53.08-.16.23-.33.39-.39,2.83-1.11,5.69-2.13,8.76-2.34.08,0,.16.08.51.26Z"/>
  <path class="cls-1" d="m212.24,298.78c-.03-1.04-.04-2.08-.11-3.12-.08-1.15-.18-2.28-1.04-3.21-.72-.78-.66-1.78-.49-2.73.05-.29.44-.7.71-.73.31-.03.77.22.95.49.25.37.42.88.42,1.34,0,2.1.52,4.19.09,6.29-.11.53-.02,1.11-.02,1.66-.17,0-.34,0-.52,0Z"/>
  <path class="cls-1" d="m10.26,256.33c.11.71.31,1.24.26,1.74-.12,1.14-.37,2.26-.56,3.39-.21,1.31-.38,2.64-.63,3.94-.03.18-.41.45-.58.42-.22-.04-.4-.34-.57-.54-.05-.06-.05-.2,0-.28.81-1.62.62-3.34.49-5.05-.09-1.08.11-2.1.74-3,.14-.2.42-.31.85-.62Z"/>
  <path class="cls-1" d="m176.44,341.72c-2.61.49-4.48.5-6.36.16-.2-.04-.38-.36-.48-.59-.04-.09.16-.41.28-.42,1.68-.19,3.37-.64,5.06-.09.32.11.6.36,1.5.94Z"/>
  <path class="cls-1" d="m71.33,344.53c.35-.06.74-.24,1.05-.16,2.36.66,4.79,1.08,7.27,2.09-.33.3-.53.62-.67.59-2.59-.49-5.11-1.26-7.67-1.88,0-.21,0-.43,0-.64Z"/>
  <path class="cls-1" d="m156.03,342.57c.5.17.77.24,1.03.35.34.13.43.73.18.97-.67.63-1.49.82-2.37.7-.22-.03-.51-.3-.58-.52-.07-.22,0-.66.16-.76.54-.33,1.15-.55,1.58-.74Z"/>
  <path class="cls-1" d="m128,349.78c1.73-1.46,2.1-1.58,4.52-1.56-1.45,1.49-1.79,1.62-4.52,1.56Z"/>
  <path class="cls-1" d="m218.94,171.47c-.45-2.09-.28-4.13.31-6.25q.41,1.63.16,3.23c-.15,1.01-.31,2.01-.47,3.02Z"/>
  <path class="cls-1" d="m2.93,330.24q-.93-1.1-.14-4.68c.22.25.53.44.53.63.02,1.32-.15,2.63-.39,4.05Z"/>
  <path class="cls-1" d="m19.36,127.5c.3.14.57.22.78.37.12.09.26.37.21.45-.13.2-.34.43-.55.48-.24.05-.58-.02-.77-.17-.17-.14-.32-.49-.26-.68.06-.19.39-.3.6-.44Z"/>
  <path class="cls-1" d="m12.42,173.43c.4.03.61.6.35,1.17-.09.19-.41.3-.64.36-.06.02-.27-.27-.3-.43-.12-.6.19-1.13.59-1.1Z"/>
  <path class="cls-1" d="m13.14,227.25c-.14.06-.27.13-.42.17-.02,0-.14-.17-.12-.21.07-.14.19-.25.29-.37.08.14.16.27.24.41Z"/>
  <path class="cls-1" d="m124.74,353.84c.13.07.26.13.38.2-.11.1-.21.22-.34.3-.03.02-.2-.08-.2-.1.03-.14.1-.26.15-.4Z"/>
  <path class="cls-1" d="m12.59,223.84c.12-.05.19-.07.25-.1.02.07.05.14.07.21-.09-.03-.19-.06-.32-.1Z"/>
  <path class="cls-1" d="m50.66,144.57c1.03-1.44,2.19-1.57,3.32-1.69,2.48-.25,4.77.43,6.86,1.66,2.14,1.26,4.19,2.67,6.24,4.08.7.48,1.34,1.09,1.87,1.75,1.15,1.41,2.34,2.8,3.28,4.35,1.99,3.31,2.93,6.85,1.66,10.69-.06.18-.1.41-.23.51-.2.16-.47.29-.72.32-.12.02-.36-.2-.4-.35-.13-.55-.29-1.12-.28-1.68.06-2.53-.7-4.91-1.31-7.32-.34-1.33-.95-2.49-1.92-3.47-.27-.27-.53-.55-.76-.86-2.39-3.23-5.79-4.62-9.59-5.11-2.82-.37-5.21-1.66-8.01-2.9Z"/>
  <path class="cls-1" d="m52.78,161.88c1.21.35,2.53.61,3.74,1.13,1.42.61,1.5,1.98.25,2.94-1.07.82-2.27,1.48-3.66,1.49-1.36,0-2.4.38-3.1,1.62-.14.24-.78.48-.97.36-.35-.22-.78-.71-.76-1.06.17-2.27,1.03-4.27,2.8-5.76.41-.34,1.02-.44,1.69-.71Z"/>
  <path class="cls-1" d="m35.99,161.57c-.43-.73-.65-.95-.69-1.2-.8-5.01.63-9.22,4.57-12.47.49-.4,1.16-.62,1.78-.81.55-.17,1.17.59.9,1.09-.63,1.16-1.19,2.4-2.01,3.43-1.95,2.44-2.82,5.35-3.91,8.17-.17.43-.31.87-.64,1.8Z"/>
  <path class="cls-1" d="m60.34,156.43c-3.21-.47-6.03-.03-8.37-1.98,1.38-.88,2.56-1.09,4.34-.76,1.5.28,2.9.76,4.03,2.74Z"/>
  <path class="cls-1" d="m45.93,160.08c1.82-2.39,3.84-3.19,6.49-2.72-1.68,2.46-3.15,3.11-6.49,2.72Z"/>
  <path class="cls-1" d="m45.65,167.24c-1.17-.55-1.43-1.37-1.61-2.19-.23-1.02.51-1.83,1.6-1.84.63,0,1.16.46,1.09,1.03-.12,1.02-.4,2-1.09,2.99Z"/>
  <path class="cls-1" d="m44.33,177.87c-2.34.11-3.65-1.24-4.55-3.1-.04-.07.18-.27.34-.48,1.41,1.2,2.81,2.39,4.22,3.58Z"/>
  <path class="cls-1" d="m42.57,152.87c-.17-.88.66-1.77,1.65-1.73.14,0,.37.17.41.3.2.71-.85,1.83-1.67,1.77-.14-.01-.26-.22-.38-.33Z"/>
  <path class="cls-1" d="m55.8,159.58c.26-.18.46-.44.64-.43.23.02.49.22.67.4.1.11.08.34.12.51-.24.04-.51.17-.71.11-.23-.08-.41-.33-.71-.59Z"/>
  <path class="cls-1" d="m40.63,158.34c.11.24.28.45.23.53-.12.19-.33.32-.51.47-.07-.15-.23-.34-.19-.44.09-.2.28-.36.47-.57Z"/>
  <path class="cls-1" d="m60.17,158.73c.03.08.06.15.09.23-.08.03-.17.1-.23.07-.05-.02-.06-.14-.09-.22.08-.03.15-.06.23-.08Z"/>
  <path class="cls-1" d="m190.72,151.53c1.53.05,2.54,1.1,2.45,2.59-.18,2.92-2.3,3.41-4.49,2.61-.45-.16-.89-.77-1.04-1.27-.55-1.86,1.16-3.99,3.08-3.93Z"/>
  <path class="cls-1" d="m170.94,154.57c.42,1.05.85,2.09,1.22,3.15.05.15-.21.47-.4.63-.09.08-.41.02-.52-.09-1.09-1.04-1.16-2.28-.3-3.69Z"/>
  <path class="cls-1" d="m185.01,146.89c.44-1.05,1.11-1.68,2.27-1.54.28.03.57.43.72.72.05.1-.24.54-.45.6-.77.22-1.53.79-2.55.22Z"/>
  <path class="cls-1" d="m180.88,139.69c-.74,1.38-1.52,1.81-2.46,2.23q.38-1.26,2.46-2.23Z"/>
  <path class="cls-1" d="m183.88,155.85c.24-.27.46-.51.67-.75.17.27.45.52.48.81.04.36-.14.78-.63.65-.19-.05-.3-.39-.53-.71Z"/>
  <path class="cls-1" d="m179.19,156.18c-.23-.4-.44-.6-.46-.83-.03-.33-.11-.82.45-.77.14.01.31.45.32.7.02.23-.15.47-.31.9Z"/>
  <polygon class="cls-1" points="170.77 152.55 170.94 152.69 170.73 152.78 170.77 152.55"/>
  <path class="cls-1" d="m125.48,158.99c.38-1.31,1.57-1.63,2.92-2.71-.66,1.84-1.88,2.17-2.92,2.71Z"/>
</svg>