<?xml version="1.0" encoding="UTF-8"?>
<svg id="Capa_1" data-name="Capa 1" xmlns="http://www.w3.org/2000/svg" viewBox="0 0 403.12 354.22">
  <defs>
    <linearGradient id="linear" x1="0%" y1="0%" x2="100%" y2="0%">
    <stop offset="0%" stop-color="white"/>
    <stop offset="48%" stop-color="rgb(221, 186, 69)"/>
    <stop offset="80%" stop-color="rgb(147, 202, 247)"/>
    <stop offset="100%" stop-color="white"/>
  
  </linearGradient>
    <style>
      .cls-1 {
        fill: url(#linear);
      }

      .cls-1, .cls-2 {
        stroke: url(#linear);
        stroke-width: 4;
        stroke-miterlimit: 10;
      }

      .cls-2 {
        fill:  none;
      }
    </style>
  </defs>
  <path class="cls-2" d="m403,192.15c-.69-1.6-.59-3.29-.78-4.95-.19-1.66-.45-3.35-.98-4.93-.96-2.9-1.32-5.89-1.55-8.9-.11-1.48-.35-2.85-1.04-4.19-1.28-2.48-2.6-4.96-3.21-7.73-.09-.42-.38-.81-.61-1.19-1.07-1.78-1.03-3.43.66-4.79,1.06-.85,1.16-1.92.81-3.02-.44-1.38-.99-2.74-1.64-4.03-.9-1.79-1.97-3.5-2.92-5.28-.84-1.58-1.75-3.1-2.95-4.46-1.65-1.87-2.64-4.16-3.22-6.57-.41-1.74-.53-3.54-.81-5.31-.38-2.37-.17-4.76.43-6.99.56-2.08.96-4.12,1.11-6.25.04-.66.3-1.31.42-1.96.51-2.63,1.16-5.24,1.45-7.9.19-1.71.59-3.26,1.34-4.8.63-1.29,1.13-2.69,1.38-4.1.62-3.41,1.04-6.86,1.58-10.29.12-.77.33-1.55.66-2.25,1.92-4.04,2.21-8.39,2.52-12.75.19-2.79.52-5.57.81-8.35.05-.44.16-.9.37-1.28.77-1.45.75-3.02.76-4.59,0-1.57.03-3.14.1-4.71.23-5.82.49-11.63.73-17.45.12-2.91.32-5.82.3-8.73-.02-2.91-.24-5.81-.44-8.72-.25-3.67-1.08-7.09-4.17-9.54-.96-.76-1.74-1.77-2.71-2.51-1.33-1.02-2.7-2-4.17-2.8-1.97-1.07-4-1.1-6.14-.18-1.94.84-4.02,1.35-6.04,2.01-.53.17-1.07.31-1.6.51-2.41.9-4.84,1.77-7.22,2.74-1.45.59-2.93,1.17-4.22,2.03-1.31.87-2.68,1.58-4.05,2.33-2.45,1.35-5.01,2.5-7.45,3.86-2.93,1.63-5.59,3.73-8.44,5.49-3.52,2.18-6.58,5.04-10.35,6.85-.49.23-.86.71-1.27,1.08-.59.51-1.1,1.15-1.77,1.53-1.89,1.06-3.38,2.58-4.9,4.07-1.2,1.17-2.27,2.54-3.61,3.51-2.41,1.75-4.21,4-5.9,6.38-1.4,1.96-3.19,3.44-5.35,4.49-.5.24-1.1.41-1.46.79-1.54,1.61-3.17,3.18-4.46,4.97-1.53,2.13-3.41,3.47-5.99,3.91-.75.13-1.67.29-2.17.78-1.74,1.74-4.1,2.65-5.67,4.68-1.78,2.31-4.41,2.97-7.27,2.4-.98-.2-1.94-.54-2.89-.89-4.46-1.62-9.19-1.97-13.81-2.78-1.07-.19-2.22.11-3.34.14-1.44.05-2.9.17-4.33.05-2.23-.19-4.44-.61-6.67-.81-1.21-.11-2.45,0-3.67.11-3.12.3-6.22.82-9.35.95-3.36.14-6.69.24-10.01.93-2.28.48-4.68.35-7.02.56-4.46.4-8.91.86-13.37,1.28-.89.08-1.79.05-2.68.15-2.64.29-5.38-.26-7.92.93-.19.09-.44.1-.66.1-2.94-.09-5.74.87-8.62,1.2-1.44.17-2.93-.08-4.34.2-4.3.84-8.63,1.18-12.99,1.36-1.08.05-2.18.49-3.19.94-1.48.65-2.93.89-4.56.77-2.78-.21-5.59-.19-8.38-.2-.77,0-1.58.14-2.29.43-3.26,1.34-6.63,1.93-10.15,1.76-.55-.03-1.16-.02-1.65.2-3.85,1.75-8.05,2.75-11.4,5.61-2.05,1.75-4.51,2.97-7.29,3.17-1.92.14-3.37.62-4.17,2.69-.58,1.51-3.14,2.16-4.36,1.31-.9-.62-1.77-1.45-2.28-2.38-.3-.54.15-1.47.22-2.23.02-.2-.13-.41-.19-.58-.67-.42-1.33-.82-1.97-1.24-.36-.24-.71-.75-1.05-.74-2.18.08-3.46-1.37-4.85-2.66-.41-.38-.89-.69-1.39-.94-3.02-1.54-5.73-3.5-8.25-5.74-1.07-.95-2.24-1.46-3.69-1.08-1.55.41-2.85-.06-4.06-1.04-.69-.56-1.57-.94-2.16-1.58-1.41-1.54-2.89-2.79-5.16-2.64-.41.03-.87-.21-1.27-.41-1.81-.89-3.62-1.77-5.4-2.73-3.08-1.68-6.26-2.93-9.87-2.7-1.74.11-3.2-.5-4.71-1.4-2.97-1.77-6.12-3.26-9.21-4.83-1.59-.81-3.2-1.59-4.84-2.31-.8-.36-1.66-.73-2.52-.79-2.05-.15-3.57-1.16-4.92-2.59-.61-.65-1.19-1.48-1.96-1.79-3.1-1.23-6.1-2.89-9.64-2.48-1.33.16-2.69.25-4.03.19-2.4-.12-4.79-.33-7.18-.56-1.22.16-2.45.21-3.68.14-.16,1.37-.92,2.42-1.93,3.45-1.64,1.67-3.1,3.52-4.57,5.36C.18,51.43-.31,54.35.17,57.48c.17,1.11.36,2.21.47,3.33.45,4.34.86,8.68,3.03,12.61.21.38.27.85.43,1.27,1.73,4.39,2.76,8.99,3.87,13.55.38,1.55.96,2.99,1.94,4.25.91,1.17,1.53,2.46,1.87,3.9.49,2.06.99,4.13,1.62,6.15,1.86,5.98,3.77,11.95,5.72,17.9.43,1.3.62,2.58.57,3.95-.04,1.1-.09,2.37.4,3.27,1,1.83,1.55,3.69,1.54,5.76,0,.44.12.89.26,1.31.82,2.44,1.73,4.84,2.48,7.3,1.05,3.42,2,6.88,2.94,10.33.2.74.28,1.57.2,2.33-.23,2-.41,4-1.26,5.88-.46,1.01-.84,2.09-1.04,3.18-.36,1.89-.95,3.65-1.76,5.4-.74,1.61-1.26,3.36-1.62,5.11-.44,2.15,0,2.71,2.21,3.73.17.08.25.35.22.3,0,1.91-.02,3.59,0,5.27.09,5.96-.63,11.84-1.72,17.69-.23,1.25-.23,2.44.39,3.59.76,1.42.95,2.94.91,4.55-.16,5.6-.33,11.2-.32,16.81,0,2.9.21,5.83.61,8.7.31,2.2,1,4.36,1.64,6.49.53,1.73.3,3.06-1.43,3.93-.15.07-.18.39-.38.86.81,2.44,1.36,5.26,2.64,7.7,2.14,4.06,4.28,8.1,6.03,12.35.25.61.49,1.22.78,1.95-1.44,1.38-1.86,3.04-1.3,4.9.19.63.49,1.24.82,1.82.77,1.36,1.82,2.61,2.35,4.06,1.36,3.67,3.7,6.91,4.67,10.75.13.52.53.98.85,1.43,1.04,1.46,2.06,2.94,3.17,4.34.98,1.22,1.93,2.53,3.16,3.46,1.38,1.05,2.47,2.31,3.41,3.68,1.98,2.92,4.56,5.24,7.21,7.48,3.07,2.6,6.3,5.02,9.42,7.58,1.96,1.61,4.08,2.77,6.64,2.96,1.5.11,2.8.66,4.04,1.49,1.78,1.18,3.68,2.1,5.76,2.69,1.27.36,2.53.89,3.69,1.51,2.07,1.12,4.1,2.26,6.47,2.73,1.05.21,2.04.87,3,1.43,1.16.67,2.24,1.49,3.4,2.16.67.38,1.42.82,2.15.85,2.35.1,4.28,1.22,6.28,2.24,1.09.55,2.22,1.14,3.39,1.39,2.98.64,5.79,1.71,8.58,2.88,1.13.47,2.36.71,3.54,1.04.65.18,1.4.19,1.93.53,2.47,1.62,5.33,1.78,8.08,1.97,2.49.17,4.57.91,6.45,2.44,1.48,1.2,3.14,1.64,5.04,1.18,3.12-.77,6.24.11,9.36.02.43-.01.9.14,1.29.35,1.55.84,3.24.73,4.91.87,3.34.27,6.72.46,9.99,1.13,2.31.47,4.44.52,6.55-.4,1.3-.57,2.55-.74,3.91-.37.75.2,1.54.34,2.32.38,1.49.08,2.86.43,4.12,1.26,1.45.95,3.11,1.17,4.81,1.32,2.9.24,5.79.62,8.68.91,1.78.18,3.56.34,5.35.45,5.7.36,11.41.59,17.1,1.09,2.57.22,4.81-.16,7.09-1.39,2.24-1.21,4.61-2.32,7.34-1.82.53.1,1.11-.04,1.67-.08,4.01-.35,8.03-.66,12.04-1.06,3.36-.34,6.71-.22,10.07-.1,2.28.09,4.45-.31,6.53-1.29,1.72-.81,3.45-1.59,5.22-2.28,1.03-.4,2.16-.87,3.21-.79,2.68.2,5.05-.86,7.47-1.6,1.94-.6,3.85-1.13,5.87-1.33,1.11-.11,2.24-.24,3.31-.53,3.46-.92,6.91-1.9,10.35-2.91,2.36-.69,4.66-1.62,7.05-2.18,2.64-.62,5.1-1.65,7.61-2.59,2.94-1.1,5.85-2.41,8.9-3.01,3.13-.62,5.97-1.85,8.89-2.96.31-.12.63-.25.92-.42,1.28-.76,1.56-1.72.92-3.1-.27-.58-.54-1.16-.74-1.57.52-1.19,1.41-1.36,2.26-1.65,2.1-.71,4.25-1.39,6.08-2.64,1.96-1.34,4.03-2.39,6.24-3.22,1.04-.39,2.08-.82,3.06-1.33,4.07-2.12,8.16-4.19,12.15-6.45,1.93-1.09,3.74-2.46,5.39-3.94.84-.75,1.88-1.78,1.34-3.2-.29-.78-2.02-.46-3.64.65-1.84,1.26-3.66,2.56-5.5,3.81-1.22.83-2.53,1.34-4.24.88.16-.55.16-1.07.43-1.32.65-.6,1.35-1.3,2.15-1.56,1.99-.64,3.57-1.79,5.03-3.23.47-.46,1.09-.8,1.69-1.09,1.73-.85,2.73-2.25,3.27-4.06.57-1.93,1.19-3.85,1.79-5.77.17-.53.31-1.08.56-1.58.58-1.15,1.58-1.82,2.29-1.64.72.18.93,1.32.4,2.69-.37.94-.88,1.82-1.29,2.73-.32.71-.71,1.43-.85,2.18-.11.58.13,1.22.25,2.11.71-.32.98-.36,1.1-.51,2.3-2.91,4.29-6.03,5.78-9.42,1.35-3.07,2.33-6.3,3.64-9.38.97-2.28,1.8-4.59,2.28-7.02.56-2.85,1.64-5.59,1.71-8.55.02-.64.34-1.29.58-1.92.69-1.77,1.45-3.52,2.1-5.31.84-2.3,1.93-4.52,1.93-7.08,0-.96.46-1.94.77-2.89,1.13-3.51,2.43-6.97,2.66-10.72.15-2.57.38-5.14.73-7.69.28-2.02.44-3.99-.08-6-.31-1.21-.11-2.42.44-3.6,1.73-3.75,2.39-7.64,1.74-11.77-.41-2.56-.41-5.13.55-7.63.28-.72.4-1.52.51-2.29.08-.54.19-1.16-.01-1.62Z"/>
  <path class="cls-1" d="m403,192.15c-.69-1.6-.59-3.29-.78-4.95-.19-1.66-.45-3.35-.98-4.93-.96-2.9-1.32-5.89-1.55-8.9-.11-1.48-.35-2.85-1.04-4.19-1.28-2.48-2.6-4.96-3.21-7.73-.09-.42-.38-.81-.61-1.19-1.07-1.78-1.03-3.43.66-4.79,1.06-.85,1.16-1.92.81-3.02-.44-1.38-.99-2.74-1.64-4.03-.9-1.79-1.97-3.5-2.92-5.28-.84-1.58-1.75-3.1-2.95-4.46-1.65-1.87-2.64-4.16-3.22-6.57-.41-1.74-.53-3.54-.81-5.31-.38-2.37-.17-4.76.43-6.99.56-2.08.96-4.12,1.11-6.25.04-.66.3-1.31.42-1.96.51-2.63,1.16-5.24,1.45-7.9.19-1.71.59-3.26,1.34-4.8.63-1.29,1.13-2.69,1.38-4.1.62-3.41,1.04-6.86,1.58-10.29.12-.77.33-1.55.66-2.25,1.92-4.04,2.21-8.39,2.52-12.75.19-2.79.52-5.57.81-8.35.05-.44.16-.9.37-1.28.77-1.45.75-3.02.76-4.59,0-1.57.03-3.14.1-4.71.23-5.82.49-11.63.73-17.45.12-2.91.32-5.82.3-8.73-.02-2.91-.24-5.81-.44-8.72-.25-3.67-1.08-7.09-4.17-9.54-.96-.76-1.74-1.77-2.71-2.51-1.33-1.02-2.7-2-4.17-2.8-1.97-1.07-4-1.1-6.14-.18-1.94.84-4.02,1.35-6.04,2.01-.53.17-1.07.31-1.6.51-2.41.9-4.84,1.77-7.22,2.74-1.45.59-2.93,1.17-4.22,2.03-1.31.87-2.68,1.58-4.05,2.33-2.45,1.35-5.01,2.5-7.45,3.86-2.93,1.63-5.59,3.73-8.44,5.49-3.52,2.18-6.58,5.04-10.35,6.85-.49.23-.86.71-1.27,1.08-.59.51-1.1,1.15-1.77,1.53-1.89,1.06-3.38,2.58-4.9,4.07-1.2,1.17-2.27,2.54-3.61,3.51-2.41,1.75-4.21,4-5.9,6.38-1.4,1.96-3.19,3.44-5.35,4.49-.5.24-1.1.41-1.46.79-1.54,1.61-3.17,3.18-4.46,4.97-1.53,2.13-3.41,3.47-5.99,3.91-.75.13-1.67.29-2.17.78-1.74,1.74-4.1,2.65-5.67,4.68-1.78,2.31-4.41,2.97-7.27,2.4-.98-.2-1.94-.54-2.89-.89-4.46-1.62-9.19-1.97-13.81-2.78-1.07-.19-2.22.11-3.34.14-1.44.05-2.9.17-4.33.05-2.23-.19-4.44-.61-6.67-.81-1.21-.11-2.45,0-3.67.11-3.12.3-6.22.82-9.35.95-3.36.14-6.69.24-10.01.93-2.28.48-4.68.35-7.02.56-4.46.4-8.91.86-13.37,1.28-.89.08-1.79.05-2.68.15-2.64.29-5.38-.26-7.92.93-.19.09-.44.1-.66.1-2.94-.09-5.74.87-8.62,1.2-1.44.17-2.93-.08-4.34.2-4.3.84-8.63,1.18-12.99,1.36-1.08.05-2.18.49-3.19.94-1.48.65-2.93.89-4.56.77-2.78-.21-5.59-.19-8.38-.2-.77,0-1.58.14-2.29.43-3.26,1.34-6.63,1.93-10.15,1.76-.55-.03-1.16-.02-1.65.2-3.85,1.75-8.05,2.75-11.4,5.61-2.05,1.75-4.51,2.97-7.29,3.17-1.92.14-3.37.62-4.17,2.69-.58,1.51-3.14,2.16-4.36,1.31-.9-.62-1.77-1.45-2.28-2.38-.3-.54.15-1.47.22-2.23.02-.2-.13-.41-.19-.58-.67-.42-1.33-.82-1.97-1.24-.36-.24-.71-.75-1.05-.74-2.18.08-3.46-1.37-4.85-2.66-.41-.38-.89-.69-1.39-.94-3.02-1.54-5.73-3.5-8.25-5.74-1.07-.95-2.24-1.46-3.69-1.08-1.55.41-2.85-.06-4.06-1.04-.69-.56-1.57-.94-2.16-1.58-1.41-1.54-2.89-2.79-5.16-2.64-.41.03-.87-.21-1.27-.41-1.81-.89-3.62-1.77-5.4-2.73-3.08-1.68-6.26-2.93-9.87-2.7-1.74.11-3.2-.5-4.71-1.4-2.97-1.77-6.12-3.26-9.21-4.83-1.59-.81-3.2-1.59-4.84-2.31-.8-.36-1.66-.73-2.52-.79-2.05-.15-3.57-1.16-4.92-2.59-.61-.65-1.19-1.48-1.96-1.79-3.1-1.23-6.1-2.89-9.64-2.48-1.33.16-2.69.25-4.03.19-2.4-.12-4.79-.33-7.18-.56-1.22.16-2.45.21-3.68.14-.16,1.37-.92,2.42-1.93,3.45-1.64,1.67-3.1,3.52-4.57,5.36C.18,51.43-.31,54.35.17,57.48c.17,1.11.36,2.21.47,3.33.45,4.34.86,8.68,3.03,12.61.21.38.27.85.43,1.27,1.73,4.39,2.76,8.99,3.87,13.55.38,1.55.96,2.99,1.94,4.25.91,1.17,1.53,2.46,1.87,3.9.49,2.06.99,4.13,1.62,6.15,1.86,5.98,3.77,11.95,5.72,17.9.43,1.3.62,2.58.57,3.95-.04,1.1-.09,2.37.4,3.27,1,1.83,1.55,3.69,1.54,5.76,0,.44.12.89.26,1.31.82,2.44,1.73,4.84,2.48,7.3,1.05,3.42,2,6.88,2.94,10.33.2.74.28,1.57.2,2.33-.23,2-.41,4-1.26,5.88-.46,1.01-.84,2.09-1.04,3.18-.36,1.89-.95,3.65-1.76,5.4-.74,1.61-1.26,3.36-1.62,5.11-.44,2.15,0,2.71,2.21,3.73.17.08.25.35.22.3,0,1.91-.02,3.59,0,5.27.09,5.96-.63,11.84-1.72,17.69-.23,1.25-.23,2.44.39,3.59.76,1.42.95,2.94.91,4.55-.16,5.6-.33,11.2-.32,16.81,0,2.9.21,5.83.61,8.7.31,2.2,1,4.36,1.64,6.49.53,1.73.3,3.06-1.43,3.93-.15.07-.18.39-.38.86.81,2.44,1.36,5.26,2.64,7.7,2.14,4.06,4.28,8.1,6.03,12.35.25.61.49,1.22.78,1.95-1.44,1.38-1.86,3.04-1.3,4.9.19.63.49,1.24.82,1.82.77,1.36,1.82,2.61,2.35,4.06,1.36,3.67,3.7,6.91,4.67,10.75.13.52.53.98.85,1.43,1.04,1.46,2.06,2.94,3.17,4.34.98,1.22,1.93,2.53,3.16,3.46,1.38,1.05,2.47,2.31,3.41,3.68,1.98,2.92,4.56,5.24,7.21,7.48,3.07,2.6,6.3,5.02,9.42,7.58,1.96,1.61,4.08,2.77,6.64,2.96,1.5.11,2.8.66,4.04,1.49,1.78,1.18,3.68,2.1,5.76,2.69,1.27.36,2.53.89,3.69,1.51,2.07,1.12,4.1,2.26,6.47,2.73,1.05.21,2.04.87,3,1.43,1.16.67,2.24,1.49,3.4,2.16.67.38,1.42.82,2.15.85,2.35.1,4.28,1.22,6.28,2.24,1.09.55,2.22,1.14,3.39,1.39,2.98.64,5.79,1.71,8.58,2.88,1.13.47,2.36.71,3.54,1.04.65.18,1.4.19,1.93.53,2.47,1.62,5.33,1.78,8.08,1.97,2.49.17,4.57.91,6.45,2.44,1.48,1.2,3.14,1.64,5.04,1.18,3.12-.77,6.24.11,9.36.02.43-.01.9.14,1.29.35,1.55.84,3.24.73,4.91.87,3.34.27,6.72.46,9.99,1.13,2.31.47,4.44.52,6.55-.4,1.3-.57,2.55-.74,3.91-.37.75.2,1.54.34,2.32.38,1.49.08,2.86.43,4.12,1.26,1.45.95,3.11,1.17,4.81,1.32,2.9.24,5.79.62,8.68.91,1.78.18,3.56.34,5.35.45,5.7.36,11.41.59,17.1,1.09,2.57.22,4.81-.16,7.09-1.39,2.24-1.21,4.61-2.32,7.34-1.82.53.1,1.11-.04,1.67-.08,4.01-.35,8.03-.66,12.04-1.06,3.36-.34,6.71-.22,10.07-.1,2.28.09,4.45-.31,6.53-1.29,1.72-.81,3.45-1.59,5.22-2.28,1.03-.4,2.16-.87,3.21-.79,2.68.2,5.05-.86,7.47-1.6,1.94-.6,3.85-1.13,5.87-1.33,1.11-.11,2.24-.24,3.31-.53,3.46-.92,6.91-1.9,10.35-2.91,2.36-.69,4.66-1.62,7.05-2.18,2.64-.62,5.1-1.65,7.61-2.59,2.94-1.1,5.85-2.41,8.9-3.01,3.13-.62,5.97-1.85,8.89-2.96.31-.12.63-.25.92-.42,1.28-.76,1.56-1.72.92-3.1-.27-.58-.54-1.16-.74-1.57.52-1.19,1.41-1.36,2.26-1.65,2.1-.71,4.25-1.39,6.08-2.64,1.96-1.34,4.03-2.39,6.24-3.22,1.04-.39,2.08-.82,3.06-1.33,4.07-2.12,8.16-4.19,12.15-6.45,1.93-1.09,3.74-2.46,5.39-3.94.84-.75,1.88-1.78,1.34-3.2-.29-.78-2.02-.46-3.64.65-1.84,1.26-3.66,2.56-5.5,3.81-1.22.83-2.53,1.34-4.24.88.16-.55.16-1.07.43-1.32.65-.6,1.35-1.3,2.15-1.56,1.99-.64,3.57-1.79,5.03-3.23.47-.46,1.09-.8,1.69-1.09,1.73-.85,2.73-2.25,3.27-4.06.57-1.93,1.19-3.85,1.79-5.77.17-.53.31-1.08.56-1.58.58-1.15,1.58-1.82,2.29-1.64.72.18.93,1.32.4,2.69-.37.94-.88,1.82-1.29,2.73-.32.71-.71,1.43-.85,2.18-.11.58.13,1.22.25,2.11.71-.32.98-.36,1.1-.51,2.3-2.91,4.29-6.03,5.78-9.42,1.35-3.07,2.33-6.3,3.64-9.38.97-2.28,1.8-4.59,2.28-7.02.56-2.85,1.64-5.59,1.71-8.55.02-.64.34-1.29.58-1.92.69-1.77,1.45-3.52,2.1-5.31.84-2.3,1.93-4.52,1.93-7.08,0-.96.46-1.94.77-2.89,1.13-3.51,2.43-6.97,2.66-10.72.15-2.57.38-5.14.73-7.69.28-2.02.44-3.99-.08-6-.31-1.21-.11-2.42.44-3.6,1.73-3.75,2.39-7.64,1.74-11.77-.41-2.56-.41-5.13.55-7.63.28-.72.4-1.52.51-2.29.08-.54.19-1.16-.01-1.62Zm-124.28,149.97c-.39-.02-.77-.12-1.16-.19.1-.23.19-.66.3-.66.37-.02.75.11,1.18.19-.16.35-.25.67-.32.67Zm119.55-144.35c-2.55.55-2.76,2.42-2.46,4.41.62,4.13.42,8.28.58,12.42.1,2.53-.14,4.92-1.89,6.95-.7.82-.71,1.81-.62,2.86.22,2.34.37,4.69.46,7.04.09,2.24.11,4.48-1.06,6.55-.37.65-.37,1.51-.55,2.28-.43,1.85-.67,3.76-2.15,5.19-.3.29-.45.77-.6,1.19-1.58,4.42-3.52,8.74-4.25,13.41-.25,1.6-.71,3-1.72,4.29-.97,1.23-1.8,2.59-1.39,4.65-1.92.38-2.75,1.45-3.39,2.87-1.32,2.9-3.65,5.08-5.71,7.43-.97,1.1-1.7,2.27-2.32,3.63-1.05,2.33-2.3,4.66-3.92,6.62-1.58,1.91-2.99,3.91-4.38,5.93-1.48,2.15-3.29,3.96-5.21,5.68-3.59,3.21-7.21,6.39-10.8,9.6-2.16,1.93-4.55,3.61-6.23,6.07-1.15,1.69-3.11,2.27-4.99,2.47-3.23.34-5.96,1.65-8.72,3.24-2.2,1.27-4.74,1.99-7.18,2.79-2.14.7-4.04,1.47-5.66,3.28-1.46,1.62-3.7,2.48-5.94,2.95-.55.12-1.18.05-1.65.31-4.16,2.26-8.88,2.07-13.33,3.03-2.45.53-4.78,1.2-6.85,2.62-2.2,1.5-4.57,2.22-7.26,2.23-2,.01-4,.43-5.98.77-1.76.3-3.32.16-4.65-1.2-1.09-1.11-2.38-1.1-3.71-.39-.3.16-.62.29-.88.5-2.77,2.33-6.23,2.86-9.57,3.7-4.16,1.05-8.36,1.44-12.65,1.42-2.56-.02-5.13.4-7.69.71-.76.09-1.48.49-2.23.71-1.6.48-3.21.95-4.82,1.39-1.44.4-2.87.35-4.32,0-.87-.21-1.81-.55-2.64-.4-2.98.53-5.99.38-8.99.58-2.26.15-4.47.27-6.65-.46-1.29-.43-2.59-.67-3.96-.32-1.46.37-2.72,0-3.51-1.31-.81-1.34-2.01-1.62-3.42-1.7-4.25-.23-8.5-.48-12.75-.78-3.02-.21-6.01-.55-8.96-1.33-1.49-.4-3.09-.55-4.64-.56-3.18,0-6.24-.55-9.27-1.43-.96-.28-1.96-.51-2.95-.55-3.16-.12-6.21-.67-9.19-1.74-1.36-.49-2.84-.64-4.27-.91-1.14-.21-2.22-.01-3.25.54-1.57.84-3.29.82-4.92.39-4.22-1.11-8.4-2.33-12.6-3.54-.75-.22-1.51-.48-2.17-.88-2.48-1.5-5.34-1.64-8.05-2.15-1.84-.34-3.75-.46-5.61-.89-2.99-.68-5.68-2-8.3-3.56-3.37-2.01-6.8-3.91-10.22-5.82-.87-.49-1.84-.81-2.73-1.27-1.49-.76-2.98-1.53-4.43-2.37-1.92-1.13-3.87-2.25-5.68-3.55-4.18-2.99-8.29-6.09-12.44-9.14-.45-.33-.88-.77-1.39-.93-2.74-.85-4.41-2.89-6.12-5.02-1.47-1.83-3.22-3.43-4.91-5.07-1.32-1.29-2.2-2.79-2.81-4.52-.4-1.16-.99-2.25-1.44-3.38-.83-2.08-1.88-4.12-2.35-6.28-.48-2.23-1.3-4.26-2.23-6.3-.55-1.21-.96-2.51-1.18-3.82-.3-1.76-.43-3.56-.48-5.35-.02-.97.29-1.96.45-2.95-.27-.41-.47-.82-.77-1.14-.97-1.03-1.47-2.22-1.44-3.65.03-1.27-.42-2.39-1.03-3.5-.53-.97-.93-2.03-1.23-3.1-.79-2.8-1.71-5.58-2.17-8.44-.71-4.41-1.28-8.87-1.53-13.33-.28-4.92-.18-9.86-.17-14.79,0-1.45.23-2.9.38-4.34.09-.89.33-1.78.32-2.66-.03-2.15.14-4.23,1.04-6.24.35-.78.31-1.76.33-2.65.06-2.58.21-5.16.05-7.73-.23-3.72.28-7.4.74-11.04.36-2.84,1.61-5.56,2.47-8.33.5-1.59,1.03-3.18,1.52-4.77.33-1.07.62-2.14.95-3.21.48-1.58.42-3.09-.56-4.49-.32-.46-.59-.95-.92-1.41-2.78-3.86-4.43-8.26-6.03-12.69-.83-2.3-1.79-4.52-2.22-6.99-.4-2.27-1.47-4.45-2.45-6.58-2.58-5.61-4.52-11.44-6.24-17.36-.22-.75-.41-1.56-.86-2.17-1.31-1.77-1.77-3.87-2.45-5.86-1.19-3.49-2.24-7.04-3.26-10.59-.43-1.49-.64-3.05-.92-4.58-.16-.88-.07-1.84-.38-2.65-1.1-2.84-1.58-5.82-2.18-8.78-.11-.55-.18-1.15-.46-1.61-2.12-3.41-1.94-7.29-2.34-11.05-.19-1.78-.23-3.58-.49-5.35-.42-2.87-.32-5.56,1.54-8,.52-.68.8-1.6,1-2.46.47-1.98,1.79-3.08,3.63-3.57,2.98-.79,6.02-.96,8.93.17,2.42.94,4.9,1.55,7.42,2.11,1.41.31,2.83.75,4.13,1.37,3.74,1.76,7.52,3.47,10.91,5.87,2.19,1.55,4.64,2.52,7.18,2.58,3.28.08,5.74,1.69,8.24,3.33,3.19,2.08,6.25,4.34,9.39,6.49.44.3,1,.53,1.53.6,3.83.52,7.33,1.87,10.54,4.01,2.43,1.61,4.83,3.27,7.34,4.74,2.9,1.69,5.87,3.27,8.88,4.75,2.2,1.08,4.13,2.69,6.56,3.37.95.26,1.42,1.14,1.24,2.14-.25,1.39-.03,2.68.56,3.92.53,1.11,1.42,1.69,2.69,1.61,2.34-.13,4.69-.27,7.03-.36,1.39-.05,2.63-.38,3.73-1.28,1.76-1.44,3.82-2.29,5.96-3.03,1.9-.65,3.79-1.37,5.61-2.22,1.36-.64,2.72-1.01,4.21-.96,1.94.07,3.79-.29,5.52-1.22.49-.26,1.02-.49,1.56-.6,4.06-.79,8.15-1.48,12.19-2.36,2.17-.47,4.27-1.29,6.41-1.92.96-.28,1.94-.48,2.92-.71,1.84-.45,3.78-.68,5.51-1.4,1.98-.83,4.02-1.53,6.09-1.82,2.74-.38,5.55-.41,8.32-.36,1.47.02,2.88.1,4.31-.36,1.06-.34,2.18-.57,3.28-.68,1.48-.15,2.85-.53,4.15-1.25,1.4-.78,2.87-.99,4.5-1,3.91-.03,7.85-.1,11.71-.63,5.11-.7,10.22-1.32,15.35-1.67,3.67-.25,7.39-.02,11.08.18,2.56.14,5.11.61,7.67.88,1.57.16,3.12.16,4.45-.99,1.45-1.26,3.33-1.36,5.09-1.44,4.25-.19,8.49-.25,12.71.76,3.36.81,6.74,1.6,10.26,1.59,2.11,0,4.24.37,6.34.66,1.74.24,3.36.07,4.81-.97,3.18-2.29,6.67-4.12,9.64-6.71.34-.29.77-.5,1.05-.84,1.87-2.35,4.3-3.87,6.99-5.1.78-.36,1.48-1.03,2.03-1.72,1.25-1.57,2.36-3.26,3.59-4.85.54-.7,1.14-1.37,1.83-1.91,1.58-1.25,3.24-2.39,4.85-3.6,1.81-1.36,3.42-2.89,4.17-5.13.69-2.09,2.49-3.1,4.21-4.15,1.53-.93,3.1-1.79,4.65-2.68.29-.17.56-.42.88-.49,4.66-1.07,7.86-4.61,11.77-6.94,1.92-1.14,3.78-2.4,5.64-3.64.84-.55,1.6-1.22,2.43-1.78,2.04-1.37,3.98-2.95,6.18-4,2.35-1.13,4.56-2.45,6.55-4.05,2.82-2.27,5.95-3.98,9.04-5.81.84-.5,1.66-.57,2.58-.33.65.17,1.31.3,1.97.41.92.16,1.67-.06,2.47-.67,2.74-2.1,4.94-1.9,7.42.53.8.78,1.56,1.61,2.32,2.44,2.02,2.23,3.15,4.79,3.47,7.83.51,4.81.92,9.58.14,14.4-.19,1.19-.02,2.46.12,3.68.26,2.24.31,4.45-.15,6.68-.27,1.3-.41,2.72-.15,4,.58,2.94.02,5.8-.25,8.69-.07.78-.4,1.59-.26,2.33.79,4.15-.9,7.91-1.72,11.81-.97,4.58-2.37,9.08-2.57,13.82-.1,2.28-.71,4.41-2.48,6.06-1.48,1.38-2.19,3.21-2.11,5.15.2,4.79-1.18,9.31-2.15,13.9-.23,1.09-.4,2.2-.6,3.3-.12.66-.11,1.38-.4,1.96-1.23,2.47-1.49,5.12-1.76,7.81-.19,1.88-.64,3.76-1.2,5.57-.49,1.59-.39,3.03.09,4.59,1.72,5.56,3.9,10.96,5.98,16.39.28.73.48,1.5.62,2.26.86,4.88,2.29,9.58,4.24,14.13.3.71.4,1.51.62,2.26.85,2.9,1.66,5.81,2.6,8.68.27.82.79,1.65,1.42,2.23,1.33,1.22,1.93,2.74,2.18,4.43.39,2.67,1.16,5.23,1.77,7.84.61,2.59.65,5.32.88,8,.06.72-.33,1.44-1.01,1.59Z"/>
  <path class="cls-2" d="m382.64,268.99c-1.92.38-2.75,1.45-3.39,2.87-1.32,2.9-3.65,5.08-5.71,7.43-.97,1.1-1.7,2.27-2.32,3.63-1.05,2.33-2.3,4.66-3.92,6.62-1.58,1.91-2.99,3.91-4.38,5.93-1.48,2.15-3.29,3.96-5.21,5.68-3.59,3.21-7.21,6.39-10.8,9.6-2.16,1.93-4.55,3.61-6.23,6.07-1.15,1.69-3.11,2.27-4.99,2.47-3.23.34-5.96,1.65-8.72,3.24-2.2,1.27-4.74,1.99-7.18,2.79-2.14.7-4.04,1.47-5.66,3.28-1.46,1.62-3.7,2.48-5.94,2.95-.55.12-1.18.05-1.65.31-4.16,2.26-8.88,2.07-13.33,3.03-2.45.53-4.78,1.2-6.85,2.62-2.2,1.5-4.57,2.22-7.26,2.23-2,.01-4,.43-5.98.77-1.76.3-3.32.16-4.65-1.2-1.09-1.11-2.38-1.1-3.71-.39-.3.16-.62.29-.88.5-2.77,2.33-6.23,2.86-9.57,3.7-4.16,1.05-8.36,1.44-12.65,1.42-2.56-.02-5.13.4-7.69.71-.76.09-1.48.49-2.23.71-1.6.48-3.21.94-4.82,1.39-1.44.4-2.87.35-4.32,0-.87-.21-1.81-.55-2.64-.4-2.98.53-5.99.38-8.99.58-2.26.15-4.47.27-6.65-.46-1.29-.43-2.59-.67-3.96-.32-1.46.37-2.72,0-3.51-1.31-.81-1.34-2.01-1.62-3.42-1.7-4.25-.23-8.5-.48-12.75-.78-3.02-.21-6.01-.55-8.96-1.33-1.49-.4-3.09-.55-4.64-.56-3.18,0-6.24-.55-9.27-1.43-.96-.28-1.96-.51-2.95-.55-3.16-.12-6.21-.67-9.19-1.74-1.36-.49-2.84-.64-4.27-.91-1.14-.21-2.22-.01-3.25.54-1.57.84-3.29.82-4.92.39-4.22-1.11-8.4-2.33-12.6-3.54-.75-.22-1.51-.48-2.17-.88-2.48-1.5-5.34-1.64-8.05-2.15-1.84-.34-3.75-.46-5.61-.89-2.99-.68-5.68-2-8.3-3.56-3.37-2.01-6.8-3.91-10.22-5.82-.87-.49-1.84-.81-2.73-1.27-1.49-.76-2.98-1.53-4.43-2.37-1.92-1.13-3.87-2.25-5.68-3.55-4.18-2.99-8.29-6.09-12.44-9.14-.45-.33-.88-.77-1.39-.93-2.74-.85-4.41-2.89-6.12-5.02-1.47-1.83-3.22-3.43-4.91-5.07-1.32-1.29-2.2-2.79-2.81-4.52-.4-1.16-.99-2.25-1.44-3.38-.83-2.08-1.88-4.12-2.35-6.28-.48-2.23-1.3-4.26-2.23-6.3-.55-1.21-.96-2.51-1.18-3.82-.3-1.76-.43-3.56-.48-5.35-.02-.97.29-1.96.45-2.95-.27-.41-.47-.82-.77-1.14-.97-1.03-1.47-2.22-1.44-3.65.03-1.27-.42-2.39-1.03-3.5-.53-.97-.93-2.03-1.23-3.1-.79-2.8-1.71-5.58-2.17-8.44-.71-4.41-1.28-8.87-1.53-13.33-.28-4.92-.18-9.86-.17-14.79,0-1.45.23-2.9.38-4.34.09-.89.33-1.78.32-2.66-.03-2.15.14-4.23,1.04-6.24.35-.78.31-1.76.33-2.65.06-2.58.21-5.16.05-7.73-.23-3.72.28-7.4.74-11.04.36-2.84,1.61-5.56,2.47-8.33.5-1.59,1.03-3.18,1.52-4.77.33-1.07.62-2.14.95-3.21.48-1.58.42-3.09-.56-4.49-.32-.46-.59-.95-.92-1.41-2.78-3.86-4.43-8.26-6.03-12.69-.83-2.3-1.79-4.52-2.22-6.99-.4-2.27-1.47-4.45-2.45-6.58-2.58-5.61-4.52-11.44-6.24-17.36-.22-.75-.41-1.56-.86-2.17-1.31-1.77-1.77-3.87-2.45-5.86-1.19-3.49-2.24-7.04-3.26-10.59-.43-1.49-.64-3.05-.92-4.58-.16-.88-.07-1.84-.38-2.65-1.1-2.84-1.58-5.82-2.18-8.78-.11-.55-.18-1.15-.46-1.61-2.12-3.41-1.94-7.29-2.34-11.05-.19-1.78-.23-3.58-.49-5.35-.42-2.87-.32-5.56,1.54-8,.52-.68.8-1.6,1-2.46.47-1.98,1.79-3.08,3.63-3.57,2.98-.79,6.02-.96,8.93.17,2.42.94,4.9,1.55,7.42,2.11,1.41.31,2.83.75,4.13,1.37,3.74,1.76,7.52,3.47,10.91,5.87,2.19,1.55,4.64,2.52,7.18,2.58,3.28.08,5.74,1.69,8.24,3.33,3.19,2.08,6.25,4.34,9.39,6.49.44.3,1,.53,1.53.6,3.83.52,7.33,1.87,10.54,4.01,2.43,1.61,4.83,3.27,7.34,4.74,2.9,1.69,5.87,3.27,8.88,4.75,2.2,1.08,4.13,2.69,6.56,3.37.95.26,1.42,1.14,1.24,2.14-.25,1.39-.03,2.68.56,3.92.53,1.11,1.42,1.69,2.69,1.61,2.34-.13,4.69-.27,7.03-.36,1.39-.05,2.63-.38,3.73-1.28,1.76-1.44,3.82-2.29,5.96-3.03,1.9-.65,3.79-1.37,5.61-2.22,1.36-.64,2.72-1.01,4.21-.96,1.94.07,3.79-.29,5.52-1.22.49-.26,1.02-.49,1.56-.6,4.06-.79,8.15-1.48,12.19-2.36,2.17-.47,4.27-1.29,6.41-1.92.96-.28,1.94-.48,2.92-.71,1.84-.45,3.78-.68,5.51-1.4,1.98-.83,4.02-1.53,6.09-1.82,2.74-.38,5.55-.41,8.32-.36,1.47.02,2.88.1,4.31-.36,1.06-.34,2.18-.57,3.28-.68,1.48-.15,2.85-.53,4.15-1.25,1.4-.78,2.87-.99,4.5-1,3.91-.03,7.85-.1,11.71-.63,5.11-.7,10.22-1.32,15.35-1.67,3.67-.25,7.39-.02,11.08.18,2.56.14,5.11.61,7.67.88,1.57.16,3.12.16,4.45-.99,1.45-1.26,3.33-1.36,5.09-1.44,4.25-.19,8.49-.25,12.71.76,3.36.81,6.74,1.6,10.26,1.59,2.11,0,4.24.37,6.34.66,1.74.24,3.36.07,4.81-.97,3.18-2.29,6.67-4.12,9.64-6.71.34-.29.77-.5,1.05-.84,1.87-2.35,4.3-3.87,6.99-5.1.78-.36,1.48-1.03,2.03-1.72,1.25-1.57,2.36-3.26,3.59-4.85.54-.7,1.14-1.37,1.83-1.91,1.58-1.25,3.24-2.39,4.85-3.6,1.81-1.36,3.42-2.89,4.17-5.13.69-2.09,2.49-3.1,4.21-4.15,1.53-.93,3.1-1.79,4.65-2.68.29-.17.56-.42.88-.49,4.66-1.07,7.86-4.61,11.77-6.94,1.92-1.14,3.78-2.4,5.64-3.64.84-.55,1.6-1.22,2.43-1.78,2.04-1.37,3.98-2.95,6.18-4,2.35-1.13,4.56-2.45,6.55-4.05,2.82-2.27,5.95-3.98,9.04-5.81.84-.5,1.66-.57,2.58-.33.65.17,1.31.3,1.97.41.92.16,1.67-.06,2.47-.67,2.74-2.1,4.94-1.9,7.42.53.8.78,1.56,1.61,2.32,2.44,2.02,2.23,3.15,4.79,3.47,7.83.51,4.81.92,9.58.14,14.4-.19,1.19-.02,2.46.12,3.68.26,2.24.31,4.45-.15,6.68-.27,1.3-.41,2.72-.15,4,.58,2.94.02,5.8-.25,8.69-.07.78-.4,1.59-.26,2.33.79,4.15-.9,7.91-1.72,11.81-.97,4.58-2.37,9.08-2.57,13.82-.1,2.28-.71,4.41-2.48,6.06-1.48,1.38-2.19,3.21-2.11,5.15.2,4.79-1.18,9.31-2.15,13.9-.23,1.09-.4,2.2-.6,3.3-.12.66-.11,1.38-.4,1.96-1.23,2.47-1.49,5.12-1.76,7.81-.19,1.88-.64,3.76-1.2,5.57-.49,1.59-.39,3.02.09,4.59,1.72,5.56,3.9,10.96,5.98,16.39.28.73.48,1.5.62,2.26.86,4.88,2.29,9.58,4.24,14.13.3.71.4,1.51.62,2.26.85,2.9,1.66,5.81,2.6,8.68.27.82.79,1.65,1.42,2.23,1.33,1.22,1.93,2.74,2.18,4.43.39,2.67,1.16,5.23,1.77,7.84.61,2.59.65,5.32.88,8,.06.72-.33,1.44-1.01,1.59-2.55.55-2.76,2.42-2.46,4.41.62,4.13.42,8.28.58,12.42.1,2.53-.14,4.92-1.89,6.95-.7.82-.71,1.81-.62,2.86.22,2.34.37,4.69.46,7.04.09,2.24.11,4.48-1.06,6.55-.37.65-.37,1.51-.55,2.28-.43,1.85-.67,3.76-2.15,5.19-.3.29-.45.77-.6,1.19-1.58,4.42-3.52,8.74-4.25,13.41-.25,1.6-.71,3-1.72,4.29-.97,1.23-1.8,2.59-1.39,4.65Zm-59.27-55.33c-1.99.26-3.98.57-5.98.76-1.53.15-2.8.74-3.84,1.84-1.31,1.37-2.94,2.03-4.78,2.2-2.29.22-4.34,1.11-6.26,2.29-4.04,2.49-7.4,5.72-10.35,9.44-2.49,3.13-3.97,6.73-5.27,10.43-.48,1.36-1.19,2.76-1.17,4.14.03,1.64,1.83,2.42,2.75,3.66.52.7,1.23,1.52,1.23,2.28,0,3.26,1.41,6.35,1.11,9.63-.05.53.1,1.13.32,1.62.74,1.62,1.54,3.21,2.34,4.8.53,1.03,1.25,1.86,2.51,1.99,3.17.33,5.57,2.2,8,4.01,1.22.91,2.09,2.01,2.16,3.61.02.44.11.9.27,1.31.51,1.32,1.48,2.21,2.73,2.83.92.46,1.71,0,2.57-.27,1.71-.54,3.42-1.1,5.17-1.43,1.29-.24,2.73-.43,3.97-.13,5.18,1.24,10.07,0,14.79-1.78,2.83-1.07,5.54-2.35,8.59-2.7.43-.05.84-.29,1.25-.47,4.52-2.05,7.99-5.22,10.41-9.58,1.97-3.54,2.34-7.43,2.64-11.34.21-2.68.23-5.36.42-8.04.07-1.06.02-2.1-.69-2.85-1.29-1.37-1.66-3.14-2.43-4.73-1.16-2.41-1.61-5.14-3.37-7.28-.33-.4-.43-1.02-.58-1.56-.47-1.69-1.54-2.94-2.88-4.03-1.3-1.06-2.62-2.1-3.82-3.28-1.23-1.22-2.59-2.1-4.29-2.49-.75-.17-1.57-.38-2.16-.84-2.3-1.78-5.06-2.35-7.75-3.07-2.48-.66-4.98-1.4-7.63-.97Zm-227.37,66.4c1.2,2.63,1.42,2.94,3.08,3,5.06.2,10.06.1,14.8-2.13,2.31-1.09,4.93-1.55,6.84-3.43.15-.15.39-.23.6-.29,2.22-.65,3.83-2.24,5.69-3.48,4.04-2.7,6.49-6.45,7.8-10.98.7-2.43,2-4.81,1.52-7.48-.66-3.63-1.21-7.3-2.96-10.62-.31-.59-.68-1.16-1.07-1.7-2.79-3.8-5.78-7.44-9.28-10.61-1.07-.97-2.3-1.77-3.5-2.59-1.19-.82-2.49-1.5-3.65-2.36-1.55-1.16-3.17-2.09-5.06-2.56-.87-.21-1.68-.64-2.54-.88-2.37-.66-4.72-1.63-7.13-1.84-4.25-.37-8.49.38-12.69,1.02-3.04.47-5.69,2-8.34,3.48-3.73,2.08-6.84,5.03-10.32,7.46-2.47,1.72-3.63,4.49-5.18,6.93-.56.89-.67,1.89-.39,2.92.82,3.06.44,6.01-.89,8.85-.63,1.34-.49,2.59.13,3.87.58,1.21,1.3,2.4,1.6,3.69.56,2.35,1.81,4.34,3.05,6.32.66,1.05,1.32,2.04,1.6,3.28.43,1.9,1.68,3.1,3.51,3.74,1.27.45,2.49,1,3.77,1.42,2.15.7,4.08,1.76,5.91,3.11,2.16,1.59,4.47,2.96,7.15,3.62,1.63.4,3.06.5,4.3-.89.34-.38.95-.51,1.65-.86Zm115.88-69.23c-4.14-.72-7.86-.12-11.52,1.79-2.45,1.28-4.03,3.13-5.25,5.45-.68,1.29-.62,2.6.26,3.81.59.81,1.16,1.65,1.83,2.4.98,1.08,2.03,2.09,3.06,3.12,3.08,3.08,5.92,6.39,9.77,8.66,1.92,1.13,3.46,2.89,3.96,5.24.66,3.17,1.33,6.34,1.91,9.53.34,1.87.43,3.79.79,5.65.64,3.22.66,6.46.49,9.71-.08,1.55.16,3.19-.26,4.63-.43,1.46-1.5,2.72-2.29,4.07-.06.1-.08.21-.15.3-3.66,4.8-6.14,6.36-12.37,4.88-.11-.03-.22-.06-.32-.1-2.8-1.13-5.66-2.13-8.37-3.45-2.39-1.16-4.23-3.06-4.72-5.8-.48-2.73-1.34-5.42-.81-8.3.35-1.91-.89-3.07-2.82-2.59-1.59.39-3.25,1.06-4.52,2.06-2.76,2.16-3,2.84-1.45,5.95.1.2.17.42.3.6,1.33,1.93,1.73,4.09,1.61,6.39-.1,2.04.26,3.97,1,5.9.8,2.1,1.14,4.31.61,6.6-.69,2.96.2,5.79,1.03,8.58.52,1.76,2.03,2.37,3.75,1.68,1.39-.56,2.55-1.45,3.15-2.87.74-1.75,1.49-3.5,2.1-5.3.52-1.53,1.29-2.85,2.52-3.9,1.38-1.17,3.02-1.69,4.69-1.04,2.76,1.07,5.5.79,8.27.29,1.65-.3,3.3-.62,4.94-.98,1.52-.34,3.13-.54,4.52-1.19,1.91-.9,3.22-.28,4.45,1.09.67.75,1.27,1.58,2.03,2.23,1.69,1.44,3.67,1.7,5.18.31,1.87-1.72,4-1.75,6.27-1.76,2.34-.02,3.8,1.08,4.62,3.19.65,1.67,1.26,3.35,1.98,4.99.86,1.94,1.81,3.85,2.76,5.74.25.49.62.93,1.01,1.33.86.86,2.38.56,2.74-.6.23-.73.29-1.53.32-2.31.11-2.93.55-5.79,1.48-8.58.21-.63.46-1.3.45-1.95-.01-1.86.62-3.55,1.39-5.14,1.22-2.53,2.17-5.13,2.96-7.82.46-1.58,1.34-3.07,2.21-4.5.95-1.55,1.04-3.17.78-4.86-.17-1.11-1.14-1.74-2.23-1.45-.53.14-1.06.38-1.49.71-1.27.98-2.27,2.22-2.64,3.8-.73,3.18-3.24,5.32-4.63,8.11-.24.47-.73.86-1.2,1.16-1.69,1.09-3.34,2.29-5.15,3.16-3.36,1.6-6.71,1.58-9.84-.73-.72-.53-1.43-1.09-2.22-1.52-2.29-1.26-3.12-3.13-2.5-5.63.57-2.28-.07-4.23-1.57-5.91-.87-.97-1.27-2.05-1.43-3.32-.13-.99-.5-1.94-.71-2.93-.21-.98-.5-1.97-.5-2.96.01-3.37-.18-6.72-.88-10.03-.12-.55-.15-1.11-.18-1.67-.1-1.86.35-3.5,1.58-4.99.84-1.02,1.5-2.22,2.09-3.41,1.38-2.81,2.56-5.72,4.01-8.48,2.38-4.52,3.09-9.31,2.65-14.32-.2-2.27-1.46-3.31-3.62-2.81-3.25.74-6.45.48-9.68.04-1.32-.18-2.68-.12-4.02-.12-.78,0-1.56.1-2.2.15ZM31.92,91.62c.1.9.15,1.34.21,1.78.34,2.43.61,4.88,1.04,7.3.31,1.75.55,3.6,1.34,5.14,1.76,3.47,3.96,6.7,5.1,10.48.32,1.05.98,2,1.54,2.97.72,1.25,1.62,2.42,2.21,3.72,1.15,2.54,2.33,5.05,3.86,7.39.87,1.33,1.27,2.84,1.36,4.44.08,1.39.62,2.6,1.59,3.61.9.95,2.01,1.39,3.32,1.32,1.12-.06,2.1-.58,2.23-1.67.24-2.08,1.58-3.39,2.84-4.81.66-.75,1.22-1.59,1.83-2.39.67-.89,1.34-1.78,2.01-2.67,1.21-1.6,2.56-3.11,3.6-4.82,1.01-1.66,2.24-3.06,3.66-4.34,1.66-1.49,3.3-3.02,5-4.47,1.95-1.68,3.94-3.3,5.92-4.94.69-.57,1.46-1.06,2.06-1.71,1.02-1.1.78-2.59-.46-3.49-.27-.19-.57-.35-.88-.49-2.25-1.06-3.57-2.93-4.6-5.1-.47-.99-1.03-1.98-1.74-2.8-2.15-2.46-4.76-4.39-7.56-6.08-1.07-.65-2.18-1.08-3.44-1.23-3.02-.34-5.89-1.19-8.73-2.28-1.96-.76-4.07-1.39-6.15-1.53-3.47-.23-6.88-.84-10.32-1.29-2.54-.33-4.46.55-5.42,2.88-.71,1.74-1.03,3.64-1.42,5.07Zm340.78-37.97c.62-4.3-1.19-7.42-4.59-9.82-.54-.38-.93-1.01-1.49-1.35-1.71-1.05-3.44-2.25-5.59-1.87-2.1.37-4.09,1.01-5.68,2.67-1.38,1.45-2.93,2.79-4.54,3.99-2.86,2.13-6.15,3.66-8.78,6.13-.32.3-.76.48-1.13.73-1.11.74-2.21,1.51-3.34,2.23-3.11,1.98-5.8,4.61-9.3,6-1.19.47-1.96,1.42-2.75,2.4-1.06,1.3-2.1,2.72-3.45,3.63-2.03,1.36-3.3,3.35-4.86,5.07-1.51,1.66-1.2,3.89.49,5.4,1.1.99,2.39,1.79,3.91,1.73,3.03-.11,5.67,1.19,8.4,2.17.72.26,1.51.62,2.01,1.17,1.66,1.84,3.81,2.6,6.09,3.32,2.23.7,4.6,1.49,6.02,3.47,1.79,2.5,4.01,4.48,6.41,6.32.79.61,1.63,1.16,2.43,1.76,1.62,1.19,3.27,2.33,4.83,3.6,1.04.85,1.92,1.89,2.89,2.81.83.78,1.77,1.38,2.94,1.5.94.1,1.87-.44,2.08-1.33.17-.76.21-1.55.24-2.33.07-1.45.01-2.92.16-4.37.43-4.23,2-8.26,2.14-12.55.02-.64.4-1.28.63-1.91.79-2.12,1.24-4.32,1.2-6.58-.04-2.6.36-5.13.88-7.66,1.11-5.39,1.27-10.88,1.7-16.31Zm-216.87,117.15c-3.4.04-5.97,1.55-7.69,4.48-1.24,2.13-2.25,4.31-2.26,6.89,0,1.19-.64,2.37-.8,3.58-.19,1.53-.37,3.11-.2,4.64.19,1.8,1.34,3.02,3.18,3.47,1.65.4,3.31.56,4.97.11,1.94-.52,3.84-1.2,5.8-1.61,2.76-.59,4.85-2.24,6.81-4.07,1.99-1.86,3.02-4.12,2.2-6.94-.22-.74-.17-1.57-.39-2.31-.22-.73-.51-1.51-1-2.07-1.6-1.87-3.3-3.61-5.5-4.85-1.62-.92-3.27-1.38-5.12-1.32Zm116.03,7.52c.05-7.22-5.17-12.16-12.22-11.36-3.5.4-6.72,1.69-8.75,4.93-.71,1.13-1.64,2.14-2.32,3.29-2.52,4.28-1.1,8.14,3.23,10.28,1.1.54,2.25,1,3.4,1.41.83.3,1.7.55,2.58.68,4.07.64,7.75-.68,11.24-2.54,1.63-.87,2.61-2.44,2.82-4.34.09-.77.01-1.56.01-2.35Zm-82.69,55.9c-1.51.21-2.85.35-4.17.6-3.52.68-7.1,1.16-10.52,2.18-3.96,1.18-7.76,2.86-11.65,4.29-1.21.45-2.15,1.19-2.83,2.26-.6.94-.11,2.2.97,2.36.65.1,1.36.13,1.99-.03,1.41-.36,2.81-.77,4.16-1.3,5.84-2.3,11.82-4.11,17.99-5.28,1.1-.21,2.2-.42,3.3-.65,1.3-.27,2.22-1.02,2.74-2.25.28-.66.06-1.43-.57-1.72-.5-.23-1.04-.35-1.42-.48Zm-32.58-22.62c-1.62-.16-2.32.2-2.61.93-.28.7.1,1.45,1.02,1.82,1.87.74,3.76,1.4,5.63,2.12,4.59,1.77,9.59,2.04,14.17,3.88.1.04.22.06.33.06,3.02.04,6.01.36,8.92,1.22.1.03.22,0,.33,0,.64,0,1.2-.67,1.15-1.38-.07-.94-.61-1.56-1.79-1.6-2.48-.08-4.86-.63-7.23-1.32-3.86-1.12-7.7-2.27-11.56-3.38-3-.86-6.01-1.69-8.36-2.34Zm113.72,34.29c1-.16,2.77-.41,4.52-.76.53-.11,1.17-.51.97-1.14-.14-.42-.75-.68-1.16-1-.08-.06-.21-.05-.32-.08-3.83-.82-7.66-1.62-11.48-2.45-1.38-.3-2.29-.16-2.41.45-.19.94.59,1.37,1.07,1.95,1.01,1.21,2.67,1.13,3.87,1.9,1.3.84,2.7,1.02,4.95,1.14Zm2.86-33.19c-.2-.3-.32-.7-.58-.81-.48-.22-1.08-.47-1.56-.37-2.69.58-4.83,2.24-7,3.8-.25.18-.37.88-.22,1.19.14.31.68.58,1.05.59.54.02,1.11-.12,1.62-.33,1.54-.65,3.07-1.33,4.57-2.06.6-.29,1.15-.7,1.66-1.13.23-.19.3-.56.46-.88Zm-19.95,27.99c1.43.03,2.65-.72,2.52-1.55-.15-.92-1.29-1.6-2.61-1.56-1.15.04-2.15.78-2.18,1.62-.03.76,1.03,1.45,2.27,1.48Zm8.57-22.85c-.17-.15-.39-.49-.65-.53-.85-.12-1.64.52-1.58,1.3.02.24.38.61.62.64.92.09,1.64-.53,1.61-1.41Z"/>
  <path class="cls-2" d="m279.04,341.45c-.16.35-.25.67-.32.67-.39-.02-.77-.12-1.16-.19.1-.23.19-.66.3-.66.37-.02.75.11,1.18.19Z"/>
  <path class="cls-1" d="m323.37,213.66c2.65-.43,5.15.31,7.63.97,2.69.72,5.45,1.29,7.75,3.07.59.45,1.41.66,2.16.84,1.7.39,3.05,1.27,4.29,2.49,1.19,1.18,2.51,2.23,3.82,3.28,1.34,1.08,2.4,2.33,2.88,4.03.15.54.25,1.15.58,1.56,1.76,2.14,2.21,4.87,3.37,7.28.77,1.6,1.14,3.37,2.43,4.73.71.75.76,1.79.69,2.85-.19,2.68-.22,5.37-.42,8.04-.3,3.91-.67,7.8-2.64,11.34-2.42,4.35-5.89,7.53-10.41,9.58-.41.18-.82.42-1.25.47-3.04.35-5.76,1.63-8.59,2.7-4.71,1.77-9.61,3.02-14.79,1.78-1.25-.3-2.68-.11-3.97.13-1.75.33-3.47.89-5.17,1.43-.86.27-1.65.73-2.57.27-1.25-.62-2.22-1.51-2.73-2.83-.16-.41-.25-.87-.27-1.31-.07-1.6-.94-2.7-2.16-3.61-2.43-1.82-4.83-3.68-8-4.01-1.26-.13-1.99-.96-2.51-1.99-.81-1.59-1.61-3.18-2.34-4.8-.22-.49-.37-1.09-.32-1.62.29-3.29-1.11-6.37-1.11-9.63,0-.77-.71-1.59-1.23-2.28-.92-1.24-2.72-2.02-2.75-3.66-.02-1.37.69-2.78,1.17-4.14,1.3-3.7,2.78-7.3,5.27-10.43,2.95-3.72,6.31-6.95,10.35-9.44,1.91-1.18,3.96-2.07,6.26-2.29,1.83-.18,3.47-.84,4.78-2.2,1.05-1.09,2.31-1.69,3.84-1.84,2-.19,3.98-.5,5.98-.76Zm-23.81,32.13c1.55-.63,2.8-1.3,3.47-2.66.16-.34.14-.93-.06-1.22-.19-.29-.75-.52-1.1-.47-.64.09-1.27.35-1.87.62-1.83.81-1.94,1.51-.45,3.74Z"/>
  <path class="cls-1" d="m96.01,280.06c-.7.35-1.31.48-1.65.86-1.24,1.39-2.67,1.29-4.3.89-2.68-.65-4.99-2.03-7.15-3.62-1.83-1.35-3.76-2.41-5.91-3.11-1.27-.42-2.5-.97-3.77-1.42-1.83-.64-3.07-1.84-3.51-3.74-.28-1.24-.94-2.23-1.6-3.28-1.24-1.98-2.49-3.97-3.05-6.32-.3-1.28-1.02-2.48-1.6-3.69-.62-1.28-.76-2.53-.13-3.87,1.33-2.84,1.71-5.78.89-8.85-.27-1.02-.17-2.03.39-2.92,1.55-2.44,2.71-5.21,5.18-6.93,3.48-2.43,6.59-5.38,10.32-7.46,2.65-1.47,5.29-3.01,8.34-3.48,4.2-.64,8.44-1.39,12.69-1.02,2.41.21,4.76,1.18,7.13,1.84.86.24,1.67.67,2.54.88,1.89.47,3.51,1.4,5.06,2.56,1.16.87,2.45,1.54,3.65,2.36,1.2.82,2.43,1.62,3.5,2.59,3.5,3.18,6.49,6.81,9.28,10.61.4.54.76,1.11,1.07,1.7,1.75,3.33,2.3,7,2.96,10.62.49,2.67-.81,5.04-1.52,7.48-1.31,4.53-3.76,8.28-7.8,10.98-1.86,1.24-3.47,2.83-5.69,3.48-.21.06-.45.14-.6.29-1.92,1.88-4.53,2.35-6.84,3.43-4.75,2.23-9.74,2.34-14.8,2.13-1.67-.07-1.88-.37-3.08-3Zm-21.74-29.52c-.28,0-.44-.05-.49,0-1.22,1.31-1.46,2.67-.71,4.14.08.16.38.34.53.31.29-.06.72-.22.79-.44.43-1.36.61-2.74-.12-4.02Zm1.02-1.8c.95-1.09,1.56-1.68,2.02-2.37.16-.25,0-.78-.16-1.11-.05-.1-.65-.08-.88.08-.95.65-1.48,1.52-.98,3.4Z"/>
  <path class="cls-1" d="m211.89,210.84c.65-.05,1.43-.15,2.2-.15,1.34,0,2.7-.07,4.02.12,3.24.44,6.44.7,9.68-.04,2.17-.49,3.42.54,3.62,2.81.43,5.01-.27,9.8-2.65,14.32-1.46,2.76-2.63,5.67-4.01,8.48-.59,1.19-1.25,2.4-2.09,3.41-1.23,1.48-1.68,3.13-1.58,4.99.03.56.06,1.13.18,1.67.7,3.31.89,6.65.88,10.03,0,.99.29,1.98.5,2.96.21.98.58,1.94.71,2.93.17,1.27.56,2.35,1.43,3.32,1.51,1.68,2.14,3.63,1.57,5.91-.62,2.5.21,4.38,2.5,5.63.78.43,1.49.99,2.22,1.52,3.13,2.3,6.48,2.33,9.84.73,1.81-.86,3.46-2.06,5.15-3.16.46-.3.96-.69,1.2-1.16,1.39-2.79,3.9-4.93,4.63-8.11.36-1.58,1.36-2.82,2.64-3.8.43-.33.97-.57,1.49-.71,1.09-.29,2.06.34,2.23,1.45.26,1.69.17,3.3-.78,4.86-.87,1.42-1.74,2.92-2.21,4.5-.79,2.69-1.73,5.29-2.96,7.82-.77,1.6-1.4,3.29-1.39,5.14,0,.65-.24,1.32-.45,1.95-.92,2.79-1.37,5.65-1.48,8.58-.03.77-.08,1.58-.32,2.31-.36,1.16-1.88,1.46-2.74.6-.39-.39-.77-.84-1.01-1.33-.95-1.9-1.9-3.8-2.76-5.74-.72-1.64-1.33-3.32-1.98-4.99-.82-2.1-2.29-3.2-4.62-3.19-2.27.02-4.4.04-6.27,1.76-1.51,1.39-3.5,1.13-5.18-.31-.76-.65-1.36-1.48-2.03-2.23-1.23-1.37-2.54-1.98-4.45-1.09-1.39.65-3,.85-4.52,1.19-1.64.36-3.29.69-4.94.98-2.77.5-5.51.78-8.27-.29-1.67-.65-3.31-.13-4.69,1.04-1.23,1.04-1.99,2.37-2.52,3.9-.61,1.8-1.36,3.55-2.1,5.3-.6,1.42-1.76,2.31-3.15,2.87-1.72.69-3.23.08-3.75-1.68-.82-2.79-1.71-5.62-1.03-8.58.53-2.29.19-4.5-.61-6.6-.74-1.93-1.1-3.87-1-5.9.11-2.3-.29-4.46-1.61-6.39-.13-.18-.19-.4-.3-.6-1.55-3.11-1.31-3.79,1.45-5.95,1.27-1,2.93-1.67,4.52-2.06,1.93-.48,3.17.68,2.82,2.59-.52,2.88.33,5.57.81,8.3.48,2.74,2.33,4.63,4.72,5.8,2.71,1.32,5.57,2.31,8.37,3.45.1.04.21.07.32.1,6.23,1.48,8.71-.08,12.37-4.88.07-.09.09-.2.15-.3.79-1.35,1.86-2.62,2.29-4.07.42-1.45.18-3.08.26-4.63.17-3.25.15-6.49-.49-9.71-.37-1.86-.45-3.78-.79-5.65-.58-3.19-1.24-6.36-1.91-9.53-.49-2.35-2.04-4.11-3.96-5.24-3.85-2.27-6.69-5.58-9.77-8.66-1.03-1.03-2.08-2.04-3.06-3.12-.67-.74-1.24-1.58-1.83-2.4-.88-1.21-.94-2.52-.26-3.81,1.21-2.31,2.8-4.17,5.25-5.45,3.65-1.91,7.38-2.5,11.52-1.79Zm6.69,4.91c-.89.07-2.12.13-3.34.29-.54.07-1.1.24-1.58.5-2.97,1.61-6.19,2.47-9.44,3.3-2.5.64-2.79,1.81-1.03,3.78.15.17.3.33.47.48,1.9,1.75,3.45,3.76,4.73,6.03.64,1.13,1.65,2.08,2.64,2.96.9.81,1.99,1.42,3,2.11,2.33,1.57,5.17,1.16,6.79-1.14,1.36-1.92,2.4-4.01,2.53-6.46.08-1.44.36-2.88.53-4.32.17-1.44.36-2.88.44-4.33.11-1.78-.66-2.74-2.4-3-.99-.15-2-.12-3.34-.19Zm-31.44,69.22c.06.58.03,1.05.18,1.44.15.38.47.92.77.96.47.07,1.14-.08,1.45-.4,1.1-1.14,1.68-2.57,1.82-4.15.08-.87-.66-1.77-1.49-1.93-.68-.13-1.65.31-1.9,1.02-.36,1.03-.58,2.11-.83,3.05Z"/>
  <path class="cls-1" d="m31.92,91.62c.39-1.43.71-3.33,1.42-5.07.95-2.33,2.87-3.21,5.42-2.88,3.44.45,6.84,1.06,10.32,1.29,2.08.14,4.19.77,6.15,1.53,2.84,1.1,5.72,1.94,8.73,2.28,1.26.14,2.37.58,3.44,1.23,2.8,1.68,5.4,3.61,7.56,6.08.72.82,1.28,1.81,1.74,2.8,1.03,2.17,2.35,4.04,4.6,5.1.3.14.61.3.88.49,1.24.89,1.48,2.38.46,3.49-.6.65-1.37,1.14-2.06,1.71-1.98,1.64-3.97,3.26-5.92,4.94-1.69,1.46-3.33,2.98-5,4.47-1.42,1.28-2.65,2.68-3.66,4.34-1.04,1.7-2.39,3.22-3.6,4.82-.67.89-1.34,1.78-2.01,2.67-.6.8-1.16,1.65-1.83,2.39-1.26,1.42-2.6,2.73-2.84,4.81-.13,1.1-1.11,1.61-2.23,1.67-1.31.07-2.41-.37-3.32-1.32-.96-1.01-1.51-2.23-1.59-3.61-.09-1.6-.5-3.11-1.36-4.44-1.53-2.34-2.71-4.85-3.86-7.39-.59-1.31-1.49-2.47-2.21-3.72-.56-.97-1.22-1.92-1.54-2.97-1.14-3.78-3.35-7.01-5.1-10.48-.78-1.55-1.02-3.4-1.34-5.14-.43-2.42-.7-4.86-1.04-7.3-.06-.44-.11-.89-.21-1.78Zm16.35-1.45c-4.02-.23-5.69,1.77-4.92,5.26.12.55.29,1.08.43,1.62.44,1.73,1,3.45,1.27,5.21.21,1.34.4,2.62,1.05,3.84.74,1.4,1.17,2.89.64,4.52-.36,1.12-.02,2.19.43,3.25.44,1.02.88,2.06,1.12,3.14.82,3.71,1.53,7.44,2.32,11.16.14.64.42,1.27.73,1.86.2.38.54.7.86,1.01.4.39,1.27.22,1.4-.3.14-.54.27-1.09.29-1.64.07-1.66.8-3.01,1.89-4.2.75-.83,1.53-1.64,2.31-2.44,4.08-4.16,8.33-8.12,12.88-11.75,1.7-1.36,2.95-3.06,4.03-4.89.66-1.12.23-2.26-.9-2.81-.4-.19-.82-.39-1.26-.47-2.9-.52-5.46-1.94-8.17-2.98-2.04-.78-3.76-1.94-5.25-3.5-.62-.65-1.28-1.26-1.92-1.88-2.71-2.66-6.32-3.16-9.25-4.02Z"/>
  <path class="cls-1" d="m372.7,53.65c-.43,5.43-.59,10.92-1.7,16.31-.52,2.53-.92,5.06-.88,7.66.04,2.26-.42,4.46-1.2,6.58-.23.63-.61,1.26-.63,1.91-.14,4.29-1.71,8.32-2.14,12.55-.15,1.45-.09,2.91-.16,4.37-.04.78-.07,1.57-.24,2.33-.21.9-1.14,1.43-2.08,1.33-1.17-.12-2.11-.72-2.94-1.5-.98-.92-1.86-1.97-2.89-2.81-1.56-1.27-3.21-2.41-4.83-3.6-.81-.59-1.64-1.15-2.43-1.76-2.4-1.84-4.62-3.82-6.41-6.32-1.42-1.98-3.8-2.77-6.02-3.47-2.28-.71-4.43-1.48-6.09-3.32-.5-.55-1.29-.91-2.01-1.17-2.73-.98-5.37-2.28-8.4-2.17-1.53.05-2.81-.74-3.91-1.73-1.68-1.51-1.99-3.74-.49-5.4,1.56-1.73,2.83-3.72,4.86-5.07,1.36-.91,2.4-2.33,3.45-3.63.79-.97,1.56-1.92,2.75-2.4,3.49-1.39,6.19-4.02,9.3-6,1.13-.72,2.22-1.49,3.34-2.23.37-.25.81-.43,1.13-.73,2.64-2.47,5.92-4,8.78-6.13,1.61-1.2,3.15-2.53,4.54-3.99,1.58-1.66,3.57-2.3,5.68-2.67,2.14-.38,3.87.83,5.59,1.87.56.34.94.97,1.49,1.35,3.39,2.4,5.21,5.52,4.59,9.82Zm-47.99,21.1c.83.38,1.3.66,1.81.82,2.46.77,4.91,1.55,7.4,2.23,1.88.52,3.55,1.23,4.79,2.85,1.25,1.63,2.95,2.71,4.94,3.32,3.09.95,5.5,2.9,7.68,5.24,2.75,2.95,5.56,5.83,8.37,8.71,1,1.03,2.43.82,3.05-.49.32-.68.53-1.5.51-2.25-.11-4.62.72-9.15,1.32-13.7.26-2,.55-4,1.05-5.95.53-2.07.85-4.15,1.18-6.25.42-2.64.66-5.31,1.62-7.87.7-1.86.95-3.92,1.2-5.91.45-3.64-1.01-6.27-4.21-7.95-.59-.31-1.17-.66-1.72-1.04-1.25-.84-2.42-.71-3.79-.11-3.95,1.74-7.31,4.31-10.58,7.04-1.29,1.07-2.69,2.02-3.89,3.18-1.27,1.23-2.62,2.51-3.45,4.04-.74,1.36-1.58,2.43-2.87,3.15-2.08,1.15-3.84,2.71-5.59,4.27-1.26,1.12-2.57,2.11-4.19,2.72-1.82.68-3.21,1.98-4.61,3.94Z"/>
  <path class="cls-1" d="m155.83,170.8c1.85-.06,3.5.4,5.12,1.32,2.2,1.24,3.9,2.98,5.5,4.85.48.57.77,1.35,1,2.07.23.74.18,1.56.39,2.31.82,2.82-.21,5.07-2.2,6.94-1.96,1.83-4.05,3.49-6.81,4.07-1.96.42-3.86,1.09-5.8,1.61-1.66.45-3.32.29-4.97-.11-1.84-.45-2.98-1.66-3.18-3.47-.16-1.52.01-3.1.2-4.64.15-1.21.79-2.39.8-3.58.01-2.58,1.02-4.77,2.26-6.89,1.71-2.93,4.28-4.45,7.69-4.48Z"/>
  <path class="cls-1" d="m271.85,178.32c0,.78.07,1.57-.01,2.35-.21,1.9-1.2,3.48-2.82,4.34-3.49,1.86-7.17,3.18-11.24,2.54-.87-.14-1.74-.38-2.58-.68-1.16-.42-2.31-.87-3.4-1.41-4.33-2.14-5.75-6-3.23-10.28.68-1.15,1.6-2.15,2.32-3.29,2.03-3.24,5.24-4.53,8.75-4.93,7.06-.81,12.28,4.13,12.22,11.36Z"/>
  <path class="cls-1" d="m189.16,234.22c.37.12.92.25,1.42.48.63.29.85,1.06.57,1.72-.52,1.23-1.44,1.97-2.74,2.25-1.1.23-2.2.44-3.3.65-6.17,1.17-12.15,2.97-17.99,5.28-1.35.53-2.76.94-4.16,1.3-.63.16-1.34.13-1.99.03-1.08-.16-1.57-1.42-.97-2.36.68-1.07,1.62-1.82,2.83-2.26,3.88-1.43,7.69-3.11,11.65-4.29,3.42-1.02,7-1.5,10.52-2.18,1.32-.25,2.66-.39,4.17-.6Z"/>
  <path class="cls-1" d="m156.59,211.6c2.34.66,5.36,1.48,8.36,2.34,3.86,1.11,7.71,2.26,11.56,3.38,2.36.68,4.74,1.23,7.23,1.32,1.18.04,1.73.66,1.79,1.6.05.71-.5,1.37-1.15,1.38-.11,0-.23.04-.33,0-2.91-.86-5.9-1.18-8.92-1.22-.11,0-.23-.02-.33-.06-4.57-1.84-9.57-2.11-14.17-3.88-1.87-.72-3.76-1.39-5.63-2.12-.92-.36-1.3-1.12-1.02-1.82.29-.73.99-1.09,2.61-.93Z"/>
  <path class="cls-1" d="m270.3,245.89c-2.24-.12-3.65-.3-4.95-1.14-1.2-.78-2.86-.7-3.87-1.9-.49-.58-1.26-1.01-1.07-1.95.12-.61,1.03-.75,2.41-.45,3.83.83,7.66,1.64,11.48,2.45.11.02.24.01.32.08.41.32,1.02.59,1.16,1,.21.63-.44,1.04-.97,1.14-1.75.35-3.52.6-4.52.76Z"/>
  <path class="cls-1" d="m273.16,212.7c-.16.32-.23.69-.46.88-.51.43-1.06.84-1.66,1.13-1.5.73-3.03,1.41-4.57,2.06-.5.21-1.08.36-1.62.33-.38-.02-.92-.29-1.05-.59-.14-.31-.03-1.01.22-1.19,2.17-1.56,4.31-3.22,7-3.8.48-.1,1.08.15,1.56.37.25.11.37.51.58.81Z"/>
  <path class="cls-1" d="m253.21,240.7c-1.24-.03-2.3-.72-2.27-1.48.04-.84,1.04-1.58,2.18-1.62,1.31-.04,2.46.64,2.61,1.56.13.83-1.09,1.58-2.52,1.55Z"/>
  <path class="cls-1" d="m261.78,217.84c.03.88-.69,1.5-1.61,1.41-.23-.02-.6-.4-.62-.64-.06-.77.72-1.42,1.58-1.3.26.04.48.38.65.53Z"/>
  <path class="cls-2" d="m299.56,245.79c-1.49-2.23-1.38-2.92.45-3.74.6-.27,1.23-.53,1.87-.62.35-.05.91.18,1.1.47.2.3.22.89.06,1.22-.66,1.37-1.92,2.03-3.47,2.66Z"/>
  <path class="cls-2" d="m74.27,250.55c.74,1.29.55,2.66.12,4.02-.07.22-.5.37-.79.44-.15.03-.45-.15-.53-.31-.75-1.47-.51-2.84.71-4.14.05-.05.21,0,.49,0Z"/>
  <path class="cls-2" d="m75.29,248.75c-.5-1.89.03-2.75.98-3.4.22-.15.83-.18.88-.08.16.33.32.87.16,1.11-.45.69-1.07,1.28-2.02,2.37Z"/>
  <path class="cls-2" d="m218.57,215.74c1.34.07,2.35.04,3.34.19,1.74.26,2.51,1.22,2.4,3-.09,1.45-.28,2.89-.44,4.33-.17,1.44-.45,2.87-.53,4.32-.14,2.45-1.18,4.53-2.53,6.46-1.62,2.3-4.46,2.71-6.79,1.14-1.01-.68-2.1-1.3-3-2.11-.98-.88-2-1.83-2.64-2.96-1.28-2.27-2.82-4.27-4.73-6.03-.16-.15-.32-.31-.47-.48-1.75-1.97-1.47-3.14,1.03-3.78,3.24-.83,6.47-1.69,9.44-3.3.48-.26,1.04-.44,1.58-.5,1.21-.15,2.44-.21,3.34-.29Z"/>
  <path class="cls-2" d="m187.13,284.96c.25-.94.47-2.02.83-3.05.25-.71,1.22-1.15,1.9-1.02.83.16,1.57,1.05,1.49,1.93-.14,1.58-.71,3.01-1.82,4.15-.31.32-.99.47-1.45.4-.31-.04-.62-.58-.77-.96-.16-.39-.12-.86-.18-1.44Z"/>
  <path class="cls-2" d="m48.28,90.16c2.93.86,6.54,1.35,9.25,4.02.64.63,1.3,1.24,1.92,1.88,1.49,1.56,3.21,2.72,5.25,3.5,2.71,1.04,5.27,2.46,8.17,2.98.43.08.86.27,1.26.47,1.13.55,1.56,1.68.9,2.81-1.08,1.83-2.34,3.53-4.03,4.89-4.55,3.63-8.81,7.6-12.88,11.75-.78.8-1.56,1.61-2.31,2.44-1.08,1.19-1.82,2.54-1.89,4.2-.02.55-.15,1.11-.29,1.64-.13.51-1,.69-1.4.3-.31-.31-.66-.63-.86-1.01-.31-.59-.59-1.22-.73-1.86-.79-3.72-1.5-7.45-2.32-11.16-.24-1.08-.68-2.12-1.12-3.14-.46-1.06-.79-2.14-.43-3.25.53-1.64.1-3.12-.64-4.52-.65-1.23-.84-2.5-1.05-3.84-.27-1.76-.83-3.47-1.27-5.21-.14-.54-.31-1.08-.43-1.62-.76-3.49.91-5.49,4.92-5.26Z"/>
  <path class="cls-2" d="m324.71,74.75c1.4-1.96,2.79-3.26,4.61-3.94,1.62-.61,2.94-1.59,4.19-2.72,1.75-1.57,3.51-3.12,5.59-4.27,1.29-.72,2.14-1.79,2.87-3.15.83-1.52,2.18-2.8,3.45-4.04,1.2-1.16,2.61-2.1,3.89-3.18,3.27-2.73,6.63-5.31,10.58-7.04,1.36-.6,2.54-.73,3.79.11.56.37,1.13.73,1.72,1.04,3.2,1.69,4.66,4.31,4.21,7.95-.25,1.99-.5,4.05-1.2,5.91-.96,2.57-1.2,5.24-1.62,7.87-.33,2.1-.65,4.18-1.18,6.25-.5,1.94-.8,3.95-1.05,5.95-.59,4.55-1.43,9.07-1.32,13.7.02.75-.19,1.57-.51,2.25-.62,1.31-2.05,1.52-3.05.49-2.81-2.89-5.63-5.77-8.37-8.71-2.18-2.33-4.59-4.28-7.68-5.24-1.99-.62-3.69-1.69-4.94-3.32-1.25-1.63-2.92-2.34-4.79-2.85-2.48-.68-4.94-1.46-7.4-2.23-.51-.16-.98-.44-1.81-.82Z"/>
</svg>