<?xml version="1.0" encoding="UTF-8"?>
<svg id="Capa_1" data-name="Capa 1" xmlns="http://www.w3.org/2000/svg" viewBox="0 0 579.56 509.26">
  <defs>
    <linearGradient id="linear" x1="0%" y1="0%" x2="100%" y2="0%">
    <stop offset="0%" stop-color="white"/>
    <stop offset="48%" stop-color="rgb(221, 186, 69)"/>
    <stop offset="80%" stop-color="rgb(147, 202, 247)"/>
    <stop offset="100%" stop-color="white"/>
  
  </linearGradient>
    <style>
      .cls-1 {
        fill: url(#linear);
      }

      .cls-1, .cls-2 {
        stroke: url(#linear);
        stroke-width: 4;
        stroke-miterlimit: 10;
      }

      .cls-2 {
        fill:  none;
      }
    </style>
  </defs>
  <path class="cls-2" d="m579.4,276.25c-.99-2.3-.85-4.72-1.13-7.11-.27-2.39-.65-4.81-1.4-7.08-1.38-4.18-1.9-8.47-2.22-12.8-.16-2.13-.51-4.09-1.5-6.02-1.84-3.57-3.73-7.13-4.61-11.12-.13-.61-.55-1.16-.88-1.71-1.53-2.56-1.48-4.93.95-6.88,1.52-1.22,1.67-2.76,1.16-4.35-.64-1.98-1.43-3.94-2.36-5.8-1.3-2.58-2.83-5.04-4.19-7.59-1.21-2.28-2.51-4.45-4.25-6.42-2.38-2.69-3.8-5.98-4.63-9.44-.6-2.5-.76-5.09-1.17-7.64-.54-3.4-.24-6.84.62-10.05.8-2.98,1.39-5.92,1.59-8.98.06-.95.43-1.88.61-2.82.73-3.78,1.66-7.54,2.09-11.36.27-2.46.84-4.68,1.93-6.89.91-1.85,1.62-3.87,1.98-5.9.88-4.91,1.49-9.86,2.27-14.79.17-1.1.47-2.23.94-3.23,2.76-5.81,3.18-12.06,3.62-18.33.28-4.01.74-8,1.16-12,.07-.63.24-1.29.53-1.85,1.1-2.09,1.08-4.34,1.09-6.6.01-2.26.05-4.51.14-6.77.34-8.36.71-16.73,1.05-25.09.17-4.18.46-8.36.43-12.54-.03-4.18-.35-8.36-.63-12.53-.36-5.27-1.55-10.19-6-13.72-1.38-1.1-2.5-2.54-3.89-3.61-1.91-1.46-3.89-2.88-6-4.03-2.83-1.54-5.75-1.58-8.83-.26-2.79,1.2-5.78,1.95-8.69,2.89-.76.25-1.54.45-2.29.73-3.47,1.29-6.95,2.55-10.38,3.94-2.08.84-4.22,1.68-6.07,2.91-1.89,1.25-3.86,2.27-5.83,3.35-3.53,1.94-7.2,3.6-10.7,5.54-4.21,2.34-8.03,5.36-12.14,7.89-5.07,3.13-9.47,7.25-14.88,9.85-.7.34-1.23,1.02-1.83,1.55-.84.74-1.59,1.66-2.54,2.2-2.72,1.53-4.86,3.71-7.05,5.85-1.73,1.69-3.26,3.65-5.19,5.05-3.47,2.51-6.05,5.75-8.49,9.17-2.01,2.82-4.59,4.95-7.69,6.46-.72.35-1.58.59-2.1,1.14-2.21,2.32-4.56,4.57-6.42,7.15-2.21,3.06-4.91,4.98-8.61,5.62-1.08.19-2.4.41-3.11,1.12-2.5,2.5-5.89,3.82-8.15,6.73-2.56,3.32-6.34,4.27-10.45,3.45-1.41-.28-2.79-.78-4.16-1.28-6.42-2.33-13.21-2.83-19.86-4-1.54-.27-3.19.16-4.8.21-2.08.07-4.17.24-6.23.07-3.21-.27-6.38-.88-9.59-1.16-1.74-.15-3.53-.01-5.28.15-4.48.43-8.95,1.18-13.44,1.36-4.83.2-9.62.34-14.4,1.34-3.28.69-6.73.5-10.1.81-6.41.58-12.81,1.23-19.22,1.83-1.28.12-2.58.07-3.86.21-3.8.41-7.74-.37-11.39,1.34-.28.13-.63.15-.95.14-4.23-.13-8.25,1.25-12.39,1.73-2.06.24-4.22-.11-6.24.28-6.18,1.2-12.4,1.69-18.67,1.96-1.55.07-3.13.71-4.58,1.35-2.12.93-4.22,1.28-6.56,1.11-4-.3-8.03-.28-12.05-.28-1.1,0-2.27.2-3.29.62-4.69,1.93-9.54,2.78-14.6,2.53-.79-.04-1.67-.03-2.37.29-5.54,2.52-11.57,3.96-16.39,8.07-2.95,2.52-6.48,4.28-10.49,4.56-2.76.2-4.85.89-5.99,3.87-.83,2.17-4.52,3.1-6.27,1.89-1.29-.89-2.54-2.08-3.29-3.42-.43-.77.22-2.12.32-3.21.03-.28-.19-.59-.28-.84-.96-.61-1.91-1.18-2.83-1.79-.52-.34-1.02-1.08-1.5-1.07-3.13.12-4.97-1.97-6.98-3.83-.58-.54-1.28-.99-2-1.35-4.34-2.21-8.24-5.03-11.86-8.26-1.54-1.37-3.23-2.1-5.31-1.55-2.22.59-4.1-.09-5.83-1.5-1-.81-2.26-1.35-3.11-2.27-2.03-2.21-4.16-4.01-7.42-3.8-.59.04-1.25-.3-1.82-.58-2.6-1.28-5.21-2.54-7.76-3.93-4.43-2.41-9.01-4.21-14.18-3.88-2.5.16-4.6-.71-6.78-2.01-4.27-2.55-8.79-4.69-13.24-6.95-2.29-1.17-4.61-2.28-6.96-3.32-1.15-.51-2.39-1.04-3.62-1.13-2.95-.22-5.14-1.67-7.08-3.73-.88-.93-1.71-2.13-2.82-2.57-4.45-1.77-8.77-4.16-13.87-3.57-1.92.22-3.87.36-5.79.27-3.45-.17-6.89-.48-10.33-.81-1.76.23-3.53.3-5.29.21-.24,1.97-1.32,3.47-2.77,4.96-2.35,2.41-4.46,5.06-6.56,7.7-2.89,3.63-3.6,7.82-2.9,12.33.25,1.59.51,3.18.68,4.78.65,6.24,1.23,12.49,4.36,18.13.31.55.39,1.23.62,1.82,2.48,6.32,3.97,12.92,5.57,19.49.54,2.23,1.38,4.29,2.79,6.1,1.31,1.68,2.2,3.53,2.7,5.61.71,2.96,1.42,5.94,2.33,8.84,2.68,8.6,5.42,17.17,8.22,25.73.61,1.88.89,3.71.81,5.68-.06,1.58-.13,3.41.58,4.71,1.43,2.64,2.23,5.31,2.21,8.28,0,.63.17,1.28.37,1.89,1.18,3.5,2.49,6.96,3.57,10.49,1.51,4.92,2.88,9.89,4.23,14.86.29,1.07.41,2.25.28,3.35-.33,2.87-.58,5.76-1.82,8.46-.66,1.45-1.2,3.01-1.5,4.58-.51,2.71-1.37,5.25-2.53,7.76-1.07,2.32-1.81,4.84-2.33,7.34-.64,3.08,0,3.89,3.18,5.37.24.11.36.5.32.43,0,2.74-.03,5.16,0,7.57.12,8.57-.9,17.03-2.47,25.43-.33,1.8-.33,3.51.56,5.17,1.09,2.04,1.37,4.23,1.31,6.54-.23,8.05-.47,16.11-.46,24.16,0,4.17.3,8.38.88,12.51.44,3.16,1.43,6.27,2.36,9.34.76,2.49.43,4.4-2.05,5.64-.21.11-.26.56-.55,1.24,1.16,3.5,1.95,7.57,3.8,11.07,3.08,5.83,6.15,11.65,8.67,17.75.36.87.7,1.75,1.12,2.8-2.07,1.99-2.67,4.38-1.87,7.04.27.91.71,1.78,1.18,2.61,1.11,1.96,2.62,3.76,3.38,5.83,1.95,5.28,5.31,9.94,6.71,15.46.19.74.76,1.41,1.22,2.06,1.5,2.1,2.96,4.22,4.56,6.24,1.4,1.76,2.78,3.64,4.54,4.98,1.98,1.51,3.56,3.32,4.9,5.29,2.85,4.19,6.56,7.53,10.36,10.75,4.42,3.74,9.06,7.22,13.54,10.9,2.81,2.31,5.86,3.99,9.54,4.26,2.16.16,4.02.95,5.81,2.14,2.56,1.7,5.29,3.02,8.28,3.87,1.83.52,3.63,1.27,5.31,2.18,2.98,1.61,5.89,3.25,9.3,3.92,1.51.3,2.93,1.25,4.31,2.05,1.67.97,3.22,2.14,4.9,3.1.96.55,2.04,1.17,3.09,1.22,3.37.15,6.15,1.75,9.02,3.22,1.56.8,3.18,1.63,4.88,2,4.28.92,8.32,2.45,12.34,4.14,1.62.68,3.39,1.02,5.09,1.5.93.26,2.01.27,2.77.77,3.55,2.32,7.66,2.56,11.61,2.83,3.58.25,6.56,1.31,9.28,3.5,2.13,1.73,4.52,2.36,7.24,1.7,4.48-1.1,8.97.15,13.46.02.61-.02,1.3.2,1.85.5,2.23,1.21,4.65,1.06,7.06,1.25,4.81.38,9.66.66,14.37,1.62,3.32.68,6.38.75,9.41-.57,1.87-.81,3.66-1.07,5.63-.54,1.08.29,2.21.49,3.33.55,2.14.12,4.12.62,5.93,1.82,2.09,1.37,4.47,1.68,6.91,1.89,4.17.35,8.32.89,12.48,1.31,2.56.26,5.12.49,7.69.65,8.2.52,16.41.85,24.59,1.56,3.69.32,6.92-.23,10.2-2,3.21-1.74,6.63-3.34,10.55-2.61.77.14,1.6-.05,2.4-.12,5.77-.5,11.54-.95,17.31-1.53,4.83-.49,9.65-.32,14.47-.14,3.28.12,6.4-.45,9.38-1.86,2.47-1.17,4.96-2.29,7.5-3.28,1.48-.57,3.11-1.25,4.62-1.14,3.85.28,7.27-1.23,10.73-2.3,2.79-.86,5.53-1.63,8.43-1.91,1.6-.15,3.22-.34,4.77-.76,4.98-1.33,9.94-2.73,14.88-4.18,3.39-1,6.7-2.33,10.13-3.13,3.79-.88,7.33-2.37,10.94-3.72,4.22-1.58,8.41-3.47,12.79-4.33,4.5-.89,8.59-2.66,12.79-4.26.45-.17.9-.36,1.32-.6,1.84-1.09,2.24-2.47,1.33-4.46-.38-.83-.78-1.66-1.06-2.26.74-1.72,2.02-1.95,3.25-2.37,3.02-1.03,6.11-2,8.74-3.8,2.82-1.93,5.79-3.44,8.97-4.62,1.5-.56,2.99-1.18,4.41-1.92,5.85-3.04,11.74-6.02,17.47-9.28,2.77-1.57,5.37-3.54,7.75-5.66,1.2-1.07,2.7-2.57,1.93-4.6-.42-1.11-2.9-.66-5.23.93-2.65,1.81-5.26,3.67-7.91,5.48-1.76,1.2-3.63,1.92-6.1,1.26.24-.79.24-1.55.61-1.9.93-.87,1.93-1.87,3.09-2.24,2.86-.91,5.14-2.57,7.23-4.64.67-.66,1.56-1.15,2.42-1.57,2.49-1.22,3.93-3.23,4.7-5.83.82-2.77,1.71-5.53,2.58-8.29.24-.76.44-1.56.8-2.27.84-1.65,2.27-2.62,3.3-2.36,1.03.26,1.34,1.9.57,3.87-.52,1.35-1.26,2.61-1.86,3.93-.46,1.02-1.02,2.05-1.22,3.13-.15.83.18,1.76.36,3.03,1.02-.46,1.41-.51,1.58-.73,3.31-4.18,6.17-8.67,8.3-13.54,1.93-4.41,3.35-9.05,5.23-13.49,1.39-3.28,2.59-6.59,3.28-10.09.81-4.1,2.36-8.04,2.46-12.29.02-.93.49-1.86.83-2.76.99-2.55,2.08-5.06,3.02-7.63,1.21-3.31,2.78-6.5,2.77-10.18,0-1.38.66-2.78,1.1-4.15,1.62-5.05,3.5-10.02,3.82-15.41.22-3.69.54-7.39,1.04-11.05.4-2.9.63-5.73-.12-8.62-.45-1.74-.15-3.48.63-5.17,2.49-5.38,3.44-10.99,2.49-16.92-.58-3.68-.58-7.38.79-10.97.4-1.04.57-2.18.73-3.29.11-.77.27-1.67-.01-2.33Z"/>
  <path class="cls-1" d="m579.4,276.25c-.99-2.3-.85-4.72-1.13-7.11-.27-2.39-.65-4.81-1.4-7.08-1.38-4.18-1.9-8.47-2.22-12.8-.16-2.13-.51-4.09-1.5-6.02-1.84-3.57-3.73-7.13-4.61-11.12-.13-.61-.55-1.16-.88-1.71-1.53-2.56-1.48-4.93.95-6.88,1.52-1.22,1.67-2.76,1.16-4.35-.64-1.98-1.43-3.94-2.36-5.8-1.3-2.58-2.83-5.04-4.19-7.59-1.21-2.28-2.51-4.45-4.25-6.42-2.38-2.69-3.8-5.98-4.63-9.44-.6-2.5-.76-5.09-1.17-7.64-.54-3.4-.24-6.84.62-10.05.8-2.98,1.39-5.92,1.59-8.98.06-.95.43-1.88.61-2.82.73-3.78,1.66-7.54,2.09-11.36.27-2.46.84-4.68,1.93-6.89.91-1.85,1.62-3.87,1.98-5.9.88-4.91,1.49-9.86,2.27-14.79.17-1.1.47-2.23.94-3.23,2.76-5.81,3.18-12.06,3.62-18.33.28-4.01.74-8,1.16-12,.07-.63.24-1.29.53-1.85,1.1-2.09,1.08-4.34,1.09-6.6.01-2.26.05-4.51.14-6.77.34-8.36.71-16.73,1.05-25.09.17-4.18.46-8.36.43-12.54-.03-4.18-.35-8.36-.63-12.53-.36-5.27-1.55-10.19-6-13.72-1.38-1.1-2.5-2.54-3.89-3.61-1.91-1.46-3.89-2.88-6-4.03-2.83-1.54-5.75-1.58-8.83-.26-2.79,1.2-5.78,1.95-8.69,2.89-.76.25-1.54.45-2.29.73-3.47,1.29-6.95,2.55-10.38,3.94-2.08.84-4.22,1.68-6.07,2.91-1.89,1.25-3.86,2.27-5.83,3.35-3.53,1.94-7.2,3.6-10.7,5.54-4.21,2.34-8.03,5.36-12.14,7.89-5.07,3.13-9.47,7.25-14.88,9.85-.7.34-1.23,1.02-1.83,1.55-.84.74-1.59,1.66-2.54,2.2-2.72,1.53-4.86,3.71-7.05,5.85-1.73,1.69-3.26,3.65-5.19,5.05-3.47,2.51-6.05,5.75-8.49,9.17-2.01,2.82-4.59,4.95-7.69,6.46-.72.35-1.58.59-2.1,1.14-2.21,2.32-4.56,4.57-6.42,7.15-2.21,3.06-4.91,4.98-8.61,5.62-1.08.19-2.4.41-3.11,1.12-2.5,2.5-5.89,3.82-8.15,6.73-2.56,3.32-6.34,4.27-10.45,3.45-1.41-.28-2.79-.78-4.16-1.28-6.42-2.33-13.21-2.83-19.86-4-1.54-.27-3.19.16-4.8.21-2.08.07-4.17.24-6.23.07-3.21-.27-6.38-.88-9.59-1.16-1.74-.15-3.53-.01-5.28.15-4.48.43-8.95,1.18-13.44,1.36-4.83.2-9.62.34-14.4,1.34-3.28.69-6.73.5-10.1.81-6.41.58-12.81,1.23-19.22,1.83-1.28.12-2.58.07-3.86.21-3.8.41-7.74-.37-11.39,1.34-.28.13-.63.15-.95.14-4.23-.13-8.25,1.25-12.39,1.73-2.06.24-4.22-.11-6.24.28-6.18,1.2-12.4,1.69-18.67,1.96-1.55.07-3.13.71-4.58,1.35-2.12.93-4.22,1.28-6.56,1.11-4-.3-8.03-.28-12.05-.28-1.1,0-2.27.2-3.29.62-4.69,1.93-9.54,2.78-14.6,2.53-.79-.04-1.67-.03-2.37.29-5.54,2.52-11.57,3.96-16.39,8.07-2.95,2.52-6.48,4.28-10.49,4.56-2.76.2-4.85.89-5.99,3.87-.83,2.17-4.52,3.1-6.27,1.89-1.29-.89-2.54-2.08-3.29-3.42-.43-.77.22-2.12.32-3.21.03-.28-.19-.59-.28-.84-.96-.61-1.91-1.18-2.83-1.79-.52-.34-1.02-1.08-1.5-1.07-3.13.12-4.97-1.97-6.98-3.83-.58-.54-1.28-.99-2-1.35-4.34-2.21-8.24-5.03-11.86-8.26-1.54-1.37-3.23-2.1-5.31-1.55-2.22.59-4.1-.09-5.83-1.5-1-.81-2.26-1.35-3.11-2.27-2.03-2.21-4.16-4.01-7.42-3.8-.59.04-1.25-.3-1.82-.58-2.6-1.28-5.21-2.54-7.76-3.93-4.43-2.41-9.01-4.21-14.18-3.88-2.5.16-4.6-.71-6.78-2.01-4.27-2.55-8.79-4.69-13.24-6.95-2.29-1.17-4.61-2.28-6.96-3.32-1.15-.51-2.39-1.04-3.62-1.13-2.95-.22-5.14-1.67-7.08-3.73-.88-.93-1.71-2.13-2.82-2.57-4.45-1.77-8.77-4.16-13.87-3.57-1.92.22-3.87.36-5.79.27-3.45-.17-6.89-.48-10.33-.81-1.76.23-3.53.3-5.29.21-.24,1.97-1.32,3.47-2.77,4.96-2.35,2.41-4.46,5.06-6.56,7.7-2.89,3.63-3.6,7.82-2.9,12.33.25,1.59.51,3.18.68,4.78.65,6.24,1.23,12.49,4.36,18.13.31.55.39,1.23.62,1.82,2.48,6.32,3.97,12.92,5.57,19.49.54,2.23,1.38,4.29,2.79,6.1,1.31,1.68,2.2,3.53,2.7,5.61.71,2.96,1.42,5.94,2.33,8.84,2.68,8.6,5.42,17.17,8.22,25.73.61,1.88.89,3.71.81,5.68-.06,1.58-.13,3.41.58,4.71,1.43,2.64,2.23,5.31,2.21,8.28,0,.63.17,1.28.37,1.89,1.18,3.5,2.49,6.96,3.57,10.49,1.51,4.92,2.88,9.89,4.23,14.86.29,1.07.41,2.25.28,3.35-.33,2.87-.58,5.76-1.82,8.46-.66,1.45-1.2,3.01-1.5,4.58-.51,2.71-1.37,5.25-2.53,7.76-1.07,2.32-1.81,4.84-2.33,7.34-.64,3.08,0,3.89,3.18,5.37.24.11.36.5.32.43,0,2.74-.03,5.16,0,7.57.12,8.57-.9,17.03-2.47,25.43-.33,1.8-.33,3.51.56,5.17,1.09,2.04,1.37,4.23,1.31,6.54-.23,8.05-.47,16.11-.46,24.16,0,4.17.3,8.38.88,12.51.44,3.16,1.43,6.27,2.36,9.34.76,2.49.43,4.4-2.05,5.64-.21.11-.26.56-.55,1.24,1.16,3.5,1.95,7.57,3.8,11.07,3.08,5.83,6.15,11.65,8.67,17.75.36.87.7,1.75,1.12,2.8-2.07,1.99-2.67,4.38-1.87,7.04.27.91.71,1.78,1.18,2.61,1.11,1.96,2.62,3.76,3.38,5.83,1.95,5.28,5.31,9.94,6.71,15.46.19.74.76,1.41,1.22,2.06,1.5,2.1,2.96,4.22,4.56,6.24,1.4,1.76,2.78,3.64,4.54,4.98,1.98,1.51,3.56,3.32,4.9,5.29,2.85,4.19,6.56,7.53,10.36,10.75,4.42,3.74,9.06,7.22,13.54,10.9,2.81,2.31,5.86,3.99,9.54,4.26,2.16.16,4.02.95,5.81,2.14,2.56,1.7,5.29,3.02,8.28,3.87,1.83.52,3.63,1.27,5.31,2.18,2.98,1.61,5.89,3.25,9.3,3.92,1.51.3,2.93,1.25,4.31,2.05,1.67.97,3.22,2.14,4.9,3.1.96.55,2.04,1.17,3.09,1.22,3.37.15,6.15,1.75,9.02,3.22,1.56.8,3.18,1.63,4.88,2,4.28.92,8.32,2.45,12.34,4.14,1.62.68,3.39,1.02,5.09,1.5.93.26,2.01.27,2.77.77,3.55,2.32,7.66,2.56,11.61,2.83,3.58.25,6.56,1.31,9.28,3.5,2.13,1.73,4.52,2.36,7.24,1.7,4.48-1.1,8.97.15,13.46.02.61-.02,1.3.2,1.85.5,2.23,1.21,4.65,1.06,7.06,1.25,4.81.38,9.66.66,14.37,1.62,3.32.68,6.38.75,9.41-.57,1.87-.81,3.66-1.07,5.63-.54,1.08.29,2.21.49,3.33.55,2.14.12,4.12.62,5.93,1.82,2.09,1.37,4.47,1.68,6.91,1.89,4.17.35,8.32.89,12.48,1.31,2.56.26,5.12.49,7.69.65,8.2.52,16.41.85,24.59,1.56,3.69.32,6.92-.23,10.2-2,3.21-1.74,6.63-3.34,10.55-2.61.77.14,1.6-.05,2.4-.12,5.77-.5,11.54-.95,17.31-1.53,4.83-.49,9.65-.32,14.47-.14,3.28.12,6.4-.45,9.38-1.86,2.47-1.17,4.96-2.29,7.5-3.28,1.48-.57,3.11-1.25,4.62-1.14,3.85.28,7.27-1.23,10.73-2.3,2.79-.86,5.53-1.63,8.43-1.91,1.6-.15,3.22-.34,4.77-.76,4.98-1.33,9.94-2.73,14.88-4.18,3.39-1,6.7-2.33,10.13-3.13,3.79-.88,7.33-2.37,10.94-3.72,4.22-1.58,8.41-3.47,12.79-4.33,4.5-.89,8.59-2.66,12.79-4.26.45-.17.9-.36,1.32-.6,1.84-1.09,2.24-2.47,1.33-4.46-.38-.83-.78-1.66-1.06-2.26.74-1.72,2.02-1.95,3.25-2.37,3.02-1.03,6.11-2,8.74-3.8,2.82-1.93,5.79-3.44,8.97-4.62,1.5-.56,2.99-1.18,4.41-1.92,5.85-3.04,11.74-6.02,17.47-9.28,2.77-1.57,5.37-3.54,7.75-5.66,1.2-1.07,2.7-2.57,1.93-4.6-.42-1.11-2.9-.66-5.23.93-2.65,1.81-5.26,3.67-7.91,5.48-1.76,1.2-3.63,1.92-6.1,1.26.24-.79.24-1.55.61-1.9.93-.87,1.93-1.87,3.09-2.24,2.86-.91,5.14-2.57,7.23-4.64.67-.66,1.56-1.15,2.42-1.57,2.49-1.22,3.93-3.23,4.7-5.83.82-2.77,1.71-5.53,2.58-8.29.24-.76.44-1.56.8-2.27.84-1.65,2.27-2.62,3.3-2.36,1.03.26,1.34,1.9.57,3.87-.52,1.35-1.26,2.61-1.86,3.93-.46,1.02-1.02,2.05-1.22,3.13-.15.83.18,1.76.36,3.03,1.02-.46,1.41-.51,1.58-.73,3.31-4.18,6.17-8.67,8.3-13.54,1.93-4.41,3.35-9.05,5.23-13.49,1.39-3.28,2.59-6.59,3.28-10.09.81-4.1,2.36-8.04,2.46-12.29.02-.93.49-1.86.83-2.76.99-2.55,2.08-5.06,3.02-7.63,1.21-3.31,2.78-6.5,2.77-10.18,0-1.38.66-2.78,1.1-4.15,1.62-5.05,3.5-10.02,3.82-15.41.22-3.69.54-7.39,1.04-11.05.4-2.9.63-5.73-.12-8.62-.45-1.74-.15-3.48.63-5.17,2.49-5.38,3.44-10.99,2.49-16.92-.58-3.68-.58-7.38.79-10.97.4-1.04.57-2.18.73-3.29.11-.77.27-1.67-.01-2.33Zm-178.68,215.62c-.56-.03-1.11-.17-1.66-.28.14-.33.27-.95.43-.95.54-.03,1.08.16,1.7.27-.24.5-.36.97-.46.96Zm171.88-207.54c-3.67.79-3.96,3.48-3.54,6.34.89,5.93.61,11.9.84,17.85.14,3.64-.21,7.07-2.72,9.99-1.01,1.17-1.03,2.6-.89,4.12.31,3.36.54,6.74.67,10.11.13,3.22.16,6.43-1.52,9.42-.53.94-.53,2.17-.79,3.27-.61,2.66-.96,5.41-3.09,7.46-.44.42-.65,1.11-.87,1.71-2.27,6.36-5.06,12.56-6.11,19.29-.36,2.3-1.02,4.32-2.47,6.17-1.39,1.77-2.59,3.72-2,6.68-2.76.54-3.95,2.09-4.88,4.12-1.9,4.17-5.25,7.3-8.21,10.69-1.39,1.59-2.44,3.26-3.33,5.22-1.52,3.35-3.31,6.7-5.63,9.51-2.27,2.74-4.3,5.62-6.3,8.53-2.13,3.09-4.73,5.7-7.49,8.17-5.16,4.62-10.37,9.18-15.53,13.8-3.11,2.78-6.55,5.19-8.96,8.73-1.65,2.43-4.47,3.27-7.18,3.55-4.64.49-8.57,2.37-12.54,4.66-3.17,1.82-6.81,2.87-10.32,4.01-3.08,1-5.81,2.12-8.14,4.72-2.09,2.33-5.33,3.56-8.54,4.24-.79.17-1.7.08-2.37.44-5.98,3.25-12.77,2.97-19.16,4.36-3.52.76-6.87,1.73-9.85,3.76-3.16,2.16-6.56,3.19-10.44,3.21-2.87.01-5.75.62-8.6,1.1-2.53.43-4.77.23-6.69-1.73-1.56-1.59-3.42-1.59-5.33-.56-.42.23-.89.41-1.26.72-3.98,3.35-8.95,4.11-13.76,5.33-5.98,1.51-12.02,2.07-18.19,2.03-3.68-.02-7.38.58-11.06,1.02-1.09.13-2.13.71-3.21,1.03-2.31.69-4.62,1.36-6.94,2-2.07.57-4.13.5-6.21,0-1.25-.3-2.6-.79-3.79-.57-4.29.76-8.62.55-12.92.84-3.25.22-6.43.39-9.56-.66-1.86-.62-3.73-.97-5.7-.46-2.09.54-3.91,0-5.05-1.88-1.16-1.92-2.89-2.33-4.92-2.44-6.11-.32-12.22-.69-18.33-1.12-4.34-.3-8.64-.79-12.88-1.91-2.15-.57-4.44-.8-6.67-.8-4.57,0-8.97-.79-13.32-2.06-1.38-.4-2.82-.74-4.24-.79-4.54-.18-8.92-.96-13.21-2.5-1.95-.7-4.08-.93-6.14-1.3-1.63-.3-3.19-.02-4.67.78-2.26,1.21-4.73,1.18-7.08.56-6.06-1.59-12.08-3.35-18.11-5.09-1.08-.31-2.17-.69-3.12-1.27-3.56-2.15-7.68-2.36-11.57-3.09-2.64-.49-5.39-.66-8.06-1.27-4.3-.98-8.17-2.87-11.93-5.12-4.84-2.89-9.77-5.62-14.69-8.37-1.26-.7-2.65-1.17-3.93-1.82-2.14-1.1-4.29-2.19-6.36-3.41-2.77-1.63-5.56-3.24-8.17-5.1-6.02-4.3-11.92-8.76-17.88-13.14-.65-.48-1.27-1.1-2.01-1.33-3.93-1.23-6.34-4.16-8.8-7.22-2.11-2.63-4.63-4.93-7.05-7.29-1.9-1.85-3.17-4.01-4.04-6.5-.58-1.66-1.42-3.23-2.07-4.87-1.19-2.99-2.7-5.92-3.37-9.02-.69-3.21-1.87-6.12-3.21-9.06-.79-1.73-1.38-3.62-1.69-5.49-.43-2.53-.62-5.12-.68-7.69-.03-1.4.42-2.81.65-4.24-.39-.59-.68-1.18-1.11-1.64-1.4-1.48-2.11-3.2-2.07-5.24.04-1.83-.61-3.43-1.48-5.03-.76-1.39-1.34-2.92-1.77-4.45-1.13-4.02-2.47-8.03-3.13-12.13-1.02-6.35-1.83-12.76-2.2-19.17-.41-7.07-.26-14.17-.25-21.26,0-2.08.33-4.16.54-6.24.13-1.28.47-2.56.46-3.83-.04-3.09.19-6.08,1.49-8.97.5-1.12.44-2.52.47-3.8.09-3.71.3-7.43.07-11.12-.33-5.35.41-10.64,1.07-15.87.52-4.08,2.31-7.99,3.56-11.98.72-2.29,1.47-4.57,2.19-6.86.48-1.53.9-3.08,1.36-4.62.69-2.28.61-4.44-.81-6.46-.46-.66-.85-1.37-1.32-2.02-4-5.56-6.37-11.88-8.67-18.24-1.19-3.3-2.57-6.49-3.19-10.05-.57-3.26-2.11-6.4-3.52-9.46-3.71-8.07-6.5-16.45-8.97-24.96-.31-1.07-.59-2.25-1.23-3.11-1.88-2.54-2.54-5.56-3.52-8.43-1.71-5.02-3.22-10.12-4.68-15.22-.61-2.15-.92-4.38-1.32-6.59-.23-1.27-.1-2.64-.55-3.81-1.58-4.09-2.28-8.37-3.13-12.62-.16-.79-.25-1.66-.66-2.31-3.05-4.9-2.78-10.48-3.36-15.88-.28-2.56-.33-5.14-.7-7.69-.6-4.12-.45-8,2.22-11.51.75-.98,1.15-2.3,1.44-3.53.68-2.85,2.57-4.43,5.22-5.13,4.28-1.14,8.65-1.38,12.83.25,3.48,1.35,7.04,2.23,10.66,3.03,2.03.45,4.07,1.09,5.94,1.97,5.37,2.54,10.82,4.99,15.68,8.44,3.15,2.23,6.68,3.62,10.32,3.7,4.72.11,8.25,2.43,11.85,4.78,4.58,2.99,8.98,6.24,13.5,9.33.64.44,1.44.76,2.2.86,5.5.75,10.53,2.69,15.15,5.76,3.49,2.32,6.94,4.7,10.55,6.81,4.17,2.43,8.43,4.7,12.76,6.83,3.17,1.56,5.94,3.87,9.43,4.84,1.37.38,2.04,1.64,1.78,3.07-.36,2-.05,3.86.8,5.64.76,1.6,2.04,2.43,3.87,2.32,3.37-.19,6.74-.4,10.11-.52,2-.07,3.78-.55,5.37-1.85,2.53-2.07,5.49-3.3,8.56-4.35,2.73-.94,5.45-1.96,8.06-3.19,1.95-.92,3.9-1.45,6.05-1.38,2.79.1,5.45-.41,7.93-1.75.7-.38,1.47-.71,2.24-.86,5.84-1.14,11.71-2.12,17.52-3.39,3.12-.68,6.14-1.86,9.22-2.76,1.38-.4,2.79-.69,4.19-1.03,2.65-.64,5.43-.98,7.92-2.02,2.85-1.2,5.77-2.2,8.75-2.62,3.94-.55,7.98-.59,11.97-.52,2.11.03,4.14.14,6.19-.51,1.53-.48,3.13-.82,4.72-.98,2.12-.22,4.1-.77,5.97-1.8,2.01-1.12,4.13-1.42,6.47-1.44,5.62-.04,11.28-.14,16.83-.9,7.34-1.01,14.69-1.9,22.07-2.4,5.28-.36,10.62-.03,15.92.25,3.69.2,7.35.88,11.03,1.26,2.26.23,4.48.23,6.39-1.43,2.08-1.81,4.79-1.96,7.31-2.07,6.11-.27,12.21-.37,18.27,1.09,4.83,1.16,9.69,2.29,14.75,2.29,3.04,0,6.09.53,9.12.95,2.5.34,4.83.1,6.92-1.4,4.57-3.29,9.59-5.93,13.86-9.65.48-.42,1.11-.71,1.5-1.2,2.68-3.37,6.18-5.56,10.05-7.33,1.12-.51,2.13-1.48,2.91-2.47,1.8-2.26,3.4-4.68,5.16-6.98.77-1,1.65-1.97,2.63-2.75,2.27-1.79,4.66-3.44,6.97-5.18,2.61-1.96,4.92-4.15,5.99-7.38.99-3,3.58-4.46,6.06-5.97,2.19-1.34,4.45-2.57,6.68-3.85.42-.24.81-.6,1.26-.7,6.7-1.54,11.29-6.63,16.92-9.98,2.76-1.65,5.43-3.45,8.11-5.23,1.2-.8,2.3-1.75,3.49-2.55,2.93-1.97,5.73-4.24,8.88-5.76,3.38-1.63,6.55-3.52,9.42-5.83,4.05-3.26,8.56-5.73,12.99-8.35,1.2-.71,2.39-.82,3.7-.48.93.25,1.88.43,2.83.59,1.32.22,2.4-.08,3.55-.97,3.93-3.02,7.1-2.74,10.66.76,1.15,1.13,2.25,2.31,3.33,3.51,2.9,3.2,4.53,6.89,4.99,11.26.74,6.91,1.33,13.78.21,20.71-.28,1.71-.03,3.54.17,5.29.38,3.22.44,6.39-.22,9.61-.38,1.87-.59,3.91-.22,5.75.84,4.23.03,8.34-.36,12.49-.11,1.12-.57,2.29-.37,3.35,1.14,5.97-1.29,11.38-2.47,16.98-1.39,6.59-3.41,13.05-3.69,19.86-.14,3.28-1.03,6.34-3.57,8.72-2.13,1.98-3.15,4.62-3.04,7.4.28,6.89-1.69,13.38-3.09,19.98-.33,1.57-.57,3.17-.86,4.75-.17.95-.16,1.99-.57,2.82-1.76,3.56-2.14,7.36-2.53,11.23-.27,2.7-.92,5.41-1.72,8.01-.7,2.28-.56,4.35.13,6.6,2.48,8,5.6,15.76,8.59,23.57.4,1.05.7,2.15.89,3.25,1.24,7.01,3.29,13.77,6.1,20.31.44,1.02.57,2.17.89,3.25,1.22,4.17,2.39,8.35,3.74,12.48.38,1.17,1.13,2.37,2.04,3.2,1.91,1.75,2.78,3.93,3.13,6.36.56,3.83,1.67,7.53,2.55,11.28.87,3.73.93,7.65,1.27,11.5.09,1.03-.47,2.08-1.45,2.29Z"/>
  <path class="cls-2" d="m550.13,386.73c-2.76.54-3.95,2.09-4.88,4.12-1.9,4.17-5.25,7.3-8.21,10.69-1.39,1.59-2.44,3.26-3.33,5.22-1.52,3.35-3.31,6.7-5.63,9.51-2.27,2.74-4.3,5.62-6.3,8.53-2.13,3.09-4.73,5.7-7.49,8.17-5.16,4.62-10.37,9.18-15.53,13.8-3.11,2.78-6.55,5.19-8.96,8.73-1.65,2.43-4.47,3.27-7.18,3.55-4.64.49-8.57,2.37-12.54,4.66-3.17,1.82-6.81,2.87-10.32,4.01-3.08,1-5.81,2.12-8.14,4.72-2.09,2.33-5.33,3.56-8.54,4.24-.79.17-1.7.08-2.37.44-5.98,3.25-12.77,2.97-19.16,4.36-3.52.76-6.87,1.73-9.85,3.76-3.16,2.16-6.56,3.19-10.44,3.21-2.87.01-5.75.62-8.6,1.1-2.53.43-4.77.23-6.69-1.73-1.56-1.59-3.42-1.59-5.33-.56-.42.23-.89.41-1.26.72-3.98,3.35-8.95,4.11-13.76,5.33-5.98,1.51-12.02,2.07-18.19,2.03-3.68-.02-7.38.58-11.06,1.02-1.09.13-2.13.71-3.21,1.03-2.31.69-4.62,1.36-6.94,2-2.07.57-4.13.5-6.21,0-1.25-.3-2.6-.79-3.79-.57-4.29.76-8.62.55-12.92.84-3.25.22-6.43.39-9.56-.66-1.86-.62-3.73-.97-5.7-.46-2.09.54-3.91,0-5.05-1.88-1.16-1.92-2.89-2.33-4.92-2.44-6.11-.32-12.22-.69-18.33-1.12-4.34-.3-8.64-.79-12.88-1.91-2.15-.57-4.44-.8-6.67-.8-4.57,0-8.97-.79-13.32-2.06-1.38-.4-2.82-.74-4.24-.79-4.54-.18-8.92-.96-13.21-2.5-1.95-.7-4.08-.93-6.14-1.3-1.63-.3-3.19-.02-4.67.78-2.26,1.21-4.73,1.18-7.08.56-6.06-1.59-12.08-3.35-18.11-5.09-1.08-.31-2.17-.69-3.12-1.27-3.56-2.15-7.68-2.36-11.57-3.09-2.64-.49-5.39-.66-8.06-1.27-4.3-.98-8.17-2.87-11.93-5.12-4.84-2.89-9.77-5.62-14.69-8.37-1.26-.7-2.65-1.17-3.93-1.82-2.14-1.1-4.29-2.19-6.36-3.41-2.77-1.63-5.56-3.24-8.17-5.1-6.02-4.3-11.92-8.76-17.88-13.14-.65-.48-1.27-1.1-2.01-1.33-3.93-1.23-6.34-4.16-8.8-7.22-2.11-2.63-4.63-4.93-7.05-7.29-1.9-1.85-3.17-4.01-4.04-6.5-.58-1.66-1.42-3.23-2.07-4.87-1.19-2.99-2.7-5.92-3.37-9.02-.69-3.21-1.87-6.12-3.21-9.06-.79-1.73-1.38-3.62-1.69-5.49-.43-2.53-.62-5.12-.68-7.69-.03-1.4.42-2.81.65-4.24-.39-.59-.68-1.18-1.11-1.64-1.4-1.48-2.11-3.2-2.07-5.24.04-1.83-.61-3.43-1.48-5.03-.76-1.39-1.34-2.92-1.77-4.45-1.13-4.02-2.47-8.03-3.13-12.13-1.02-6.35-1.83-12.76-2.2-19.17-.41-7.07-.26-14.17-.25-21.26,0-2.08.33-4.16.54-6.24.13-1.28.47-2.56.46-3.83-.04-3.09.19-6.08,1.49-8.97.5-1.12.44-2.52.47-3.8.09-3.71.3-7.43.07-11.12-.33-5.35.41-10.64,1.07-15.87.52-4.08,2.31-7.99,3.56-11.98.72-2.29,1.47-4.57,2.19-6.86.48-1.53.9-3.08,1.36-4.62.69-2.28.61-4.44-.81-6.46-.46-.66-.85-1.37-1.32-2.02-4-5.56-6.37-11.88-8.67-18.24-1.19-3.31-2.57-6.49-3.19-10.05-.57-3.26-2.11-6.4-3.52-9.46-3.71-8.07-6.5-16.45-8.97-24.96-.31-1.07-.59-2.25-1.23-3.11-1.88-2.54-2.54-5.56-3.52-8.43-1.71-5.02-3.22-10.12-4.68-15.22-.61-2.15-.92-4.38-1.32-6.59-.23-1.27-.1-2.64-.55-3.81-1.58-4.09-2.28-8.37-3.13-12.62-.16-.79-.25-1.66-.66-2.31-3.05-4.9-2.78-10.48-3.36-15.88-.27-2.56-.33-5.14-.7-7.69-.6-4.12-.45-8,2.22-11.51.75-.98,1.15-2.3,1.44-3.53.68-2.85,2.57-4.43,5.22-5.13,4.28-1.14,8.65-1.38,12.83.25,3.48,1.35,7.04,2.23,10.66,3.03,2.03.45,4.07,1.09,5.94,1.97,5.37,2.54,10.82,4.99,15.68,8.44,3.15,2.23,6.68,3.62,10.32,3.7,4.72.11,8.25,2.43,11.85,4.78,4.58,2.99,8.98,6.24,13.5,9.33.64.44,1.44.76,2.2.86,5.5.75,10.53,2.69,15.15,5.76,3.49,2.32,6.94,4.7,10.55,6.81,4.17,2.43,8.44,4.7,12.76,6.83,3.17,1.56,5.94,3.87,9.43,4.84,1.37.38,2.04,1.64,1.78,3.07-.36,2-.05,3.86.8,5.64.76,1.6,2.04,2.43,3.87,2.32,3.37-.19,6.74-.4,10.11-.52,2-.07,3.78-.55,5.37-1.85,2.53-2.07,5.49-3.3,8.56-4.35,2.73-.94,5.45-1.96,8.06-3.19,1.95-.92,3.9-1.45,6.05-1.38,2.79.1,5.45-.41,7.93-1.75.7-.38,1.47-.71,2.24-.86,5.84-1.14,11.71-2.12,17.52-3.39,3.12-.68,6.14-1.86,9.22-2.76,1.38-.4,2.79-.69,4.19-1.03,2.65-.64,5.43-.98,7.92-2.02,2.85-1.2,5.77-2.2,8.75-2.62,3.94-.55,7.98-.59,11.97-.52,2.11.03,4.14.14,6.19-.51,1.53-.48,3.13-.82,4.72-.98,2.12-.22,4.1-.77,5.97-1.8,2.01-1.12,4.13-1.42,6.47-1.44,5.62-.04,11.28-.14,16.83-.9,7.34-1.01,14.69-1.9,22.07-2.4,5.28-.36,10.62-.03,15.92.25,3.69.2,7.35.88,11.03,1.26,2.26.23,4.48.23,6.39-1.43,2.08-1.81,4.79-1.96,7.31-2.07,6.11-.27,12.21-.37,18.27,1.09,4.83,1.16,9.69,2.29,14.75,2.29,3.04,0,6.09.53,9.12.95,2.5.34,4.83.1,6.92-1.4,4.57-3.29,9.59-5.93,13.86-9.65.48-.42,1.11-.71,1.5-1.2,2.68-3.37,6.18-5.56,10.05-7.33,1.12-.51,2.13-1.48,2.91-2.47,1.8-2.26,3.4-4.68,5.16-6.98.77-1,1.65-1.97,2.63-2.75,2.27-1.79,4.66-3.44,6.97-5.18,2.61-1.96,4.92-4.15,5.99-7.38.99-3,3.58-4.46,6.06-5.97,2.19-1.34,4.45-2.57,6.68-3.86.42-.24.81-.6,1.26-.7,6.7-1.54,11.29-6.63,16.92-9.98,2.76-1.65,5.43-3.45,8.11-5.23,1.2-.8,2.3-1.75,3.49-2.55,2.93-1.97,5.73-4.24,8.88-5.76,3.38-1.63,6.55-3.52,9.42-5.83,4.05-3.26,8.56-5.73,12.99-8.35,1.2-.71,2.39-.82,3.7-.48.93.25,1.88.43,2.83.59,1.32.22,2.4-.08,3.55-.97,3.93-3.02,7.1-2.74,10.66.76,1.15,1.13,2.25,2.31,3.33,3.51,2.9,3.2,4.53,6.89,4.99,11.26.74,6.91,1.33,13.78.21,20.71-.28,1.71-.03,3.54.17,5.29.38,3.22.44,6.39-.22,9.61-.38,1.87-.59,3.91-.22,5.75.84,4.23.03,8.34-.36,12.49-.11,1.12-.57,2.29-.37,3.35,1.14,5.97-1.29,11.38-2.47,16.98-1.39,6.59-3.41,13.05-3.69,19.86-.14,3.28-1.03,6.34-3.57,8.72-2.13,1.98-3.15,4.62-3.04,7.4.28,6.89-1.69,13.38-3.09,19.98-.33,1.57-.57,3.17-.86,4.75-.17.95-.16,1.99-.57,2.82-1.76,3.56-2.14,7.36-2.53,11.23-.27,2.7-.92,5.41-1.72,8.01-.7,2.28-.56,4.35.13,6.6,2.48,8,5.6,15.76,8.59,23.57.4,1.05.7,2.15.89,3.25,1.24,7.01,3.29,13.77,6.1,20.31.44,1.02.57,2.17.89,3.25,1.22,4.17,2.39,8.35,3.74,12.48.38,1.17,1.13,2.37,2.04,3.2,1.91,1.75,2.78,3.93,3.13,6.36.56,3.83,1.67,7.53,2.55,11.28.87,3.73.93,7.65,1.27,11.5.09,1.03-.47,2.08-1.45,2.29-3.67.79-3.96,3.48-3.54,6.34.89,5.93.61,11.9.84,17.85.14,3.64-.21,7.07-2.72,9.99-1.01,1.17-1.03,2.6-.89,4.12.31,3.36.54,6.74.67,10.11.13,3.22.16,6.43-1.52,9.42-.53.94-.53,2.17-.79,3.27-.61,2.66-.96,5.41-3.09,7.46-.44.42-.65,1.11-.87,1.71-2.27,6.36-5.06,12.56-6.11,19.29-.36,2.3-1.02,4.32-2.47,6.17-1.39,1.77-2.59,3.72-2,6.68Zm-85.21-79.54c-2.86.37-5.72.83-8.59,1.1-2.2.21-4.02,1.07-5.53,2.64-1.88,1.96-4.23,2.92-6.87,3.17-3.3.32-6.25,1.59-8.99,3.29-5.8,3.58-10.63,8.23-14.88,13.57-3.58,4.51-5.7,9.67-7.58,15-.69,1.95-1.71,3.98-1.68,5.95.04,2.37,2.63,3.49,3.95,5.27.74,1,1.76,2.18,1.76,3.28,0,4.69,2.02,9.12,1.6,13.85-.07.76.14,1.63.47,2.33,1.06,2.33,2.21,4.62,3.37,6.9.76,1.49,1.79,2.68,3.61,2.86,4.56.47,8.01,3.16,11.5,5.77,1.75,1.31,3.01,2.88,3.11,5.19.03.63.16,1.29.39,1.88.73,1.89,2.13,3.17,3.93,4.06,1.33.66,2.46,0,3.69-.39,2.45-.78,4.92-1.58,7.44-2.06,1.86-.35,3.92-.62,5.71-.19,7.44,1.78,14.48-.01,21.26-2.56,4.07-1.53,7.97-3.37,12.34-3.88.62-.07,1.21-.42,1.8-.68,6.5-2.95,11.49-7.51,14.97-13.77,2.83-5.09,3.36-10.69,3.8-16.3.3-3.85.34-7.71.61-11.56.11-1.52.03-3.02-.99-4.1-1.85-1.96-2.38-4.51-3.49-6.81-1.67-3.46-2.31-7.39-4.85-10.46-.48-.58-.62-1.47-.84-2.24-.68-2.44-2.21-4.23-4.14-5.79-1.87-1.52-3.77-3.03-5.49-4.72-1.77-1.75-3.72-3.02-6.16-3.58-1.08-.25-2.26-.55-3.11-1.2-3.31-2.55-7.27-3.38-11.14-4.41-3.57-.95-7.16-2.01-10.97-1.4Zm-326.89,95.46c1.72,3.78,2.03,4.22,4.43,4.32,7.27.29,14.46.14,21.28-3.07,3.33-1.56,7.08-2.23,9.84-4.93.22-.21.56-.32.87-.41,3.19-.93,5.51-3.22,8.18-5,5.81-3.88,9.33-9.28,11.21-15.79,1.01-3.5,2.88-6.91,2.18-10.75-.95-5.22-1.74-10.49-4.26-15.27-.45-.85-.97-1.67-1.54-2.45-4.01-5.46-8.31-10.69-13.34-15.26-1.54-1.4-3.31-2.54-5.03-3.72-1.72-1.18-3.58-2.15-5.24-3.4-2.22-1.66-4.55-3-7.27-3.68-1.24-.31-2.41-.92-3.65-1.27-3.4-.95-6.78-2.35-10.25-2.65-6.11-.53-12.21.55-18.25,1.47-4.37.67-8.18,2.88-11.99,5-5.37,2.99-9.83,7.23-14.84,10.72-3.55,2.48-5.22,6.46-7.45,9.97-.81,1.27-.96,2.72-.57,4.2,1.18,4.4.63,8.64-1.28,12.72-.9,1.93-.7,3.72.19,5.57.84,1.74,1.86,3.46,2.3,5.3.8,3.38,2.6,6.24,4.38,9.09.95,1.52,1.9,2.93,2.3,4.72.63,2.73,2.42,4.45,5.05,5.38,1.82.64,3.58,1.44,5.42,2.04,3.1,1.01,5.87,2.53,8.5,4.47,3.11,2.29,6.43,4.26,10.28,5.2,2.34.57,4.4.72,6.19-1.28.48-.54,1.36-.73,2.37-1.24Zm166.6-99.53c-5.95-1.03-11.3-.18-16.56,2.57-3.52,1.84-5.8,4.51-7.54,7.83-.97,1.85-.89,3.74.38,5.47.85,1.17,1.67,2.38,2.63,3.44,1.4,1.55,2.92,3.01,4.4,4.49,4.44,4.42,8.51,9.19,14.05,12.45,2.76,1.62,4.98,4.15,5.69,7.53.95,4.56,1.91,9.12,2.74,13.7.49,2.69.61,5.45,1.14,8.13.92,4.63.95,9.28.71,13.96-.11,2.23.23,4.58-.38,6.66-.62,2.09-2.16,3.91-3.29,5.85-.08.14-.12.31-.22.43-5.26,6.9-8.83,9.15-17.79,7.01-.16-.04-.31-.08-.46-.14-4.02-1.63-8.14-3.06-12.03-4.95-3.43-1.67-6.08-4.4-6.78-8.33-.7-3.93-1.92-7.8-1.17-11.94.5-2.75-1.28-4.41-4.05-3.73-2.29.56-4.67,1.53-6.5,2.96-3.97,3.11-4.32,4.09-2.08,8.56.14.29.24.61.42.87,1.91,2.78,2.48,5.88,2.32,9.19-.14,2.93.38,5.71,1.44,8.49,1.16,3.01,1.64,6.2.88,9.49-.99,4.26.29,8.33,1.47,12.33.75,2.53,2.92,3.4,5.39,2.41,1.99-.8,3.66-2.08,4.52-4.13,1.06-2.52,2.14-5.04,3.02-7.62.75-2.2,1.85-4.1,3.62-5.6,1.98-1.68,4.34-2.43,6.74-1.5,3.97,1.54,7.91,1.13,11.89.42,2.38-.43,4.75-.89,7.1-1.41,2.19-.49,4.5-.77,6.5-1.7,2.75-1.29,4.62-.41,6.4,1.56.97,1.08,1.83,2.28,2.92,3.21,2.42,2.07,5.28,2.45,7.45.45,2.69-2.47,5.75-2.51,9.01-2.54,3.36-.03,5.46,1.55,6.65,4.58.94,2.4,1.81,4.82,2.85,7.17,1.24,2.79,2.6,5.53,3.97,8.26.35.7.9,1.34,1.46,1.91,1.24,1.24,3.42.8,3.94-.86.33-1.05.41-2.21.45-3.32.15-4.21.8-8.33,2.13-12.34.3-.91.66-1.87.65-2.8-.02-2.67.89-5.1,2-7.4,1.76-3.63,3.12-7.37,4.25-11.24.66-2.27,1.92-4.42,3.17-6.47,1.36-2.23,1.49-4.55,1.12-6.98-.25-1.6-1.65-2.5-3.21-2.08-.76.2-1.53.54-2.15,1.02-1.83,1.41-3.27,3.19-3.79,5.46-1.05,4.57-4.66,7.65-6.65,11.66-.34.68-1.06,1.24-1.72,1.67-2.43,1.57-4.8,3.3-7.4,4.54-4.83,2.31-9.64,2.27-14.14-1.04-1.04-.76-2.06-1.57-3.19-2.19-3.29-1.8-4.48-4.51-3.59-8.1.81-3.27-.1-6.08-2.26-8.49-1.25-1.4-1.82-2.95-2.06-4.77-.19-1.42-.72-2.8-1.02-4.21-.3-1.41-.72-2.84-.71-4.26.01-4.85-.25-9.66-1.26-14.41-.17-.78-.21-1.6-.26-2.4-.15-2.67.5-5.03,2.27-7.17,1.21-1.46,2.16-3.19,3.01-4.91,1.98-4.03,3.67-8.22,5.77-12.19,3.43-6.5,4.44-13.39,3.81-20.58-.28-3.27-2.09-4.75-5.21-4.04-4.67,1.06-9.27.69-13.92.05-1.9-.26-3.85-.17-5.77-.17-1.12,0-2.24.15-3.17.22ZM45.89,131.72c.15,1.29.21,1.93.3,2.57.48,3.5.87,7.02,1.49,10.49.45,2.51.8,5.17,1.92,7.4,2.52,4.99,5.7,9.64,7.34,15.07.46,1.51,1.41,2.88,2.21,4.27,1.03,1.8,2.33,3.47,3.18,5.35,1.65,3.66,3.36,7.26,5.55,10.63,1.25,1.92,1.83,4.08,1.96,6.39.11,1.99.9,3.74,2.29,5.19,1.3,1.36,2.89,2.01,4.77,1.9,1.61-.09,3.02-.83,3.21-2.41.35-2.99,2.27-4.88,4.08-6.92.96-1.08,1.76-2.29,2.63-3.44.97-1.28,1.93-2.56,2.9-3.84,1.74-2.3,3.68-4.48,5.17-6.93,1.45-2.38,3.22-4.4,5.26-6.23,2.39-2.15,4.75-4.34,7.18-6.43,2.8-2.41,5.67-4.74,8.51-7.1.99-.82,2.09-1.53,2.95-2.46,1.46-1.59,1.13-3.73-.66-5.01-.39-.28-.82-.51-1.26-.71-3.23-1.52-5.13-4.21-6.61-7.33-.67-1.42-1.48-2.85-2.51-4.03-3.09-3.54-6.84-6.31-10.86-8.74-1.54-.93-3.14-1.56-4.95-1.76-4.34-.49-8.47-1.7-12.55-3.29-2.82-1.09-5.86-2-8.85-2.19-5-.33-9.89-1.21-14.83-1.86-3.66-.48-6.42.8-7.79,4.15-1.02,2.5-1.49,5.23-2.04,7.29Zm489.94-54.59c.89-6.18-1.71-10.67-6.59-14.11-.78-.55-1.33-1.45-2.14-1.95-2.46-1.5-4.95-3.24-8.03-2.69-3.02.54-5.89,1.45-8.16,3.84-1.99,2.09-4.21,4.01-6.52,5.73-4.12,3.06-8.84,5.26-12.63,8.82-.46.43-1.09.69-1.62,1.05-1.6,1.07-3.17,2.18-4.8,3.21-4.47,2.85-8.34,6.62-13.36,8.62-1.71.68-2.81,2.05-3.95,3.45-1.52,1.86-3.01,3.91-4.96,5.22-2.92,1.95-4.74,4.81-6.99,7.3-2.17,2.39-1.72,5.59.7,7.76,1.59,1.43,3.43,2.57,5.63,2.49,4.36-.16,8.16,1.72,12.08,3.12,1.04.37,2.18.89,2.89,1.68,2.39,2.64,5.48,3.74,8.76,4.77,3.2,1,6.62,2.15,8.66,4.99,2.58,3.59,5.77,6.45,9.22,9.09,1.14.87,2.34,1.67,3.5,2.52,2.33,1.71,4.71,3.35,6.94,5.17,1.49,1.22,2.76,2.71,4.16,4.04,1.19,1.13,2.54,1.98,4.23,2.16,1.35.14,2.69-.63,2.99-1.92.25-1.09.3-2.23.35-3.35.1-2.09.02-4.2.23-6.28.62-6.08,2.88-11.88,3.07-18.04.03-.92.57-1.84.91-2.74,1.13-3.05,1.79-6.21,1.73-9.46-.06-3.74.52-7.38,1.27-11.02,1.59-7.75,1.82-15.64,2.44-23.45ZM224.03,245.56c-4.89.05-8.59,2.23-11.05,6.44-1.79,3.06-3.23,6.2-3.25,9.91,0,1.72-.93,3.41-1.14,5.14-.28,2.21-.53,4.48-.29,6.67.28,2.59,1.92,4.34,4.57,4.98,2.37.58,4.76.81,7.15.17,2.79-.75,5.52-1.72,8.34-2.32,3.97-.84,6.97-3.22,9.78-5.86,2.87-2.68,4.35-5.92,3.17-9.98-.31-1.07-.24-2.25-.57-3.32-.32-1.05-.74-2.17-1.43-2.98-2.3-2.68-4.75-5.18-7.9-6.97-2.33-1.32-4.71-1.98-7.36-1.9Zm166.81,10.82c.08-10.39-7.43-17.49-17.58-16.33-5.04.58-9.66,2.43-12.58,7.09-1.02,1.63-2.35,3.07-3.33,4.73-3.63,6.15-1.59,11.7,4.64,14.78,1.58.78,3.23,1.43,4.89,2.03,1.2.43,2.45.79,3.7.98,5.85.92,11.14-.98,16.16-3.65,2.34-1.25,3.75-3.51,4.06-6.25.12-1.11.02-2.25.02-3.37Zm-118.88,80.36c-2.17.31-4.1.5-5.99.87-5.06.98-10.2,1.67-15.12,3.14-5.69,1.7-11.16,4.11-16.75,6.17-1.74.64-3.09,1.72-4.07,3.25-.87,1.36-.15,3.16,1.4,3.39.94.14,1.96.18,2.86-.05,2.02-.51,4.05-1.1,5.99-1.87,8.39-3.31,16.99-5.91,25.86-7.59,1.58-.3,3.17-.6,4.74-.93,1.86-.39,3.19-1.46,3.94-3.23.4-.95.09-2.06-.82-2.47-.72-.33-1.5-.51-2.04-.69Zm-46.84-32.52c-2.33-.24-3.34.29-3.75,1.33-.4,1,.14,2.09,1.47,2.61,2.68,1.06,5.4,2.02,8.09,3.05,6.6,2.55,13.79,2.93,20.37,5.58.15.06.31.09.47.09,4.35.06,8.64.51,12.82,1.75.15.04.32,0,.48,0,.93-.01,1.72-.97,1.65-1.99-.09-1.36-.88-2.25-2.57-2.3-3.57-.12-6.99-.91-10.39-1.89-5.54-1.61-11.07-3.26-16.62-4.86-4.31-1.24-8.65-2.43-12.02-3.37Zm163.49,49.3c1.44-.24,3.98-.6,6.5-1.1.76-.15,1.69-.74,1.39-1.65-.2-.6-1.08-.98-1.67-1.44-.11-.09-.31-.08-.47-.11-5.5-1.17-11.01-2.33-16.51-3.52-1.99-.43-3.29-.24-3.47.65-.27,1.35.84,1.97,1.54,2.8,1.46,1.74,3.83,1.62,5.56,2.74,1.86,1.2,3.88,1.47,7.11,1.64Zm4.11-47.72c-.29-.43-.47-1.01-.83-1.17-.7-.32-1.56-.68-2.24-.53-3.87.83-6.94,3.22-10.07,5.46-.36.26-.53,1.26-.32,1.71.2.44.98.83,1.52.85.77.03,1.6-.18,2.32-.48,2.22-.93,4.41-1.92,6.58-2.97.86-.42,1.65-1,2.39-1.62.32-.27.43-.8.66-1.26Zm-28.68,40.25c2.06.05,3.82-1.03,3.63-2.22-.21-1.32-1.86-2.3-3.75-2.24-1.65.06-3.09,1.12-3.14,2.33-.05,1.09,1.48,2.09,3.26,2.13Zm12.32-32.85c-.25-.21-.56-.7-.93-.76-1.23-.17-2.35.75-2.27,1.86.03.34.55.88.89.91,1.32.13,2.35-.76,2.31-2.02Z"/>
  <path class="cls-2" d="m401.18,490.91c-.24.5-.36.97-.46.96-.56-.03-1.11-.17-1.66-.28.14-.33.27-.95.43-.95.54-.03,1.08.16,1.7.27Z"/>
  <path class="cls-1" d="m464.92,307.19c3.81-.61,7.4.45,10.97,1.4,3.87,1.03,7.83,1.86,11.14,4.41.85.65,2.03.95,3.11,1.2,2.44.56,4.39,1.83,6.16,3.58,1.71,1.69,3.61,3.2,5.49,4.72,1.92,1.56,3.46,3.35,4.14,5.79.22.77.36,1.66.84,2.24,2.54,3.07,3.18,7,4.85,10.46,1.11,2.3,1.64,4.84,3.49,6.81,1.02,1.08,1.1,2.58.99,4.1-.27,3.85-.31,7.72-.61,11.56-.43,5.62-.97,11.21-3.8,16.3-3.48,6.26-8.47,10.82-14.97,13.77-.58.26-1.18.61-1.8.68-4.37.51-8.27,2.35-12.34,3.88-6.78,2.55-13.82,4.34-21.26,2.56-1.79-.43-3.85-.16-5.71.19-2.52.47-4.99,1.28-7.44,2.06-1.23.39-2.37,1.05-3.69.39-1.8-.89-3.19-2.17-3.93-4.06-.23-.59-.36-1.25-.39-1.88-.1-2.3-1.36-3.88-3.11-5.19-3.49-2.61-6.94-5.29-11.5-5.77-1.82-.19-2.85-1.38-3.61-2.86-1.16-2.28-2.31-4.57-3.37-6.9-.32-.71-.53-1.57-.47-2.33.42-4.73-1.6-9.16-1.6-13.85,0-1.1-1.02-2.28-1.76-3.28-1.32-1.78-3.91-2.9-3.95-5.27-.03-1.97.99-4,1.68-5.95,1.87-5.32,4-10.49,7.58-15,4.25-5.34,9.08-9.99,14.88-13.57,2.75-1.7,5.7-2.97,8.99-3.29,2.63-.25,4.99-1.21,6.87-3.17,1.5-1.57,3.32-2.43,5.53-2.64,2.87-.27,5.73-.72,8.59-1.1Zm-34.24,46.19c2.23-.91,4.03-1.86,4.98-3.83.23-.48.21-1.33-.08-1.76-.27-.41-1.07-.74-1.58-.67-.92.12-1.82.51-2.68.89-2.63,1.17-2.79,2.17-.64,5.37Z"/>
  <path class="cls-1" d="m138.03,402.65c-1.01.51-1.88.7-2.37,1.24-1.79,2-3.85,1.85-6.19,1.28-3.85-.94-7.17-2.92-10.28-5.2-2.64-1.94-5.4-3.46-8.5-4.47-1.83-.6-3.6-1.4-5.42-2.04-2.63-.93-4.42-2.65-5.05-5.38-.41-1.78-1.36-3.2-2.3-4.72-1.78-2.85-3.57-5.7-4.38-9.09-.44-1.85-1.47-3.56-2.3-5.3-.89-1.85-1.09-3.64-.19-5.57,1.91-4.08,2.46-8.32,1.28-12.72-.39-1.47-.24-2.92.57-4.2,2.23-3.51,3.9-7.49,7.45-9.97,5.01-3.49,9.47-7.74,14.84-10.72,3.8-2.12,7.61-4.33,11.99-5,6.05-.93,12.14-2,18.25-1.47,3.47.3,6.85,1.69,10.25,2.65,1.24.35,2.41.96,3.65,1.27,2.72.67,5.05,2.01,7.27,3.68,1.66,1.25,3.53,2.22,5.24,3.4,1.72,1.18,3.49,2.33,5.03,3.72,5.02,4.57,9.32,9.8,13.34,15.26.57.78,1.09,1.6,1.54,2.45,2.52,4.78,3.31,10.06,4.26,15.27.7,3.83-1.17,7.25-2.18,10.75-1.88,6.51-5.41,11.91-11.21,15.79-2.67,1.78-4.99,4.07-8.18,5-.31.09-.65.2-.87.41-2.76,2.71-6.51,3.37-9.84,4.93-6.82,3.2-14.01,3.36-21.28,3.07-2.39-.1-2.71-.53-4.43-4.32Zm-31.26-42.44c-.4,0-.63-.07-.7,0-1.75,1.88-2.1,3.84-1.02,5.96.12.23.55.49.76.44.42-.09,1.04-.32,1.13-.63.61-1.96.88-3.93-.18-5.78Zm1.47-2.59c1.37-1.56,2.25-2.41,2.9-3.41.23-.35,0-1.12-.24-1.6-.07-.14-.94-.11-1.26.11-1.37.94-2.12,2.18-1.4,4.89Z"/>
  <path class="cls-1" d="m304.63,303.12c.93-.07,2.05-.22,3.17-.22,1.93,0,3.88-.09,5.77.17,4.65.64,9.25,1.01,13.92-.05,3.11-.71,4.92.77,5.21,4.04.62,7.2-.39,14.08-3.81,20.58-2.1,3.97-3.79,8.15-5.77,12.19-.84,1.72-1.79,3.44-3.01,4.91-1.77,2.13-2.42,4.5-2.27,7.17.04.8.09,1.62.26,2.4,1,4.76,1.27,9.57,1.26,14.41,0,1.42.41,2.85.71,4.26.3,1.41.83,2.79,1.02,4.21.24,1.82.8,3.38,2.06,4.77,2.17,2.41,3.08,5.22,2.26,8.49-.89,3.59.3,6.3,3.59,8.1,1.12.62,2.15,1.42,3.19,2.19,4.5,3.31,9.31,3.35,14.14,1.04,2.6-1.24,4.97-2.96,7.4-4.54.66-.43,1.38-.99,1.72-1.67,2-4.01,5.6-7.09,6.65-11.66.52-2.27,1.96-4.05,3.79-5.46.62-.47,1.39-.82,2.15-1.02,1.56-.41,2.96.49,3.21,2.08.38,2.43.25,4.75-1.12,6.98-1.25,2.05-2.51,4.19-3.17,6.47-1.13,3.87-2.49,7.61-4.25,11.24-1.11,2.29-2.02,4.73-2,7.4,0,.93-.35,1.89-.65,2.8-1.33,4.01-1.97,8.12-2.13,12.34-.04,1.11-.12,2.27-.45,3.32-.52,1.66-2.71,2.1-3.94.86-.56-.56-1.1-1.2-1.46-1.91-1.37-2.73-2.73-5.47-3.97-8.26-1.04-2.35-1.91-4.78-2.85-7.17-1.18-3.03-3.29-4.61-6.65-4.58-3.26.03-6.32.06-9.01,2.54-2.17,2-5.03,1.62-7.45-.45-1.09-.93-1.95-2.13-2.92-3.21-1.77-1.97-3.65-2.85-6.4-1.56-2,.93-4.31,1.22-6.5,1.7-2.36.52-4.73.99-7.1,1.41-3.99.71-7.92,1.12-11.89-.42-2.4-.93-4.76-.18-6.74,1.5-1.77,1.5-2.87,3.4-3.62,5.6-.88,2.58-1.95,5.1-3.02,7.62-.86,2.05-2.53,3.33-4.52,4.13-2.47.99-4.64.12-5.39-2.41-1.18-4.01-2.46-8.07-1.47-12.33.76-3.29.28-6.48-.88-9.49-1.07-2.78-1.59-5.56-1.44-8.49.16-3.3-.41-6.41-2.32-9.19-.18-.26-.28-.58-.42-.87-2.23-4.47-1.88-5.45,2.08-8.56,1.83-1.44,4.22-2.4,6.5-2.96,2.77-.68,4.55.98,4.05,3.73-.75,4.14.47,8.01,1.17,11.94.7,3.93,3.35,6.66,6.78,8.33,3.89,1.9,8.01,3.32,12.03,4.95.15.06.31.1.46.14,8.96,2.13,12.53-.12,17.79-7.01.1-.13.14-.29.22-.43,1.13-1.94,2.68-3.76,3.29-5.85.61-2.08.26-4.43.38-6.66.24-4.68.21-9.33-.71-13.96-.53-2.68-.65-5.44-1.14-8.13-.83-4.58-1.79-9.14-2.74-13.7-.71-3.38-2.93-5.91-5.69-7.53-5.53-3.26-9.61-8.03-14.05-12.45-1.48-1.48-3-2.93-4.4-4.49-.97-1.07-1.78-2.28-2.63-3.44-1.27-1.74-1.35-3.62-.38-5.47,1.75-3.33,4.02-5.99,7.54-7.83,5.25-2.75,10.61-3.6,16.56-2.57Zm9.61,7.06c-1.29.1-3.05.19-4.8.41-.78.1-1.59.35-2.28.72-4.27,2.32-8.9,3.55-13.57,4.74-3.6.92-4.01,2.6-1.49,5.43.21.24.44.47.67.69,2.74,2.52,4.96,5.4,6.79,8.66.91,1.62,2.38,2.99,3.79,4.25,1.3,1.16,2.86,2.04,4.32,3.03,3.35,2.26,7.43,1.66,9.77-1.64,1.95-2.76,3.45-5.76,3.64-9.28.12-2.08.52-4.14.76-6.21.24-2.07.52-4.14.64-6.22.15-2.56-.95-3.94-3.45-4.32-1.42-.21-2.88-.17-4.8-.27Zm-45.21,99.52c.09.84.04,1.51.26,2.08.22.55.67,1.32,1.11,1.38.67.1,1.64-.11,2.09-.57,1.58-1.63,2.41-3.69,2.61-5.96.11-1.25-.95-2.55-2.14-2.77-.98-.18-2.37.44-2.73,1.47-.52,1.48-.84,3.03-1.2,4.38Z"/>
  <path class="cls-1" d="m45.89,131.72c.56-2.05,1.02-4.78,2.04-7.29,1.37-3.35,4.13-4.62,7.79-4.15,4.94.64,9.84,1.53,14.83,1.86,2.99.2,6.03,1.1,8.85,2.19,4.08,1.58,8.22,2.79,12.55,3.29,1.81.21,3.4.84,4.95,1.76,4.02,2.42,7.77,5.19,10.86,8.74,1.03,1.18,1.83,2.61,2.51,4.03,1.48,3.13,3.38,5.81,6.61,7.33.44.21.87.43,1.26.71,1.79,1.28,2.12,3.42.66,5.01-.86.93-1.97,1.64-2.95,2.46-2.84,2.36-5.71,4.69-8.51,7.1-2.44,2.1-4.79,4.28-7.18,6.43-2.04,1.83-3.81,3.85-5.26,6.23-1.49,2.45-3.43,4.63-5.17,6.93-.97,1.28-1.93,2.56-2.9,3.84-.87,1.15-1.67,2.37-2.63,3.44-1.82,2.05-3.73,3.93-4.08,6.92-.19,1.58-1.6,2.32-3.21,2.41-1.88.11-3.47-.54-4.77-1.9-1.39-1.46-2.17-3.2-2.29-5.19-.13-2.3-.71-4.47-1.96-6.39-2.19-3.37-3.9-6.97-5.55-10.63-.85-1.88-2.14-3.55-3.18-5.35-.8-1.39-1.76-2.76-2.21-4.27-1.64-5.44-4.81-10.09-7.34-15.07-1.13-2.22-1.47-4.89-1.92-7.4-.62-3.47-1.01-6.99-1.49-10.49-.09-.64-.15-1.28-.3-2.57Zm23.51-2.09c-5.77-.33-8.18,2.54-7.08,7.56.17.78.42,1.55.62,2.33.63,2.49,1.43,4.96,1.83,7.49.3,1.92.58,3.76,1.5,5.52,1.06,2.01,1.68,4.15.92,6.5-.52,1.61-.03,3.15.62,4.68.63,1.47,1.27,2.97,1.61,4.52,1.17,5.33,2.2,10.7,3.34,16.04.2.93.61,1.83,1.05,2.67.29.55.78,1.01,1.23,1.45.58.57,1.83.31,2.02-.43.2-.77.38-1.57.42-2.36.1-2.39,1.15-4.32,2.71-6.03,1.08-1.19,2.2-2.35,3.32-3.5,5.86-5.98,11.98-11.67,18.52-16.9,2.44-1.95,4.25-4.39,5.8-7.03.95-1.62.34-3.25-1.29-4.04-.58-.28-1.18-.56-1.81-.67-4.17-.75-7.85-2.8-11.75-4.29-2.94-1.12-5.4-2.79-7.55-5.04-.89-.93-1.84-1.8-2.75-2.71-3.9-3.83-9.08-4.54-13.29-5.78Z"/>
  <path class="cls-1" d="m535.83,77.13c-.62,7.81-.85,15.7-2.44,23.45-.75,3.64-1.33,7.28-1.27,11.02.05,3.25-.6,6.41-1.73,9.46-.34.91-.88,1.82-.91,2.74-.2,6.16-2.45,11.96-3.07,18.04-.21,2.08-.13,4.18-.23,6.28-.05,1.12-.1,2.26-.35,3.35-.3,1.29-1.63,2.06-2.99,1.92-1.68-.18-3.04-1.03-4.23-2.16-1.4-1.33-2.67-2.83-4.16-4.04-2.24-1.82-4.62-3.46-6.94-5.17-1.16-.85-2.36-1.65-3.5-2.52-3.45-2.64-6.64-5.49-9.22-9.09-2.04-2.84-5.46-3.99-8.66-4.99-3.28-1.03-6.37-2.13-8.76-4.77-.72-.79-1.85-1.31-2.89-1.68-3.93-1.4-7.72-3.28-12.08-3.12-2.19.08-4.04-1.06-5.63-2.49-2.42-2.18-2.86-5.37-.7-7.76,2.25-2.48,4.07-5.35,6.99-7.3,1.95-1.3,3.45-3.35,4.96-5.22,1.14-1.4,2.24-2.77,3.95-3.45,5.02-2,8.89-5.77,13.36-8.62,1.62-1.03,3.19-2.14,4.8-3.21.54-.36,1.16-.61,1.62-1.05,3.79-3.55,8.51-5.75,12.63-8.82,2.32-1.72,4.53-3.64,6.52-5.73,2.27-2.39,5.14-3.3,8.16-3.84,3.08-.55,5.57,1.19,8.03,2.69.81.49,1.36,1.4,2.14,1.95,4.88,3.45,7.49,7.93,6.59,14.11Zm-69,30.34c1.19.55,1.87.95,2.6,1.18,3.53,1.1,7.06,2.22,10.63,3.21,2.7.74,5.1,1.76,6.89,4.1,1.8,2.34,4.24,3.89,7.11,4.78,4.44,1.37,7.91,4.17,11.04,7.53,3.95,4.24,8,8.38,12.03,12.53,1.44,1.48,3.49,1.18,4.38-.7.47-.98.76-2.16.73-3.23-.16-6.64,1.04-13.15,1.89-19.69.37-2.87.8-5.75,1.52-8.55.76-2.97,1.22-5.96,1.7-8.98.6-3.79.95-7.63,2.32-11.32,1-2.68,1.37-5.63,1.73-8.5.65-5.24-1.46-9.01-6.06-11.44-.85-.45-1.68-.95-2.48-1.49-1.8-1.21-3.49-1.02-5.45-.16-5.68,2.5-10.51,6.2-15.22,10.13-1.85,1.54-3.87,2.9-5.6,4.57-1.83,1.77-3.77,3.61-4.96,5.8-1.06,1.95-2.27,3.5-4.13,4.53-2.99,1.66-5.52,3.89-8.04,6.14-1.81,1.61-3.7,3.04-6.03,3.91-2.62.98-4.61,2.85-6.63,5.67Z"/>
  <path class="cls-1" d="m224.03,245.56c2.65-.08,5.03.58,7.36,1.9,3.16,1.78,5.61,4.28,7.9,6.97.7.81,1.11,1.93,1.43,2.98.33,1.06.25,2.25.57,3.32,1.18,4.06-.3,7.3-3.17,9.98-2.82,2.63-5.82,5.01-9.78,5.86-2.82.6-5.55,1.57-8.34,2.32-2.39.65-4.78.41-7.15-.17-2.64-.64-4.29-2.39-4.57-4.98-.23-2.19.02-4.46.29-6.67.22-1.74,1.13-3.43,1.14-5.14.02-3.71,1.47-6.85,3.25-9.91,2.46-4.21,6.16-6.39,11.05-6.44Z"/>
  <path class="cls-1" d="m390.84,256.38c0,1.13.1,2.26-.02,3.37-.31,2.74-1.72,5-4.06,6.25-5.01,2.67-10.3,4.57-16.16,3.65-1.26-.2-2.51-.55-3.7-.98-1.66-.6-3.31-1.25-4.89-2.03-6.23-3.08-8.27-8.62-4.64-14.78.98-1.65,2.31-3.1,3.33-4.73,2.92-4.65,7.54-6.51,12.58-7.09,10.15-1.16,17.65,5.94,17.58,16.33Z"/>
  <path class="cls-1" d="m271.96,336.74c.54.18,1.32.36,2.04.69.91.42,1.23,1.53.82,2.47-.75,1.77-2.07,2.84-3.94,3.23-1.58.33-3.16.63-4.74.93-8.87,1.68-17.47,4.27-25.86,7.59-1.94.77-3.96,1.36-5.99,1.87-.9.23-1.93.19-2.86.05-1.55-.23-2.26-2.04-1.4-3.39.98-1.54,2.33-2.61,4.07-3.25,5.58-2.06,11.06-4.48,16.75-6.17,4.92-1.46,10.06-2.16,15.12-3.14,1.89-.37,3.82-.56,5.99-.87Z"/>
  <path class="cls-1" d="m225.13,304.22c3.37.94,7.7,2.13,12.02,3.37,5.55,1.6,11.08,3.25,16.62,4.86,3.4.98,6.82,1.78,10.39,1.89,1.69.06,2.48.95,2.57,2.3.07,1.02-.72,1.98-1.65,1.99-.16,0-.33.05-.48,0-4.18-1.24-8.48-1.7-12.82-1.75-.16,0-.32-.03-.47-.09-6.57-2.65-13.76-3.03-20.37-5.58-2.69-1.04-5.41-1.99-8.09-3.05-1.33-.52-1.87-1.61-1.47-2.61.42-1.05,1.42-1.57,3.75-1.33Z"/>
  <path class="cls-1" d="m388.62,353.52c-3.23-.17-5.25-.43-7.11-1.64-1.73-1.12-4.11-1-5.56-2.74-.7-.83-1.81-1.45-1.54-2.8.17-.88,1.47-1.08,3.47-.65,5.5,1.19,11.01,2.35,16.51,3.52.16.03.35.02.47.11.59.46,1.47.84,1.67,1.44.3.91-.63,1.49-1.39,1.65-2.52.5-5.06.86-6.5,1.1Z"/>
  <path class="cls-1" d="m392.72,305.8c-.23.46-.33.99-.66,1.26-.73.61-1.53,1.2-2.39,1.62-2.16,1.05-4.36,2.03-6.58,2.97-.72.3-1.55.51-2.32.48-.54-.02-1.32-.41-1.52-.85-.2-.45-.04-1.45.32-1.71,3.12-2.24,6.2-4.63,10.07-5.46.69-.15,1.55.22,2.24.53.36.16.54.74.83,1.17Z"/>
  <path class="cls-1" d="m364.05,346.05c-1.78-.04-3.31-1.04-3.26-2.13.05-1.21,1.49-2.27,3.14-2.33,1.89-.06,3.54.92,3.75,2.24.19,1.19-1.57,2.27-3.63,2.22Z"/>
  <path class="cls-1" d="m376.37,313.19c.04,1.26-.99,2.16-2.31,2.02-.34-.03-.86-.57-.89-.91-.09-1.11,1.04-2.04,2.27-1.86.37.05.68.55.93.76Z"/>
  <path class="cls-2" d="m430.68,353.38c-2.14-3.2-1.99-4.2.64-5.37.86-.38,1.76-.77,2.68-.89.51-.07,1.31.26,1.58.67.29.43.31,1.28.08,1.76-.95,1.97-2.76,2.92-4.98,3.83Z"/>
  <path class="cls-2" d="m106.77,360.21c1.06,1.85.79,3.83.18,5.78-.1.31-.72.54-1.13.63-.22.05-.64-.21-.76-.44-1.08-2.12-.73-4.08,1.02-5.96.07-.08.3,0,.7,0Z"/>
  <path class="cls-2" d="m108.24,357.62c-.72-2.71.04-3.95,1.4-4.89.32-.22,1.19-.25,1.26-.11.23.48.47,1.24.24,1.6-.65,1-1.53,1.84-2.9,3.41Z"/>
  <path class="cls-2" d="m314.24,310.18c1.92.1,3.38.06,4.8.27,2.51.38,3.61,1.76,3.45,4.32-.12,2.08-.4,4.15-.64,6.22-.24,2.07-.64,4.13-.76,6.21-.2,3.52-1.69,6.52-3.64,9.28-2.33,3.3-6.42,3.9-9.77,1.64-1.46-.98-3.01-1.87-4.32-3.03-1.41-1.26-2.88-2.63-3.79-4.25-1.84-3.26-4.06-6.14-6.79-8.66-.24-.22-.46-.45-.67-.69-2.52-2.83-2.11-4.51,1.49-5.43,4.66-1.2,9.3-2.42,13.57-4.74.69-.38,1.5-.63,2.28-.72,1.75-.22,3.51-.31,4.8-.41Z"/>
  <path class="cls-2" d="m269.04,409.69c.36-1.35.68-2.9,1.2-4.38.36-1.02,1.76-1.65,2.73-1.47,1.19.22,2.25,1.52,2.14,2.77-.2,2.27-1.03,4.33-2.61,5.96-.45.46-1.42.67-2.09.57-.44-.06-.89-.84-1.11-1.38-.22-.56-.17-1.24-.26-2.08Z"/>
  <path class="cls-2" d="m69.41,129.63c4.21,1.24,9.4,1.95,13.29,5.78.92.9,1.87,1.78,2.75,2.71,2.14,2.24,4.61,3.92,7.55,5.04,3.89,1.49,7.58,3.54,11.75,4.29.62.11,1.23.39,1.81.67,1.62.79,2.24,2.42,1.29,4.04-1.55,2.64-3.36,5.08-5.8,7.03-6.54,5.22-12.66,10.92-18.52,16.9-1.13,1.15-2.24,2.31-3.32,3.5-1.56,1.71-2.61,3.65-2.71,6.03-.03.79-.21,1.59-.42,2.36-.19.74-1.44.99-2.02.43-.45-.44-.94-.9-1.23-1.45-.44-.85-.85-1.75-1.05-2.67-1.14-5.34-2.16-10.71-3.34-16.04-.34-1.55-.98-3.05-1.61-4.52-.65-1.52-1.14-3.07-.62-4.68.76-2.35.14-4.49-.92-6.5-.93-1.76-1.21-3.6-1.5-5.52-.39-2.53-1.19-5-1.83-7.49-.2-.78-.45-1.55-.62-2.33-1.1-5.01,1.31-7.89,7.08-7.56Z"/>
  <path class="cls-2" d="m466.84,107.47c2.02-2.82,4.02-4.69,6.63-5.67,2.33-.87,4.22-2.29,6.03-3.91,2.52-2.25,5.05-4.48,8.04-6.14,1.85-1.03,3.07-2.58,4.13-4.53,1.19-2.19,3.13-4.03,4.96-5.8,1.72-1.67,3.75-3.03,5.6-4.57,4.71-3.93,9.54-7.63,15.22-10.13,1.96-.86,3.65-1.05,5.45.16.8.54,1.63,1.04,2.48,1.49,4.6,2.43,6.71,6.2,6.06,11.44-.35,2.87-.73,5.82-1.73,8.5-1.38,3.69-1.72,7.53-2.32,11.32-.48,3.02-.93,6.01-1.7,8.98-.72,2.8-1.14,5.68-1.52,8.55-.85,6.54-2.05,13.05-1.89,19.69.03,1.08-.27,2.25-.73,3.23-.9,1.89-2.94,2.18-4.38.7-4.04-4.15-8.09-8.29-12.03-12.53-3.13-3.36-6.6-6.16-11.04-7.53-2.86-.89-5.31-2.44-7.11-4.78-1.79-2.34-4.2-3.36-6.89-4.1-3.57-.98-7.1-2.11-10.63-3.21-.73-.23-1.4-.63-2.6-1.18Z"/>
</svg>